<?xml version="1.0" encoding="utf-8"?>
<!-- Generator: Adobe Illustrator 25.4.1, SVG Export Plug-In . SVG Version: 6.00 Build 0)  -->
<svg version="1.1" id="Capa_1" xmlns="http://www.w3.org/2000/svg" xmlns:xlink="http://www.w3.org/1999/xlink" x="0px" y="0px"
	 viewBox="0 0 97.2 96.1" style="enable-background:new 0 0 97.2 96.1;" xml:space="preserve">
<style type="text/css">
	.st0{fill:#00D666;}
	.st1{fill:#FFFFFF;}
	.st2{fill:#717171;}
</style>
<g>
	<g>
		<circle class="st0" cx="44.5" cy="45.6" r="40"/>
	</g>
</g>
<path class="st1" d="M43.8,29.5L43.8,29.5c-0.8,0-1.5-0.6-1.5-1.5V12.9c0-0.8,0.6-1.5,1.5-1.5l0,0c0.8,0,1.5,0.6,1.5,1.5v15.2
	C45.3,28.9,44.6,29.5,43.8,29.5z"/>
<path class="st1" d="M34.7,20.5L34.7,20.5c0-0.8,0.6-1.5,1.5-1.5h15.2c0.8,0,1.5,0.6,1.5,1.5l0,0c0,0.8-0.6,1.5-1.5,1.5H36.2
	C35.4,21.9,34.7,21.3,34.7,20.5z"/>
<g>
	<path class="st1" d="M23.7,52.1c-1,0-2,0.2-3,0.4c-1.1,0.3-2,0.7-3,1.2c-0.6,0.3-1.1,0.7-1.7,1.1c-0.5,0.4-1,0.8-1.4,1.2
		c-0.6,0.6-1,1.2-1.4,1.8c-0.4,0.7-0.8,1.4-1,2.2c-0.2,0.6-0.4,1.2-0.5,1.8c0,0.3,0,0.6-0.1,0.8c-0.1,0.4-0.4,0.6-0.8,0.7
		c0,0,0,0,0,0c-0.1,0-0.3,0-0.4,0c-0.5-0.1-0.8-0.4-0.9-0.9c0,0,0,0,0,0c0,0,0-0.1,0-0.1c0.1-0.1,0-0.2,0.1-0.4
		c0.1-1.2,0.5-2.4,1-3.6c0.3-0.8,0.8-1.5,1.3-2.2c0.4-0.5,0.8-1,1.2-1.5c0.5-0.5,1-1,1.6-1.5c1-0.8,2.2-1.5,3.4-2
		c0.4-0.2,0.9-0.3,1.4-0.5c-2.1-1.2-3.6-2.8-4.3-4.9c-0.6-1.9-0.5-3.7,0.3-5.5c1.6-3.5,5.4-5.5,9.2-5.3c2,0.1,3.9,0.7,5.5,1.8
		c1.6,1.1,2.7,2.5,3.2,4.2c1.3,4-0.7,7.8-4.2,9.7c0.7,0.2,1.3,0.5,1.9,0.7c0.7,0.3,1.3,0.7,1.9,1.1c0.5,0.4,1.1,0.7,1.5,1.1
		c0.7,0.6,1.4,1.3,2,2.1c0.9,1.2,1.6,2.5,2.1,3.9c0.2,0.5,0.3,1.1,0.4,1.6c0,0.3,0.1,0.6,0.1,0.8c0.1,0.6-0.2,1-0.9,1.2
		c-0.1,0-0.3,0-0.4,0c-0.3-0.1-0.6-0.3-0.7-0.6C37,62.7,37,62.6,37,62.5c0-0.3-0.1-0.7-0.1-1c-0.1-0.7-0.3-1.3-0.6-1.9
		c-0.6-1.3-1.4-2.5-2.4-3.6c-0.9-0.9-1.9-1.7-3.1-2.3c-0.9-0.5-1.8-0.8-2.8-1.1c-0.5-0.1-1-0.2-1.6-0.3c-0.5-0.1-0.9-0.1-1.4-0.1
		c-0.1,0-0.2,0-0.4,0c-0.2,0-0.4,0-0.6,0C23.9,52.1,23.8,52.1,23.7,52.1z"/>
	<path class="st2" d="M23.7,52.1c0.1,0,0.2,0,0.4,0C23.9,52.1,23.8,52.1,23.7,52.1z"/>
	<path class="st2" d="M24.6,52.1c0.1,0,0.2,0,0.4,0C24.9,52.1,24.8,52.1,24.6,52.1z"/>
	<path class="st0" d="M17,43.2c0.1-1,0.4-2,0.9-2.8c0.4-0.7,1-1.3,1.7-1.8c0.7-0.6,1.6-1,2.5-1.3c0.6-0.2,1.3-0.3,1.9-0.3
		c1.1,0,2.1,0.1,3.1,0.5c0.7,0.3,1.4,0.6,2,1.1c0.6,0.5,1.1,1,1.5,1.6c0.5,0.8,0.9,1.7,1,2.6c0,0.3,0.1,0.6,0.1,0.9
		c0,1.1-0.3,2.1-0.9,3c-0.4,0.7-1,1.3-1.7,1.9c-1.1,0.9-2.5,1.4-3.9,1.5c-1.1,0.1-2.2,0-3.3-0.3c-0.8-0.3-1.6-0.7-2.3-1.2
		c-0.7-0.5-1.3-1.1-1.7-1.8c-0.4-0.7-0.7-1.4-0.8-2.2c0-0.2-0.1-0.4-0.1-0.7c0-0.1,0-0.2,0-0.3c0,0,0-0.1,0-0.1
		C17,43.4,17,43.3,17,43.2z"/>
	<path class="st2" d="M17,43.2c0,0.1,0,0.2,0,0.3C17,43.4,17,43.3,17,43.2z"/>
	<path class="st2" d="M17,43.6c0,0.1,0,0.2,0,0.3C17,43.8,17,43.7,17,43.6z"/>
</g>
<g>
	<path class="st1" d="M65.4,51.3c-1,0-2,0.2-3,0.4c-1.1,0.3-2,0.7-3,1.2c-0.6,0.3-1.1,0.7-1.7,1.1c-0.5,0.4-1,0.8-1.4,1.2
		c-0.6,0.6-1,1.2-1.4,1.8c-0.4,0.7-0.8,1.4-1,2.2c-0.2,0.6-0.4,1.2-0.5,1.8c0,0.3,0,0.6-0.1,0.8c-0.1,0.4-0.4,0.6-0.8,0.7
		c0,0,0,0,0,0c-0.1,0-0.3,0-0.4,0c-0.5-0.1-0.8-0.4-0.9-0.9c0,0,0,0,0,0c0,0,0-0.1,0-0.1c0.1-0.1,0-0.2,0.1-0.4
		c0.1-1.2,0.5-2.4,1-3.6c0.3-0.8,0.8-1.5,1.3-2.2c0.4-0.5,0.8-1,1.2-1.5c0.5-0.5,1-1,1.6-1.5c1-0.8,2.2-1.5,3.4-2
		c0.4-0.2,0.9-0.3,1.4-0.5c-2.1-1.2-3.6-2.8-4.3-4.9c-0.6-1.9-0.5-3.7,0.3-5.5c1.6-3.5,5.4-5.5,9.2-5.3c2,0.1,3.9,0.7,5.5,1.8
		c1.6,1.1,2.7,2.5,3.2,4.2c1.3,4-0.7,7.8-4.2,9.7c0.7,0.2,1.3,0.5,1.9,0.7c0.7,0.3,1.3,0.7,1.9,1.1c0.5,0.4,1.1,0.7,1.5,1.1
		c0.7,0.6,1.4,1.3,2,2.1c0.9,1.2,1.6,2.5,2.1,3.9c0.2,0.5,0.3,1.1,0.4,1.6c0,0.3,0.1,0.6,0.1,0.8c0.1,0.6-0.2,1-0.9,1.2
		c-0.1,0-0.3,0-0.4,0c-0.3-0.1-0.6-0.3-0.7-0.6c-0.1-0.1-0.1-0.3-0.1-0.4c0-0.3-0.1-0.7-0.1-1c-0.1-0.7-0.3-1.3-0.6-1.9
		c-0.6-1.3-1.4-2.5-2.4-3.6c-0.9-0.9-1.9-1.7-3.1-2.3c-0.9-0.5-1.8-0.8-2.8-1.1c-0.5-0.1-1-0.2-1.6-0.3c-0.5-0.1-0.9-0.1-1.4-0.1
		c-0.1,0-0.2,0-0.4,0c-0.2,0-0.4,0-0.6,0C65.6,51.3,65.5,51.2,65.4,51.3z"/>
	<path class="st2" d="M65.4,51.3c0.1,0,0.2,0,0.4,0C65.6,51.3,65.5,51.3,65.4,51.3z"/>
	<path class="st2" d="M66.3,51.3c0.1,0,0.2,0,0.4,0C66.5,51.3,66.4,51.3,66.3,51.3z"/>
	<path class="st0" d="M58.7,42.4c0.1-1,0.4-2,0.9-2.8c0.4-0.7,1-1.3,1.7-1.8c0.7-0.6,1.6-1,2.5-1.3c0.6-0.2,1.3-0.3,1.9-0.3
		c1.1,0,2.1,0.1,3.1,0.5c0.7,0.3,1.4,0.6,2,1.1c0.6,0.5,1.1,1,1.5,1.6c0.5,0.8,0.9,1.7,1,2.6c0,0.3,0.1,0.6,0.1,0.9
		c0,1.1-0.3,2.1-0.9,3c-0.4,0.7-1,1.3-1.7,1.9c-1.1,0.9-2.5,1.4-3.9,1.5c-1.1,0.1-2.2,0-3.3-0.3c-0.8-0.3-1.6-0.7-2.3-1.2
		c-0.7-0.5-1.3-1.1-1.7-1.8c-0.4-0.7-0.7-1.4-0.8-2.2c0-0.2-0.1-0.4-0.1-0.7c0-0.1,0-0.2,0-0.3c0,0,0-0.1,0-0.1
		C58.7,42.6,58.6,42.5,58.7,42.4z"/>
	<path class="st2" d="M58.7,42.4c0,0.1,0,0.2,0,0.3C58.6,42.6,58.6,42.5,58.7,42.4z"/>
	<path class="st2" d="M58.7,42.8c0,0.1,0,0.2,0,0.3C58.6,43,58.6,42.9,58.7,42.8z"/>
</g>
<g>
	<path class="st1" d="M44.5,62c-1,0-2,0.2-3,0.4c-1.1,0.3-2,0.7-3,1.2c-0.6,0.3-1.1,0.7-1.7,1.1c-0.5,0.4-1,0.8-1.4,1.2
		c-0.6,0.6-1,1.2-1.4,1.8c-0.4,0.7-0.8,1.4-1,2.2c-0.2,0.6-0.4,1.2-0.5,1.8c0,0.3,0,0.6-0.1,0.8c-0.1,0.4-0.4,0.6-0.8,0.7
		c0,0,0,0,0,0c-0.1,0-0.3,0-0.4,0c-0.5-0.1-0.8-0.4-0.9-0.9c0,0,0,0,0,0c0,0,0-0.1,0-0.1c0.1-0.1,0-0.2,0.1-0.4
		c0.1-1.2,0.5-2.4,1-3.6c0.3-0.8,0.8-1.5,1.3-2.2c0.4-0.5,0.8-1,1.2-1.5c0.5-0.5,1-1,1.6-1.5c1-0.8,2.2-1.5,3.4-2
		c0.4-0.2,0.9-0.3,1.4-0.5c-2.1-1.2-3.6-2.8-4.3-4.9c-0.6-1.9-0.5-3.7,0.3-5.5c1.6-3.5,5.4-5.5,9.2-5.3c2,0.1,3.9,0.7,5.5,1.8
		c1.6,1.1,2.7,2.5,3.2,4.2c1.3,4-0.7,7.8-4.2,9.7c0.7,0.2,1.3,0.5,1.9,0.7c0.7,0.3,1.3,0.7,1.9,1.1c0.5,0.4,1.1,0.7,1.5,1.1
		c0.7,0.6,1.4,1.3,2,2.1c0.9,1.2,1.6,2.5,2.1,3.9c0.2,0.5,0.3,1.1,0.4,1.6c0,0.3,0.1,0.6,0.1,0.8c0.1,0.6-0.2,1-0.9,1.2
		c-0.1,0-0.3,0-0.4,0c-0.3-0.1-0.6-0.3-0.7-0.6c-0.1-0.1-0.1-0.3-0.1-0.4c0-0.3-0.1-0.7-0.1-1c-0.1-0.7-0.3-1.3-0.6-1.9
		c-0.6-1.3-1.4-2.5-2.4-3.6c-0.9-0.9-1.9-1.7-3.1-2.3c-0.9-0.5-1.8-0.8-2.8-1.1c-0.5-0.1-1-0.2-1.6-0.3C46.7,62,46.2,62,45.7,62
		c-0.1,0-0.2,0-0.4,0c-0.2,0-0.4,0-0.6,0C44.7,62,44.6,61.9,44.5,62z"/>
	<path class="st2" d="M44.5,62c0.1,0,0.2,0,0.4,0C44.7,62,44.6,62,44.5,62z"/>
	<path class="st2" d="M45.4,61.9c0.1,0,0.2,0,0.4,0C45.6,62,45.5,62,45.4,61.9z"/>
	<path class="st0" d="M37.7,53.1c0.1-1,0.4-2,0.9-2.8c0.4-0.7,1-1.3,1.7-1.8c0.7-0.6,1.6-1,2.5-1.3c0.6-0.2,1.3-0.3,1.9-0.3
		c1.1,0,2.1,0.1,3.1,0.5c0.7,0.3,1.4,0.6,2,1.1c0.6,0.5,1.1,1,1.5,1.6c0.5,0.8,0.9,1.7,1,2.6c0,0.3,0.1,0.6,0.1,0.9
		c0,1.1-0.3,2.1-0.9,3c-0.4,0.7-1,1.3-1.7,1.9c-1.1,0.9-2.5,1.4-3.9,1.5c-1.1,0.1-2.2,0-3.3-0.3c-0.8-0.3-1.6-0.7-2.3-1.2
		c-0.7-0.5-1.3-1.1-1.7-1.8c-0.4-0.7-0.7-1.4-0.8-2.2c0-0.2-0.1-0.4-0.1-0.7c0-0.1,0-0.2,0-0.3c0,0,0-0.1,0-0.1
		C37.8,53.3,37.7,53.2,37.7,53.1z"/>
	<path class="st2" d="M37.7,53.1c0,0.1,0,0.2,0,0.3C37.7,53.3,37.7,53.2,37.7,53.1z"/>
	<path class="st2" d="M37.7,53.5c0,0.1,0,0.2,0,0.3C37.7,53.7,37.7,53.6,37.7,53.5z"/>
</g>
</svg>
