<?xml version="1.0" encoding="utf-8"?>
<!-- Generator: Adobe Illustrator 24.2.3, SVG Export Plug-In . SVG Version: 6.00 Build 0)  -->
<svg version="1.1" id="Capa_1" xmlns="http://www.w3.org/2000/svg" xmlns:xlink="http://www.w3.org/1999/xlink" x="0px" y="0px"
	 viewBox="0 0 428.44 80.73" style="enable-background:new 0 0 428.44 80.73;" xml:space="preserve">
<style type="text/css">
	.st0{fill:#703184;}
</style>
<g>
	<g>
		<g>
			<path class="st0" d="M253.63,67.32l1.24-2.21c0.05-0.14,0.18-0.23,0.32-0.23c0.09,0,0.18,0.05,0.28,0.09
				c0.87,0.55,2.94,1.7,5.65,1.75c1.56,0,4.41-0.37,4.41-2.48c0-1.7-1.7-2.34-4.96-3.22c-4.59-1.24-6.62-2.99-6.71-6.25
				c-0.09-3.77,3.22-6.25,7.81-6.2c3.4,0.05,5.65,1.47,6.39,2.02c0.18,0.14,0.28,0.41,0.14,0.69l-1.1,2.25
				c-0.09,0.14-0.23,0.23-0.37,0.23c-0.09,0-0.18-0.05-0.28-0.09c-0.73-0.46-2.39-1.47-4.69-1.52c-1.47,0-4.18,0.37-4.18,2.34
				c0,1.65,1.33,2.3,4.64,3.22c4.59,1.19,6.94,2.71,7.08,6.2c0.09,3.86-3.17,6.39-8.04,6.34c-4.04,0-6.71-1.61-7.54-2.25
				C253.54,67.87,253.45,67.59,253.63,67.32z"/>
			<path class="st0" d="M287.7,66.72c2.44,0,4.41-0.78,5.65-2.07c0.14-0.14,0.28-0.23,0.41-0.23c0.14,0,0.23,0.09,0.32,0.18
				l1.88,1.84c0.23,0.18,0.23,0.46,0.05,0.64c-1.88,2.11-4.82,3.22-8.41,3.22c-6.71,0-11.21-4.36-11.21-10.84
				c0-6.43,4.36-10.84,10.8-10.84c6.71,0,10.8,4.27,10.75,11.95c0,0.28-0.14,0.46-0.41,0.46h-17.27
				C280.86,64.47,283.66,66.72,287.7,66.72z M294.14,57.94c-0.55-3.45-3.12-5.74-6.94-5.74c-3.81,0-6.43,2.3-6.98,5.74H294.14z"/>
			<path class="st0" d="M323.69,52.66l0.69-3.12c0.05-0.32,0.23-0.46,0.51-0.46h1.93c0.23,0,0.41,0.18,0.41,0.46l0.05,20.31
				c0.05,6.62-4.55,10.89-11.07,10.89c-3.22,0-6.06-0.92-8.22-2.16c-0.23-0.14-0.32-0.41-0.18-0.69l1.33-2.48
				c0.05-0.14,0.18-0.23,0.32-0.23c0.09,0,0.18,0.05,0.23,0.09c1.65,1.06,3.72,1.7,6.43,1.79c4.69,0,7.4-2.66,7.44-7.12v-3.45
				c-1.61,2.39-4.23,3.86-7.72,3.86c-6.25-0.05-10.48-4.41-10.48-10.84c0-6.48,4.23-10.89,10.48-10.89
				C319.37,48.62,322.08,50.13,323.69,52.66z M316.16,66.63c4.32,0,7.35-2.89,7.35-7.17c0-4.27-3.03-7.17-7.35-7.17
				c-4.23,0-7.12,2.89-7.12,7.17C309.04,63.73,311.93,66.63,316.16,66.63z"/>
			<path class="st0" d="M337.51,49.08h2.85c0.23,0,0.41,0.18,0.41,0.46v11.21c0,4.36,2.07,5.97,5.24,5.97
				c3.54,0,6.16-3.17,6.34-7.58v-9.6c0-0.28,0.18-0.46,0.46-0.46h2.8c0.28,0,0.46,0.18,0.46,0.46v19.89c0,0.23-0.18,0.41-0.41,0.41
				h-2.07c-0.28,0-0.51-0.18-0.55-0.41l-0.51-3.26c-1.42,2.53-3.86,4.18-7.31,4.18c-4.87,0-8.13-3.03-8.13-9.28l-0.05-11.53
				C337.05,49.26,337.24,49.08,337.51,49.08z"/>
			<path class="st0" d="M374.06,52.38c-1.88,0-3.4,1.29-4.27,3.22v13.78c0,0.28-0.18,0.46-0.46,0.46h-2.8
				c-0.28,0-0.46-0.18-0.46-0.46V49.54c0-0.28,0.14-0.46,0.41-0.46h1.93c0.32,0,0.51,0.23,0.55,0.46l0.37,1.65
				c1.33-1.47,3.17-2.53,5.42-2.53c1.38,0,2.62,0.32,3.31,0.55c0.23,0.05,0.37,0.28,0.28,0.55l-0.78,2.94
				c-0.05,0.18-0.18,0.32-0.37,0.32c-0.05,0-0.09-0.05-0.18-0.05C376.4,52.75,375.26,52.38,374.06,52.38z"/>
			<path class="st0" d="M394.81,48.62c6.48,0,10.8,4.37,10.8,10.8c0,6.48-4.32,10.89-10.8,10.89c-6.43,0-10.8-4.41-10.8-10.89
				C384.01,52.98,388.38,48.62,394.81,48.62z M394.81,66.63c4.27,0,7.12-2.94,7.12-7.17c0-4.27-2.85-7.17-7.12-7.17
				c-4.23,0-7.12,2.89-7.12,7.17C387.69,63.69,390.59,66.63,394.81,66.63z"/>
			<path class="st0" d="M412.77,67.32l1.24-2.21c0.05-0.14,0.18-0.23,0.32-0.23c0.09,0,0.18,0.05,0.28,0.09
				c0.87,0.55,2.94,1.7,5.65,1.75c1.56,0,4.41-0.37,4.41-2.48c0-1.7-1.7-2.34-4.96-3.22c-4.59-1.24-6.62-2.99-6.71-6.25
				c-0.09-3.77,3.22-6.25,7.81-6.2c3.4,0.05,5.65,1.47,6.39,2.02c0.18,0.14,0.28,0.41,0.14,0.69l-1.1,2.25
				c-0.09,0.14-0.23,0.23-0.37,0.23c-0.09,0-0.18-0.05-0.28-0.09c-0.73-0.46-2.39-1.47-4.69-1.52c-1.47,0-4.18,0.37-4.18,2.34
				c0,1.65,1.33,2.3,4.64,3.22c4.59,1.19,6.94,2.71,7.08,6.2c0.09,3.86-3.17,6.39-8.04,6.34c-4.04,0-6.71-1.61-7.54-2.25
				C412.68,67.87,412.59,67.59,412.77,67.32z"/>
		</g>
	</g>
	<path class="st0" d="M35.89,71.1C16.55,71.41,0.34,55.87,0.01,36.53C-0.41,12.56,17.14,0.58,34.83,0.29
		c9.19,0,17.31,2.39,23.77,7.86c0.46,0.39,0.96,0.82,1.48,1.29c3.76,3.37,3.56,9.33-0.39,12.47c-0.09,0.08-0.19,0.15-0.28,0.23
		c-3.19,2.52-7.71,2.3-10.69-0.46c-0.87-0.8-1.72-1.51-2.46-1.97c-3.16-1.99-6.91-3.08-11.13-3.08c-11.27,0-18.79,7.66-18.79,19.08
		s7.52,19.08,18.79,19.08c4.6,0,8.22-1.18,11.04-2.87c0.56-0.34,1.26-0.9,2-1.57c3.03-2.75,7.66-2.71,10.7,0.02l0.16,0.14
		c3.44,3.1,3.56,8.45,0.26,11.7c-1.5,1.47-3.04,2.83-4.26,3.61C49.8,69.13,43.36,70.99,35.89,71.1z"/>
	<path class="st0" d="M119.38,2.02c-2.17-0.58-5.93-1.73-10.41-1.73c-6.94,0-13.47,4.95-16.02,11.08l-0.2-0.57
		c-1.9-5.3-6.85-8.88-12.48-9.04l-1.22-0.03c-0.8,0-1.45,0.65-1.45,1.45v64.9c0,0.8,0.65,1.45,1.45,1.45h1.77
		c7.34,0,13.28-5.95,13.28-13.28l-0.02-31.09c2.46-5.2,7.09-8.01,11.71-8.24c2.22-0.11,4.17,0.16,5.78,0.58
		c2.89,0.74,5.82-1.06,6.51-3.96l2.31-9.63C120.68,3.04,120.25,2.31,119.38,2.02z"/>
	<path class="st0" d="M207.4,0c-10.26,0-17.63,5.06-21.97,13.3C181.53,4.62,174.16,0,164.91,0c-9.11,0-15.46,3.9-19.51,10.41v0
		c-1.4-5.26-6.19-8.91-11.64-8.84l-2.38,0.03c-0.87,0.14-1.45,0.72-1.45,1.59v58.47c0,4.53,3.67,8.19,8.19,8.19h8.16l0.12-33.57
		c0.29-8.67,3.61-19.66,14.16-19.66c7.66,0,11.85,5.35,11.85,16.77v28.26c0,4.53,3.67,8.19,8.19,8.19h0.1c4.53,0,8.2-3.67,8.19-8.2
		l-0.01-23.78c0.14-9.4,2.75-21.25,14.31-21.25c7.66,0,11.85,5.35,11.85,16.77v28.26c0,4.53,3.67,8.19,8.19,8.19h8.28V30.35
		C231.54,11.13,221.71,0,207.4,0z"/>
</g>
</svg>
