<?xml version="1.0" encoding="utf-8"?>
<!-- Generator: Adobe Illustrator 25.4.1, SVG Export Plug-In . SVG Version: 6.00 Build 0)  -->
<svg version="1.1" id="Layer_1" xmlns="http://www.w3.org/2000/svg" xmlns:xlink="http://www.w3.org/1999/xlink" x="0px" y="0px"
	 viewBox="0 0 612 792" style="enable-background:new 0 0 612 792;" xml:space="preserve">
<style type="text/css">
	.st0{fill:#4EB962;}
	.st1{fill:#EB9D23;stroke:#FFFFFF;stroke-miterlimit:10;}
	.st2{fill:#4268B1;stroke:#FFFFFF;stroke-miterlimit:10;}
	.st3{fill:#4EB4E5;stroke:#FFFFFF;stroke-miterlimit:10;}
	.st4{fill:#3EA8DB;stroke:#FFFFFF;stroke-miterlimit:10;}
	.st5{fill:#2E3192;stroke:#FFFFFF;stroke-miterlimit:10;}
	.st6{fill:#D38F2A;stroke:#FFFFFF;stroke-miterlimit:10;}
</style>
<circle class="st0" cx="209" cy="342.54" r="83.5"/>
<g>
	<path class="st1" d="M203.15,333.24c3.9,0,7.79,0,11.69,0.01c3.33,0.01,6.67,0.12,10,0.02c4-0.12,7.35,3.23,7.28,7.12
		c-0.14,6.74-0.06,13.48-0.08,20.23c-0.27,0.14-0.4,0.38-0.46,0.67c-0.35,1.74-1.55,2.85-3,3.72c-1.68,1.01-3.58,1.02-5.47,1.01
		c-2.12-0.02-2.12,0-1.98,2.13c-0.01,5.55-0.02,11.09-0.04,16.64c0,0.55-0.03,1.11-0.04,1.66c-0.29,0.06-0.39,0.28-0.49,0.52
		c-1.24,2.84-3.53,4.2-6.57,4.29c-3.33,0.1-6.67,0.1-10,0c-3-0.09-5.27-1.44-6.52-4.22c-0.12-0.26-0.2-0.53-0.54-0.58
		c-0.02-3.43-0.05-6.86-0.07-10.29c-0.01-2.66-0.01-5.31-0.02-7.97c0.02-0.25,0.06-0.49,0.07-0.74c0.04-1.44,0.04-1.44-1.4-1.44
		c-1.54,0-3.07,0.06-4.58-0.35c-2.72-0.74-4.95-3.45-4.95-6.2c-0.01-6.71,0-13.43,0-20.14c0.19-3.26,3.25-6,6.8-6.03
		C196.24,333.25,199.69,333.25,203.15,333.24z"/>
	<path class="st2" d="M232.04,360.62c0.01-6.74-0.06-13.49,0.08-20.23c0.08-3.89-3.28-7.24-7.28-7.12c-3.33,0.1-6.67,0-10-0.02
		c0.85-2.89,3.15-4.66,6.35-4.67c9.75-0.03,19.5-0.04,29.25,0c3.64,0.02,6.55,2.84,6.54,6.63c-0.02,6.31,0,12.63-0.01,18.94
		c0,3.51-2.7,6.24-6.25,6.33c-0.91,0.02-1.83,0.06-2.74-0.01c-0.81-0.06-1.06,0.16-1.06,1.01c0.04,5.2,0.01,10.4,0.01,15.6
		c0,3.9-2.72,6.58-6.67,6.59c-3.08,0-6.17,0.01-9.25,0c-3.49-0.01-6.29-2.71-6.33-6.16c-0.04-3.13-0.03-6.25-0.03-9.38
		c0.22-0.02,0.43-0.07,0.65-0.07C229.21,368.1,232.54,364.48,232.04,360.62z"/>
	<path class="st3" d="M203.15,333.24c-3.46,0.01-6.91,0-10.37,0.04c-3.55,0.03-6.61,2.77-6.8,6.03c-0.24,1.44-0.09,2.89-0.11,4.34
		c-0.04,3.55-0.05,7.1-0.07,10.64c-7.64,0-15.29-0.01-22.93,0.01c-0.69,0-1.29-0.1-1.79-0.58c-0.01-6.53-0.12-13.06,0-19.58
		c0.05-2.75,2.44-5.06,5.35-5.49c0.43-0.06,0.88-0.07,1.32-0.07c9.65,0,19.31-0.01,28.96,0
		C199.92,328.59,202.36,330.36,203.15,333.24z"/>
	<path class="st4" d="M161.08,353.73c0.51,0.47,1.1,0.58,1.79,0.58c7.64-0.02,15.29-0.01,22.93-0.01c0.02,2.31,0.01,4.62,0.07,6.93
		c0.08,2.92,1.48,5.01,4.15,6.3c1.04,0.5,2.17,0.53,3.29,0.66c0,3.13,0.02,6.25,0,9.38c-0.03,3.23-2.84,6.03-6.14,6.08
		c-3.27,0.05-6.54,0.04-9.82,0c-3.47-0.04-6.25-2.83-6.26-6.25c-0.02-5.32-0.03-10.65,0-15.97c0-0.78-0.22-0.99-0.99-0.96
		c-1.32,0.05-2.66,0.15-3.95-0.1C162.96,359.72,160.88,356.96,161.08,353.73z"/>
	<path class="st1" d="M196.92,316.95c-0.12-5.51,4.47-10.78,10.03-11.53c6.98-0.94,12.71,3.09,14.06,9.86
		c0.16,0.8,0.11,1.6,0.07,2.4c-0.36,0.09-0.33,0.41-0.42,0.66c-1.63,4.81-4.92,7.66-10.06,8.5c-4.78,0.78-10.1-1.95-12.29-6.17
		C197.69,319.48,197.4,318.18,196.92,316.95z"/>
	<path class="st5" d="M235.77,324.83c-6.18-0.03-11.11-4.89-11.1-10.97c0.01-6.13,4.96-10.96,11.2-10.93
		c6.24,0.03,11.11,4.94,11.07,11.17C246.9,319.99,241.84,324.85,235.77,324.83z"/>
	<path class="st3" d="M171.22,312.46c0.14-3.67,3.25-7.5,7.22-8.9c6.35-2.23,13.27,1.54,14.67,8.01c0.04,0.18,0.02,0.37,0.03,0.55
		c-0.02,0.26-0.04,0.52,0.14,0.74c0,0.37,0.01,0.74,0.01,1.11c-0.36,0.09-0.34,0.41-0.41,0.67c-1.34,4.72-6.12,8.36-11.71,7.93
		C176.06,322.19,171.17,317.45,171.22,312.46z"/>
	<path class="st6" d="M196.92,316.95c0.48,1.23,0.77,2.53,1.39,3.73c2.19,4.22,7.5,6.95,12.29,6.17c5.14-0.84,8.43-3.69,10.06-8.5
		c0.09-0.25,0.06-0.57,0.42-0.66c-0.11,4.35-2.18,7.63-5.9,9.81c-7.47,4.38-16.94-0.14-18.21-8.62
		C196.86,318.24,196.8,317.59,196.92,316.95z"/>
	<path class="st6" d="M196.93,386.44c0.34,0.05,0.42,0.32,0.54,0.58c1.25,2.78,3.52,4.14,6.52,4.22c3.33,0.1,6.67,0.1,10,0
		c3.04-0.09,5.33-1.45,6.57-4.29c0.1-0.23,0.2-0.46,0.49-0.52c0.25,3.34-2.58,6.72-6.02,6.85c-3.99,0.15-7.99,0.15-11.97,0.01
		C199.57,393.18,196.8,389.93,196.93,386.44z"/>
	<path class="st4" d="M171.22,312.46c-0.05,4.99,4.83,9.73,9.95,10.12c5.59,0.43,10.37-3.21,11.71-7.93
		c0.07-0.26,0.05-0.58,0.41-0.67c0.25,4.72-3.71,9.6-8.59,10.58c-6.22,1.26-11.88-2.26-13.36-8.34
		C171.05,314.99,170.9,313.72,171.22,312.46z"/>
	<path class="st6" d="M193.32,368.18c-1.12-0.13-2.24-0.16-3.29-0.66c-2.67-1.28-4.08-3.38-4.15-6.3c-0.06-2.31-0.05-4.62-0.07-6.93
		c0.02-3.55,0.03-7.1,0.07-10.64c0.02-1.45-0.14-2.9,0.11-4.34c0,6.71-0.01,13.43,0,20.14c0,2.75,2.23,5.46,4.95,6.2
		c1.52,0.41,3.05,0.34,4.58,0.35c1.44,0,1.44,0,1.4,1.44c-0.01,0.25-0.04,0.49-0.07,0.74C195.67,368.06,194.49,368.05,193.32,368.18
		z"/>
	<path class="st6" d="M232.04,360.62c0.5,3.87-2.82,7.49-6.74,7.45c-0.22,0-0.43,0.04-0.65,0.07c-1.17,0-2.34,0-3.51,0
		c-0.14-2.13-0.14-2.15,1.98-2.13c1.89,0.01,3.79,0.01,5.47-1.01c1.44-0.87,2.64-1.98,3-3.72
		C231.64,360.99,231.77,360.76,232.04,360.62z"/>
	<path class="st4" d="M193.28,312.86c-0.18-0.22-0.16-0.48-0.14-0.74C193.24,312.36,193.35,312.59,193.28,312.86z"/>
</g>
</svg>
