<?xml version="1.0" encoding="utf-8"?>
<!-- Generator: Adobe Illustrator 25.4.1, SVG Export Plug-In . SVG Version: 6.00 Build 0)  -->
<svg version="1.1" id="Capa_1" xmlns="http://www.w3.org/2000/svg" xmlns:xlink="http://www.w3.org/1999/xlink" x="0px" y="0px"
	 viewBox="0 0 50 50" style="enable-background:new 0 0 50 50;" xml:space="preserve">
<style type="text/css">
	.st0{fill:#16345E;}
	.st1{fill:#FFFFFF;}
</style>
<path class="st0" d="M40.5,50h-31C4.3,50,0,45.7,0,40.5v-31C0,4.3,4.3,0,9.5,0h31C45.7,0,50,4.3,50,9.5v31C50,45.7,45.7,50,40.5,50z
	"/>
<g>
	<g>
		<path class="st1" d="M5.6,31.8c-1-0.3-1.8-0.7-2.4-1.2l0.9-1.9c0.6,0.4,1.3,0.8,2.1,1.1s1.6,0.4,2.5,0.4c1,0,1.8-0.2,2.3-0.5
			c0.5-0.3,0.8-0.7,0.8-1.3c0-0.4-0.1-0.7-0.4-0.9c-0.3-0.2-0.6-0.4-1.1-0.6c-0.4-0.1-1-0.3-1.8-0.5c-1-0.2-1.9-0.5-2.6-0.7
			c-0.6-0.2-1.2-0.6-1.7-1.1c-0.5-0.5-0.7-1.2-0.7-2.1c0-0.7,0.2-1.4,0.6-2c0.4-0.6,1-1.1,1.9-1.4c0.8-0.4,1.9-0.5,3.1-0.5
			c0.8,0,1.7,0.1,2.5,0.3c0.8,0.2,1.5,0.5,2.1,0.9l-0.8,1.9c-0.6-0.3-1.2-0.6-1.9-0.8c-0.7-0.2-1.3-0.3-1.9-0.3
			c-1,0-1.8,0.2-2.3,0.5c-0.5,0.3-0.7,0.8-0.7,1.3c0,0.4,0.1,0.7,0.4,0.9c0.3,0.2,0.6,0.4,1.1,0.6c0.4,0.1,1,0.3,1.8,0.5
			c1,0.2,1.9,0.5,2.5,0.7c0.7,0.2,1.2,0.6,1.7,1.1c0.5,0.5,0.7,1.2,0.7,2.1c0,0.7-0.2,1.4-0.6,2c-0.4,0.6-1,1.1-1.9,1.4
			s-1.9,0.5-3.1,0.5C7.6,32.2,6.6,32.1,5.6,31.8z"/>
		<path class="st1" d="M16,18.5h2.5v13.7H16V18.5z"/>
		<path class="st1" d="M28.8,19.1c0.9,0.4,1.5,0.9,2,1.6c0.5,0.7,0.7,1.6,0.7,2.5c0,1-0.2,1.8-0.7,2.5c-0.5,0.7-1.1,1.3-2,1.7
			C28,27.8,27,28,25.8,28h-3v4.2h-2.5V18.5h5.5C27,18.5,28,18.7,28.8,19.1z M28.2,25.2c0.6-0.5,0.8-1.1,0.8-2c0-0.9-0.3-1.5-0.8-2
			c-0.6-0.5-1.4-0.7-2.5-0.7h-2.9v5.3h2.9C26.8,25.9,27.6,25.7,28.2,25.2z"/>
		<path class="st1" d="M35.4,31.8c-1-0.3-1.8-0.7-2.3-1.2l0.9-1.9c0.6,0.4,1.3,0.8,2.1,1.1s1.6,0.4,2.5,0.4c1,0,1.8-0.2,2.3-0.5
			c0.5-0.3,0.8-0.7,0.8-1.3c0-0.4-0.1-0.7-0.4-0.9c-0.3-0.2-0.6-0.4-1.1-0.6s-1-0.3-1.8-0.5c-1-0.2-1.9-0.5-2.5-0.7
			c-0.6-0.2-1.2-0.6-1.7-1.1c-0.5-0.5-0.7-1.2-0.7-2.1c0-0.7,0.2-1.4,0.6-2c0.4-0.6,1-1.1,1.9-1.4c0.8-0.4,1.9-0.5,3.1-0.5
			c0.8,0,1.7,0.1,2.5,0.3s1.5,0.5,2.1,0.9l-0.8,1.9c-0.6-0.3-1.2-0.6-1.9-0.8c-0.7-0.2-1.3-0.3-1.9-0.3c-1,0-1.8,0.2-2.2,0.5
			c-0.5,0.3-0.7,0.8-0.7,1.3c0,0.4,0.1,0.7,0.4,0.9c0.3,0.2,0.6,0.4,1.1,0.6c0.4,0.1,1,0.3,1.8,0.5c1,0.2,1.9,0.5,2.5,0.7
			c0.7,0.2,1.2,0.6,1.7,1.1c0.5,0.5,0.7,1.2,0.7,2.1c0,0.7-0.2,1.4-0.6,2c-0.4,0.6-1,1.1-1.9,1.4c-0.8,0.4-1.9,0.5-3.1,0.5
			C37.4,32.2,36.4,32.1,35.4,31.8z"/>
		<g>
			<path class="st1" d="M46.2,29.9c0.2,0.1,0.3,0.2,0.4,0.4s0.1,0.4,0.1,0.6s-0.1,0.4-0.2,0.6c-0.1,0.2-0.2,0.3-0.4,0.4
				C46,31.9,45.8,32,45.6,32c-0.2,0-0.4-0.1-0.6-0.2c-0.2-0.1-0.3-0.2-0.4-0.4c-0.1-0.2-0.1-0.4-0.1-0.6s0-0.4,0.1-0.6
				c0.1-0.2,0.2-0.3,0.4-0.4c0.2-0.1,0.4-0.2,0.6-0.2S46,29.8,46.2,29.9z M46.1,31.7c0.1-0.1,0.3-0.2,0.3-0.3
				c0.1-0.1,0.1-0.3,0.1-0.5c0-0.2,0-0.3-0.1-0.5c-0.1-0.1-0.2-0.3-0.3-0.3c-0.1-0.1-0.3-0.1-0.5-0.1c-0.2,0-0.3,0-0.5,0.1
				s-0.3,0.2-0.3,0.3c-0.1,0.1-0.1,0.3-0.1,0.5c0,0.2,0,0.3,0.1,0.5c0.1,0.1,0.2,0.3,0.3,0.3c0.1,0.1,0.3,0.1,0.5,0.1
				C45.8,31.8,46,31.8,46.1,31.7z M46.1,30.9c0,0.1-0.1,0.1-0.2,0.2l0.3,0.4H46l-0.2-0.4h0h-0.2v0.4h-0.3v-1.3h0.5
				c0.2,0,0.3,0,0.4,0.1s0.1,0.2,0.1,0.3C46.2,30.8,46.2,30.8,46.1,30.9z M45.7,30.9c0.1,0,0.2,0,0.2-0.1c0,0,0.1-0.1,0.1-0.2
				s0-0.1-0.1-0.2c0,0-0.1-0.1-0.2-0.1h-0.2v0.4C45.4,30.9,45.7,30.9,45.7,30.9z"/>
		</g>
	</g>
</g>
</svg>
