<?xml version="1.0" encoding="utf-8"?>
<!-- Generator: Adobe Illustrator 27.9.0, SVG Export Plug-In . SVG Version: 6.00 Build 0)  -->
<svg version="1.1" xmlns="http://www.w3.org/2000/svg" xmlns:xlink="http://www.w3.org/1999/xlink" x="0px" y="0px"
	 viewBox="0 0 1122 1122" style="enable-background:new 0 0 1122 1122;" xml:space="preserve">
<style type="text/css">
	.st0{fill:#FFFFFF;}
	.st1{fill:#94DBF7;}
	.st2{fill:#06255B;}
</style>
<g id="background">
	<rect id="XMLID_213_" class="st0" width="1122" height="1122"/>
</g>
<g id="Background1">
</g>
<g id="Object">
	<g>
		<circle id="XMLID_1190_" class="st1" cx="561" cy="561" r="428.85"/>
		<g id="XMLID_769_">
			<polygon id="XMLID_771_" class="st2" points="750.89,306.74 692.54,325.61 709.28,342.32 587.47,460.84 483.63,436.64 
				337.71,606.51 352.53,618.4 490,454.49 592.89,480.8 717.94,350.98 732.98,366 			"/>
			<path id="XMLID_770_" class="st2" d="M788.32,780.64V420.73c0-4.94-4.04-8.98-8.98-8.98H691.8c-4.94,0-8.98,4.04-8.98,8.98
				v359.91h-11.34V521.51c0-4.94-4.04-8.98-8.98-8.98h-87.53c-4.94,0-8.98,4.04-8.98,8.98v259.13h-11.34V593.18
				c0-4.94-4.04-8.98-8.98-8.98h-87.53c-4.94,0-8.98,4.04-8.98,8.98v187.46H437.8V678.29c0-4.94-4.04-8.98-8.98-8.98h-87.53
				c-4.94,0-8.98,4.04-8.98,8.98v102.34h-34.52v34.62h526.45v-34.62H788.32z"/>
		</g>
	</g>
</g>
</svg>
