<svg width="97.2" height="96.1" xmlns="http://www.w3.org/2000/svg" xmlns:xlink="http://www.w3.org/1999/xlink" xml:space="preserve" version="1.1">

 <g>
  <title>Layer 1</title>
  <g id="svg_1">
   <image x="-0.92" y="0" id="svg_2" opacity="0.27" transform="matrix(1 0 0 1 -2.48 -1.36)" xlink:href="6CC2C967.png" height="104" width="104"/>
   <g stroke="null" id="svg_3">
    <circle stroke="null" id="svg_4" fill="#8bc33e" r="46.44737" cy="46.25789" cx="49.25789" class="st0"/>
   </g>
  </g>
  <path stroke="null" id="svg_5" fill="#FFFFFF" d="m33.97369,48.49474l0,0c-1.8,0 -3.2,-0.81828 -3.2,-1.87036l0,-19.58033c0,-1.05208 1.4,-1.87036 3.2,-1.87036l0,0c1.8,0 3.2,0.81828 3.2,1.87036l0,19.63878c0,0.99363 -1.4,1.81191 -3.2,1.81191z" class="st1"/>
  <path stroke="null" id="svg_6" fill="#FFFFFF" d="m31.07895,27.96843l0,0c0,-1.8 1.21579,-3.2 2.77894,-3.2l29.17895,0c1.56316,0 2.77895,1.4 2.77895,3.2l0,0c0,1.8 -1.21579,3.2 -2.77895,3.2l-29.17895,0l-2.77894,-3.2z" class="st1"/>
  <path stroke="null" id="svg_9" fill="#FFFFFF" d="m30.55263,46.91578l0,0c0,-1.8 1.23421,-3.2 2.82105,-3.2l29.62105,0c1.58684,0 2.82105,1.4 2.82105,3.2l0,0c0,1.8 -1.23421,3.2 -2.82105,3.2l-29.62105,0c-1.49869,0 -2.82105,-1.4 -2.82105,-3.2z" class="st1"/>
  <path stroke="null" id="svg_12" fill="#FFFFFF" d="m47.81053,75.59999l0,0c-1.8,0 -3.2,-2.09253 -3.2,-4.78289l0,-50.07106c0,-2.69038 1.4,-4.78289 3.2,-4.78289l0,0c1.8,0 3.2,2.0925 3.2,4.78289l0,50.22051c0,2.5409 -1.4,4.63343 -3.2,4.63343z" class="st1"/>
  <path stroke="null" id="svg_13" fill="#FFFFFF" d="m62.6579,67.17895l0,0c-1.8,0 -3.2,-0.81829 -3.2,-1.87036l0,-19.58034c0,-1.05208 1.4,-1.87036 3.2,-1.87036l0,0c1.8,0 3.2,0.81828 3.2,1.87036l0,19.63878c0,0.99363 -1.4,1.81192 -3.2,1.81192z" class="st1"/>
  <path stroke="null" id="svg_14" fill="#FFFFFF" d="m30.81579,64.28421l0,0c0,-1.8 1.21579,-3.2 2.77895,-3.2l29.17895,0c1.56316,0 2.77895,1.4 2.77895,3.2l0,0c0,1.8 -1.21579,3.2 -2.77895,3.2l-29.17895,0c-1.47632,0 -2.77895,-1.4 -2.77895,-3.2z" class="st1"/>
 </g>
</svg>