<svg width="97.2" height="96.1" xmlns="http://www.w3.org/2000/svg" xmlns:xlink="http://www.w3.org/1999/xlink" xml:space="preserve" version="1.1">

 <g>
  <title>Layer 1</title>
  <g id="svg_1">
   <image x="-0.92" y="0" id="svg_2" opacity="0.27" transform="matrix(1 0 0 1 -2.48 -1.36)" xlink:href="6CC2C967.png" height="104" width="104"/>
   <g id="svg_3">
    <circle id="svg_4" fill="#8bc33e" r="40" cy="45.6" cx="48.6" class="st0"/>
   </g>
  </g>
  <path stroke="null" id="svg_5" fill="#FFFFFF" d="m35.81579,46.65263l0,0c-1.8,0 -3.2,-0.81828 -3.2,-1.87036l0,-19.58033c0,-1.05208 1.4,-1.87036 3.2,-1.87036l0,0c1.8,0 3.2,0.81828 3.2,1.87036l0,19.63878c0,0.99363 -1.4,1.81191 -3.2,1.81191z" class="st1"/>
  <path stroke="null" id="svg_6" fill="#FFFFFF" d="m32.39474,26.12632l0,0c0,-1.8 1.21579,-3.2 2.77895,-3.2l29.17895,0c1.56316,0 2.77895,1.4 2.77895,3.2l0,0c0,1.8 -1.21579,3.2 -2.77895,3.2l-29.17895,0c-1.47632,0 -2.77895,-1.4 -2.77895,-3.2z" class="st1"/>
  <path stroke="null" id="svg_9" fill="#FFFFFF" d="m32.39474,45.07368l0,0c0,-1.8 1.23421,-3.2 2.82105,-3.2l29.62105,0c1.58684,0 2.82105,1.4 2.82105,3.2l0,0c0,1.8 -1.23421,3.2 -2.82105,3.2l-29.62105,0c-1.49869,0 -2.82105,-1.4 -2.82105,-3.2z" class="st1"/>
  <path stroke="null" id="svg_12" fill="#FFFFFF" d="m48.6,76.65262l0,0c-1.20789,0 -2.14737,-2.21257 -2.14737,-5.05726l0,-52.94337c0,-2.84472 0.93947,-5.05726 2.14737,-5.05726l0,0c1.20789,0 2.14737,2.21254 2.14737,5.05726l0,53.1014c0,2.68666 -0.93947,4.89923 -2.14737,4.89923z" class="st1"/>
  <path stroke="null" id="svg_13" fill="#FFFFFF" d="m64.5,65.33685l0,0c-1.8,0 -3.2,-0.81829 -3.2,-1.87036l0,-19.58034c0,-1.05208 1.4,-1.87036 3.2,-1.87036l0,0c1.8,0 3.2,0.81828 3.2,1.87036l0,19.63878c0,0.99363 -1.4,1.81192 -3.2,1.81192z" class="st1"/>
  <path stroke="null" id="svg_14" fill="#FFFFFF" d="m32.92105,62.44211l0,0c0,-1.8 1.21579,-3.2 2.77895,-3.2l29.17895,0c1.56316,0 2.77895,1.4 2.77895,3.2l0,0c0,1.8 -1.21579,3.2 -2.77895,3.2l-29.17895,0c-1.47632,0 -2.77895,-1.4 -2.77895,-3.2z" class="st1"/>
  <path stroke="null" id="svg_15" fill="#ff0000" d="m21.1,38.75788l0,0c-0.98586,0 -1.75263,-0.45817 -1.75263,-1.04724l0,-10.96339c0,-0.58908 0.76677,-1.04725 1.75263,-1.04725l0,0c0.98585,0 1.75263,0.45817 1.75263,1.04725l0,10.99612c0,0.55635 -0.76678,1.01452 -1.75263,1.01452z" class="st1"/>
  <path stroke="null" id="svg_16" fill="#ff0000" d="m14.76316,32.17894l0,0c0,-0.91184 0.44211,-1.62105 1.01053,-1.62105l10.61053,0c0.56842,0 1.01053,0.70921 1.01053,1.62105l0,0c0,0.91184 -0.44211,1.62105 -1.01053,1.62105l-10.61053,0c-0.53684,0 -1.01053,-0.70921 -1.01053,-1.62105z" class="st1"/>
 </g>
</svg>