<?xml version="1.0" encoding="utf-8"?>
<!-- Generator: Adobe Illustrator 25.4.1, SVG Export Plug-In . SVG Version: 6.00 Build 0)  -->
<svg version="1.1" id="Capa_1" xmlns="http://www.w3.org/2000/svg" xmlns:xlink="http://www.w3.org/1999/xlink" x="0px" y="0px"
	 viewBox="0 0 231.4 80.7" style="enable-background:new 0 0 231.4 80.7;" xml:space="preserve">
<style type="text/css">
	.st0{fill:#FFFFFF;}
</style>
<g>
	<g>
		<path class="st0" d="M12.5,74.6C7.2,73,3.1,71,0,68.4l4.7-10.3c3,2.3,6.7,4.2,11,5.6c4.4,1.4,8.8,2.2,13.1,2.2
			c5.4,0,9.5-0.8,12.2-2.5c2.7-1.7,4-3.9,4-6.7c0-2-0.7-3.7-2.3-5c-1.5-1.3-3.4-2.4-5.7-3.1c-2.3-0.7-5.4-1.6-9.4-2.5
			c-5.6-1.3-10.1-2.6-13.6-3.9c-3.4-1.3-6.4-3.3-8.9-6.1S1.6,29.7,1.6,25c0-3.9,1.1-7.5,3.3-10.7s5.5-5.8,10-7.7s9.9-2.8,16.3-2.8
			c4.5,0,8.9,0.5,13.2,1.6c4.3,1.1,8.1,2.6,11.2,4.7l-4.3,10.3c-3.2-1.8-6.6-3.2-10-4.2c-3.5-0.9-6.9-1.4-10.2-1.4
			c-5.4,0-9.4,0.9-12,2.6c-2.6,1.8-3.9,4.1-3.9,7c0,2,0.7,3.7,2.3,5c1.5,1.3,3.4,2.3,5.7,3.1c2.3,0.7,5.4,1.6,9.4,2.5
			c5.4,1.2,9.9,2.5,13.4,3.8c3.5,1.3,6.5,3.3,9,6.1c2.5,2.7,3.7,6.4,3.7,11c0,3.9-1.1,7.5-3.3,10.7c-2.2,3.2-5.5,5.7-10,7.6
			C40.8,76,35.3,77,28.9,77C23.3,76.9,17.8,76.2,12.5,74.6z"/>
		<path class="st0" d="M67.9,3.8h13.2v73.2H67.9V3.8z"/>
		<path class="st0" d="M136.1,6.8c4.6,2,8.1,5,10.5,8.7c2.4,3.8,3.7,8.3,3.7,13.5c0,5.2-1.2,9.6-3.7,13.5s-6,6.8-10.5,8.8
			c-4.6,2-10,3.1-16.1,3.1H104V77H90.7V3.8H120C126.2,3.8,131.6,4.8,136.1,6.8z M132.5,39.6c3-2.4,4.5-5.9,4.5-10.5
			c0-4.5-1.5-8-4.5-10.5c-3-2.4-7.4-3.7-13.1-3.7h-15.5v28.3h15.5C125.2,43.2,129.5,42,132.5,39.6z"/>
		<path class="st0" d="M170.9,74.6c-5.3-1.6-9.4-3.6-12.5-6.2l4.7-10.3c3,2.3,6.7,4.2,11,5.6c4.3,1.4,8.7,2.2,13.1,2.2
			c5.4,0,9.5-0.8,12.2-2.5c2.7-1.7,4-3.9,4-6.7c0-2-0.7-3.7-2.3-5c-1.5-1.3-3.4-2.4-5.7-3.1c-2.3-0.7-5.4-1.6-9.4-2.5
			c-5.6-1.3-10.1-2.6-13.5-3.9c-3.4-1.3-6.4-3.3-8.9-6.1c-2.5-2.7-3.7-6.4-3.7-11.1c0-3.9,1.1-7.5,3.3-10.7s5.5-5.8,9.9-7.7
			c4.4-1.9,9.9-2.8,16.3-2.8c4.5,0,8.9,0.5,13.2,1.6c4.3,1.1,8.1,2.6,11.2,4.7l-4.3,10.3c-3.2-1.8-6.6-3.2-10-4.2
			c-3.5-0.9-6.9-1.4-10.1-1.4c-5.4,0-9.4,0.9-12,2.6c-2.6,1.8-3.9,4.1-3.9,7c0,2,0.7,3.7,2.3,5c1.5,1.3,3.4,2.3,5.7,3.1
			c2.3,0.7,5.4,1.6,9.4,2.5c5.4,1.2,9.9,2.5,13.4,3.8c3.5,1.3,6.5,3.3,9,6.1c2.5,2.7,3.7,6.4,3.7,11c0,3.9-1.1,7.5-3.3,10.7
			c-2.2,3.2-5.5,5.7-10,7.6c-4.5,1.9-9.9,2.8-16.3,2.8C181.6,76.9,176.2,76.2,170.9,74.6z"/>
		<g>
			<path class="st0" d="M228.5,64.4c0.9,0.5,1.6,1.2,2.1,2.1c0.5,0.9,0.8,1.9,0.8,3s-0.3,2.1-0.8,3c-0.5,0.9-1.3,1.6-2.2,2.2
				c-0.9,0.5-1.9,0.8-3,0.8c-1.1,0-2.1-0.3-3-0.8c-0.9-0.5-1.6-1.3-2.2-2.2c-0.5-0.9-0.8-1.9-0.8-3c0-1.1,0.3-2.1,0.8-3
				c0.5-0.9,1.2-1.6,2.2-2.2c0.9-0.5,1.9-0.8,3-0.8S227.6,63.9,228.5,64.4z M228,74c0.8-0.5,1.4-1.1,1.8-1.8
				c0.4-0.8,0.7-1.6,0.7-2.6s-0.2-1.8-0.6-2.5s-1-1.4-1.8-1.8c-0.8-0.4-1.6-0.7-2.5-0.7s-1.8,0.2-2.6,0.7c-0.8,0.5-1.4,1.1-1.8,1.8
				s-0.6,1.6-0.6,2.5c0,0.9,0.2,1.8,0.6,2.5s1,1.4,1.8,1.8c0.8,0.5,1.6,0.7,2.5,0.7C226.4,74.7,227.2,74.4,228,74z M228.2,69.9
				c-0.2,0.4-0.6,0.6-1,0.8l1.5,2.3h-1.4l-1.3-2h-0.2h-1.3v2H223v-6.7h2.8c0.9,0,1.5,0.2,2.1,0.6c0.5,0.4,0.7,1,0.7,1.7
				C228.6,69.1,228.4,69.5,228.2,69.9z M225.7,69.8c0.5,0,0.8-0.1,1.1-0.3s0.4-0.5,0.4-0.9s-0.1-0.7-0.4-0.9s-0.6-0.3-1.1-0.3h-1.3
				v2.4C224.4,69.8,225.7,69.8,225.7,69.8z"/>
		</g>
	</g>
</g>
</svg>
