<?xml version="1.0" standalone="no"?>
<!DOCTYPE svg PUBLIC "-//W3C//DTD SVG 20010904//EN"
 "http://www.w3.org/TR/2001/REC-SVG-20010904/DTD/svg10.dtd">
<svg version="1.0" xmlns="http://www.w3.org/2000/svg"
 width="740.000000pt" height="414.000000pt" viewBox="0 0 740.000000 414.000000"
 preserveAspectRatio="xMidYMid meet">
<metadata>
Created by potrace 1.15, written by Peter Selinger 2001-2017
</metadata>
<g transform="translate(0.000000,414.000000) scale(0.100000,-0.100000)"
fill="#000000" stroke="none">
<path d="M2733 3982 c-89 -21 -164 -39 -167 -42 -3 -3 1 -28 7 -55 11 -45 18
-52 57 -72 92 -45 187 -18 278 81 41 44 50 73 36 110 -8 22 -24 20 -211 -22z"/>
<path d="M1661 3549 c-91 -9 -147 -29 -233 -86 -47 -31 -79 -61 -107 -103 -61
-92 -76 -147 -76 -275 0 -104 2 -114 33 -177 46 -95 89 -132 257 -228 152 -86
225 -142 251 -191 20 -39 17 -126 -5 -175 -22 -49 -55 -76 -129 -106 -52 -21
-73 -23 -227 -23 -196 0 -181 12 -146 -119 11 -44 21 -91 21 -105 0 -51 11
-56 128 -59 151 -5 252 15 371 74 194 96 301 259 301 460 0 119 -43 225 -122
301 -18 17 -104 70 -191 117 -87 47 -174 98 -193 113 -42 32 -74 90 -74 135 0
91 44 150 129 175 72 21 141 13 282 -33 61 -20 115 -32 119 -27 4 4 30 57 58
116 l51 108 -71 34 c-73 35 -216 72 -303 77 -27 2 -83 0 -124 -3z"/>
<path d="M2583 3532 c15 -74 67 -459 77 -562 15 -166 13 -254 -10 -392 -22
-142 -47 -353 -56 -484 l-7 -91 36 -39 c31 -35 41 -39 82 -39 40 0 51 5 76 33
l29 33 38 -29 c20 -16 46 -32 56 -36 17 -6 18 -2 12 51 -27 224 -37 367 -43
563 -5 222 -5 227 25 380 43 215 85 517 77 549 -9 38 -53 80 -91 87 -43 8 -97
-19 -119 -60 -16 -30 -17 -39 -2 -142 31 -209 40 -354 33 -554 -9 -299 -18
-440 -26 -435 -18 11 -24 174 -25 595 0 442 0 445 -22 487 -24 45 -70 85 -117
103 -28 10 -28 10 -23 -18z"/>
<path d="M5350 3549 c-123 -11 -244 -69 -316 -153 -111 -129 -141 -344 -70
-490 45 -92 85 -128 248 -221 84 -48 172 -102 195 -121 137 -112 96 -300 -79
-360 -44 -16 -82 -19 -220 -18 -115 0 -168 -3 -168 -11 0 -6 11 -55 25 -109
14 -54 25 -109 25 -122 0 -35 29 -44 145 -44 216 0 393 66 515 192 135 140
175 361 96 534 -40 87 -102 139 -274 229 -219 114 -262 156 -262 251 0 117 73
179 210 179 60 -1 99 -9 193 -39 64 -22 119 -37 121 -35 15 17 105 222 101
230 -21 33 -219 98 -330 107 -44 4 -114 4 -155 1z"/>
<path d="M3431 3536 c-6 -7 -5 -78 1 -186 10 -153 11 -443 5 -1230 l-2 -195
154 -2 154 -1 -7 198 c-3 109 -3 205 0 214 6 15 34 17 273 15 290 -2 337 4
451 59 124 60 232 212 266 372 24 111 15 292 -18 386 -46 131 -130 234 -250
307 -117 71 -114 70 -590 72 -307 2 -431 -1 -437 -9z m817 -246 c66 -28 150
-118 176 -186 11 -29 20 -88 23 -145 8 -136 -18 -220 -89 -295 -79 -84 -100
-89 -375 -89 -164 0 -235 3 -244 12 -14 14 -17 689 -3 703 14 14 206 29 339
26 100 -2 129 -6 173 -26z"/>
<path d="M6020 2185 c-78 -35 -123 -101 -123 -180 0 -95 65 -170 162 -189 100
-19 220 84 221 189 0 50 -44 131 -88 160 -50 33 -124 41 -172 20z m157 -37
c48 -29 73 -76 73 -138 0 -100 -68 -170 -164 -170 -100 0 -170 71 -169 172 2
131 144 206 260 136z"/>
<path d="M6020 2005 c0 -63 4 -105 10 -105 6 0 10 21 10 46 0 43 1 45 27 42
25 -3 63 -44 75 -80 2 -6 10 -9 16 -7 9 3 3 19 -17 51 -23 37 -27 48 -15 52 8
3 19 17 26 30 9 20 8 30 -6 51 -14 22 -24 25 -71 25 l-55 0 0 -105z"/>
<path d="M715 1051 l-1 -259 211 -4 c115 -2 213 -2 216 1 4 3 9 22 13 42 l6
36 -134 -5 c-74 -3 -146 -2 -161 2 -25 6 -26 8 -23 79 l3 72 140 3 c149 3 155
5 155 55 l0 28 -147 -3 -148 -3 -3 64 c-2 44 1 67 10 73 7 4 78 5 157 2 l143
-7 -7 34 c-4 19 -9 37 -12 42 -2 4 -97 7 -211 7 l-207 0 0 -259z"/>
<path d="M3674 1264 c3 -26 6 -143 6 -260 l0 -214 50 0 50 0 0 199 c0 109 3
226 6 260 l7 61 -63 0 -63 0 7 -46z"/>
<path d="M4404 1256 c-2 -6 -5 -36 -6 -66 -3 -49 -6 -55 -28 -60 -18 -4 -25
-13 -25 -30 0 -20 6 -26 30 -30 l30 -5 -4 -111 c-3 -106 -2 -111 22 -140 24
-28 28 -29 112 -29 74 0 89 3 101 20 8 10 14 26 14 36 0 14 -8 16 -63 12 -84
-7 -89 -1 -85 118 l3 94 61 -3 62 -3 4 36 c2 19 2 38 -1 40 -2 3 -33 5 -68 5
l-64 0 3 57 3 58 -49 6 c-30 3 -50 1 -52 -5z"/>
<path d="M2210 1150 c-55 -12 -83 -25 -114 -56 -59 -59 -72 -139 -33 -214 33
-66 87 -93 198 -98 77 -4 93 -1 143 21 31 14 56 30 56 35 0 6 -8 20 -18 32
l-18 22 -40 -19 c-55 -29 -109 -36 -152 -22 -39 12 -95 57 -87 69 3 4 55 11
117 14 202 12 217 19 197 88 -26 94 -138 152 -249 128z m96 -76 c30 -14 55
-56 42 -69 -2 -2 -49 -7 -106 -11 -108 -7 -114 -5 -91 37 14 26 68 59 97 59
13 0 39 -7 58 -16z"/>
<path d="M2640 1144 c-57 -20 -105 -66 -126 -121 -30 -79 3 -163 82 -209 82
-48 254 -42 254 9 0 42 -12 49 -62 36 -87 -24 -164 21 -175 99 -5 35 -1 44 29
77 27 30 43 38 80 42 26 3 61 0 79 -6 38 -13 49 -6 52 34 2 26 -3 30 -38 41
-55 17 -121 16 -175 -2z"/>
<path d="M5909 1147 c-93 -26 -149 -96 -149 -188 0 -74 27 -115 100 -152 51
-26 62 -28 145 -25 72 3 99 9 133 28 23 13 42 27 42 31 0 4 -8 17 -18 29 -17
22 -20 22 -49 7 -52 -27 -120 -39 -162 -27 -43 11 -98 57 -85 70 5 4 73 12
151 18 78 6 147 13 153 17 17 10 11 78 -9 112 -42 68 -159 105 -252 80z m137
-88 c43 -40 32 -55 -43 -62 -117 -12 -143 -9 -143 11 0 19 28 50 65 71 29 17
93 6 121 -20z"/>
<path d="M1285 1135 c-51 -18 -75 -48 -75 -94 0 -49 14 -66 81 -95 91 -40 86
-84 -11 -94 -50 -5 -51 -5 -48 -36 3 -30 4 -31 54 -31 94 1 164 51 164 117 0
35 -26 66 -79 92 -67 34 -78 50 -49 70 12 9 37 16 55 16 31 0 33 2 27 28 -4
15 -9 30 -11 35 -7 11 -64 7 -108 -8z"/>
<path d="M1527 1143 c-15 -4 -17 -10 -12 -31 4 -15 7 -120 6 -234 l-1 -208 55
0 55 0 0 80 0 81 43 -26 c105 -61 266 -9 306 98 62 162 -138 309 -302 223
l-46 -25 -3 22 c-2 18 -10 22 -43 24 -22 0 -48 -1 -58 -4z m293 -78 c81 -42
81 -158 -1 -201 -110 -57 -229 50 -174 156 29 55 113 77 175 45z"/>
<path d="M3212 1129 c-65 -33 -97 -87 -97 -164 0 -49 5 -69 25 -98 58 -85 182
-112 282 -62 60 30 58 30 58 5 0 -26 21 -34 66 -25 l37 6 -6 101 c-3 55 -1
130 4 166 7 50 6 67 -3 74 -16 10 -78 11 -78 1 0 -5 -4 -14 -9 -22 -7 -11 -15
-9 -41 10 -47 35 -177 39 -238 8z m224 -83 c28 -28 34 -41 34 -78 0 -53 -17
-80 -66 -103 -50 -23 -113 -13 -154 25 -25 23 -30 36 -30 75 0 40 5 52 34 81
31 31 40 34 91 34 51 0 60 -3 91 -34z"/>
<path d="M4144 1131 c-48 -22 -74 -54 -74 -92 0 -38 27 -66 90 -97 89 -43 72
-92 -32 -92 -32 0 -39 -3 -34 -16 3 -9 6 -24 6 -35 0 -15 7 -19 38 -19 179 0
244 149 96 217 -31 14 -58 32 -61 41 -8 21 24 42 64 42 35 0 42 15 23 51 -14
25 -61 25 -116 0z"/>
<path d="M4796 1127 c-22 -12 -53 -39 -70 -60 -27 -34 -31 -46 -31 -102 0 -55
4 -68 31 -102 66 -83 183 -107 280 -58 27 14 50 25 50 25 1 0 5 -11 8 -25 7
-26 20 -30 72 -19 l29 6 0 166 c0 100 -4 170 -10 174 -5 4 -24 8 -41 8 -23 0
-33 -5 -37 -20 -5 -20 -6 -20 -53 5 -64 34 -170 35 -228 2z m204 -64 c52 -36
68 -84 46 -137 -27 -65 -97 -90 -172 -61 -50 19 -74 54 -74 108 0 38 30 84 64
97 37 15 110 11 136 -7z"/>
<path d="M5313 1139 c-40 -12 -83 -62 -83 -98 0 -40 27 -71 87 -97 29 -13 56
-31 60 -40 9 -25 -22 -46 -76 -52 -52 -5 -56 -9 -45 -49 5 -18 13 -23 42 -23
53 0 110 21 143 51 59 55 30 134 -64 173 -20 8 -40 23 -44 32 -9 23 22 44 64
44 36 0 38 5 23 44 -8 21 -16 26 -42 25 -18 0 -47 -5 -65 -10z"/>
<path d="M6458 1136 c-21 -7 -49 -21 -63 -30 -29 -19 -45 -14 -45 16 0 18 -4
19 -52 13 -29 -4 -54 -8 -56 -10 -1 -1 2 -26 8 -55 5 -29 10 -104 10 -166 l0
-114 50 0 49 0 3 122 3 122 40 23 c51 29 108 30 135 3 18 -18 20 -33 20 -145
l0 -125 55 0 55 0 -1 133 c-1 154 -5 173 -41 200 -34 26 -120 32 -170 13z"/>
<path d="M2925 1129 c-2 -3 -1 -80 2 -172 l6 -167 49 0 48 0 0 114 c0 62 3
140 6 173 l7 61 -58 -2 c-31 0 -58 -3 -60 -7z"/>
<path d="M3887 1134 c-1 -1 -1 -79 1 -173 l3 -171 52 0 52 0 1 173 2 173 -55
0 c-30 0 -55 -1 -56 -2z"/>
<path d="M10 538 c0 -1 -2 -121 -3 -266 l-2 -262 64 0 64 0 -7 79 c-9 108 -7
111 68 111 35 0 70 -6 80 -13 9 -7 36 -48 60 -92 l42 -80 67 -2 c37 -2 67 0
67 3 0 3 -25 48 -57 100 l-56 95 37 30 c47 40 66 77 66 132 0 59 -32 106 -95
137 -46 23 -62 25 -222 28 -95 2 -173 2 -173 0z m331 -92 c40 -17 52 -108 20
-147 -18 -22 -28 -24 -130 -27 l-112 -4 3 93 c3 88 4 93 26 99 28 6 170 -4
193 -14z"/>
<path d="M3612 276 l1 -266 60 0 60 0 -5 103 c-3 56 -3 108 -1 115 4 9 48 12
174 12 128 0 169 -3 170 -12 1 -7 0 -59 -1 -116 l-2 -103 64 3 63 3 1 258 1
257 -61 0 -62 0 4 -105 4 -105 -176 0 c-134 0 -176 3 -177 13 0 6 0 54 1 105
l2 92 -45 0 c-25 0 -52 3 -60 6 -13 5 -15 -31 -15 -260z"/>
<path d="M702 376 c-124 -40 -185 -162 -132 -266 46 -91 181 -133 306 -95 27
8 60 23 73 33 23 18 23 20 6 45 l-17 26 -40 -20 c-63 -32 -135 -36 -187 -10
-41 21 -60 45 -47 59 4 3 70 11 148 17 154 13 174 22 162 74 -26 108 -157 174
-272 137z m119 -79 c19 -12 35 -32 37 -43 2 -18 -4 -22 -35 -27 -69 -12 -173
-8 -173 6 0 37 65 86 116 87 12 0 36 -10 55 -23z"/>
<path d="M1175 381 c-73 -19 -123 -60 -150 -123 -20 -50 -19 -83 6 -135 43
-88 162 -138 269 -111 47 11 55 17 58 38 4 38 -11 54 -36 41 -11 -6 -43 -11
-71 -11 -42 0 -56 5 -85 31 -107 94 11 242 150 189 31 -12 40 -6 49 31 5 21 2
27 -20 37 -35 16 -131 23 -170 13z"/>
<path d="M2726 378 c-99 -14 -176 -94 -176 -182 0 -77 51 -144 135 -176 46
-18 157 -15 196 5 79 40 119 98 119 173 0 118 -127 202 -274 180z m111 -85
c119 -56 73 -213 -62 -213 -74 0 -125 47 -125 115 0 48 22 79 70 99 46 20 74
20 117 -1z"/>
<path d="M5055 380 c-36 -8 -91 -36 -100 -50 -11 -17 -23 -11 -27 13 -3 20 -8
22 -57 20 -30 -2 -55 -4 -57 -6 -2 -2 1 -19 6 -38 6 -18 10 -94 10 -166 l0
-133 55 0 55 0 0 125 c0 120 1 125 24 140 65 43 149 36 167 -13 6 -15 9 -78 7
-140 l-3 -112 30 0 c17 0 40 -3 53 -6 22 -6 22 -6 22 110 0 65 5 126 10 137
16 28 63 49 113 49 73 0 72 4 77 -293 0 -4 24 -7 53 -5 l52 3 -4 145 c-3 150
-13 190 -48 205 -74 30 -150 23 -217 -22 -34 -22 -41 -23 -50 -11 -30 40 -110
63 -171 48z"/>
<path d="M5782 380 c-99 -20 -162 -94 -162 -189 0 -84 35 -132 124 -172 61
-27 128 -21 191 15 44 26 55 25 55 -6 0 -15 8 -18 50 -18 l50 0 -6 118 c-4 64
-2 141 4 170 8 47 7 54 -9 62 -31 17 -70 12 -76 -10 -7 -26 -14 -25 -59 5 -20
14 -46 25 -58 25 -12 0 -30 2 -41 4 -11 2 -39 0 -63 -4z m138 -85 c16 -9 36
-29 45 -45 44 -85 -15 -170 -119 -170 -43 0 -53 4 -87 39 -29 29 -39 47 -39
71 0 39 24 82 59 103 33 21 103 22 141 2z"/>
<path d="M6839 379 c-58 -9 -84 -22 -132 -67 -126 -121 -19 -303 177 -303 219
0 309 232 130 337 -54 32 -110 42 -175 33z m95 -83 c98 -41 102 -166 6 -206
-111 -46 -230 63 -170 158 34 55 101 75 164 48z"/>
<path d="M1981 373 c-30 -4 -33 -7 -26 -31 4 -15 9 -96 12 -180 l5 -153 52 3
51 3 -3 110 c-4 99 -2 113 16 135 18 22 28 25 80 24 l60 -1 6 36 c3 19 1 40
-4 45 -15 15 -84 10 -119 -8 -39 -21 -48 -20 -54 4 -5 20 -9 21 -76 13z"/>
<path d="M2354 369 c-38 -11 -80 -51 -88 -85 -11 -42 14 -76 79 -109 90 -45
84 -95 -12 -95 -42 0 -43 0 -43 -35 l0 -35 52 0 c110 0 183 68 158 146 -9 27
-24 40 -73 66 -33 18 -62 38 -64 43 -6 21 15 37 56 42 42 6 45 11 35 51 -7 24
-41 28 -100 11z"/>
<path d="M3136 370 c-46 -14 -86 -59 -86 -96 0 -51 9 -63 69 -94 76 -38 89
-54 66 -80 -13 -15 -31 -20 -67 -20 l-48 0 0 -35 0 -35 55 0 c56 0 119 23 144
53 21 26 25 84 8 110 -8 13 -42 38 -76 56 -34 18 -61 36 -61 40 0 14 23 29 55
36 56 12 55 12 44 45 -9 25 -16 30 -42 29 -18 0 -45 -5 -61 -9z"/>
<path d="M6388 366 c-21 -8 -49 -21 -63 -30 -29 -19 -45 -14 -45 15 0 18 -5
20 -47 14 -73 -10 -73 -10 -62 -47 5 -18 9 -95 9 -170 l0 -138 55 0 54 0 3
127 3 127 40 23 c53 30 99 30 130 -2 24 -23 25 -30 25 -150 l0 -125 50 0 50 0
0 148 c0 165 -6 183 -66 208 -41 17 -88 17 -136 0z"/>
<path d="M7244 369 c-40 -12 -81 -50 -90 -85 -11 -42 14 -75 81 -109 89 -45
84 -95 -10 -95 -50 0 -53 -2 -47 -40 4 -29 6 -30 55 -30 119 0 200 90 149 167
-4 6 -34 26 -66 45 -33 18 -61 38 -63 43 -6 20 15 37 56 42 43 6 50 18 31 54
-12 21 -43 23 -96 8z"/>
<path d="M1443 333 c-13 -62 -9 -215 6 -251 30 -71 150 -90 248 -39 l52 27 6
-31 c7 -29 8 -30 56 -27 l49 3 3 175 2 175 -50 0 -50 0 -3 -109 c-2 -64 -8
-116 -14 -124 -18 -21 -84 -52 -113 -52 -40 0 -84 27 -91 57 -4 14 -4 72 -1
129 l6 104 -49 0 c-49 0 -49 0 -57 -37z"/>
<path d="M4308 343 c-6 -15 -12 -75 -12 -133 -1 -116 8 -143 61 -177 44 -29
137 -24 202 10 29 15 54 27 56 27 2 0 5 -12 7 -27 3 -26 6 -28 53 -28 l50 0 0
175 0 175 -50 0 -50 0 -5 -118 c-5 -126 -5 -125 -67 -153 -47 -21 -88 -17
-120 10 -27 23 -28 29 -28 108 0 45 2 99 5 118 l5 35 -48 3 c-43 3 -48 1 -59
-25z"/>
</g>
</svg>
