<?xml version="1.0" encoding="utf-8"?>
<!-- Generator: Adobe Illustrator 24.2.3, SVG Export Plug-In . SVG Version: 6.00 Build 0)  -->
<svg version="1.1" id="Capa_1" xmlns="http://www.w3.org/2000/svg" xmlns:xlink="http://www.w3.org/1999/xlink" x="0px" y="0px"
	 viewBox="0 0 167.01 46.56" style="enable-background:new 0 0 167.01 46.56;" xml:space="preserve">
<style type="text/css">
	.st0{fill:#0000FF;}
</style>
<g>
	<g>
		<path class="st0" d="M9.12,40.77c-2.69-0.8-4.82-1.85-6.39-3.17l2.41-5.24c1.53,1.18,3.41,2.14,5.64,2.88
			c2.23,0.74,4.47,1.12,6.71,1.12c2.78,0,4.86-0.43,6.23-1.3c1.37-0.86,2.06-2.01,2.06-3.42c0-1.04-0.38-1.89-1.15-2.57
			c-0.77-0.67-1.74-1.2-2.91-1.58c-1.18-0.38-2.78-0.81-4.81-1.3c-2.85-0.66-5.16-1.31-6.93-1.97c-1.76-0.66-3.28-1.69-4.55-3.09
			c-1.27-1.4-1.9-3.29-1.9-5.68c0-2.01,0.56-3.83,1.68-5.47c1.12-1.64,2.82-2.95,5.08-3.92c2.26-0.97,5.04-1.45,8.32-1.45
			c2.28,0,4.53,0.28,6.74,0.83c2.21,0.55,4.12,1.35,5.72,2.39l-2.19,5.24c-1.64-0.93-3.35-1.64-5.13-2.13
			c-1.78-0.48-3.51-0.73-5.19-0.73c-2.75,0-4.79,0.45-6.12,1.35c-1.34,0.9-2.01,2.09-2.01,3.58c0,1.04,0.38,1.89,1.15,2.54
			c0.77,0.66,1.74,1.18,2.92,1.56c1.18,0.38,2.78,0.81,4.81,1.3c2.78,0.62,5.06,1.27,6.85,1.95c1.78,0.67,3.31,1.7,4.57,3.09
			c1.27,1.38,1.9,3.25,1.9,5.6c0,2.01-0.56,3.82-1.69,5.45c-1.12,1.63-2.83,2.92-5.11,3.89c-2.28,0.97-5.06,1.45-8.34,1.45
			C14.6,41.96,11.81,41.56,9.12,40.77z"/>
		<path class="st0" d="M37.41,4.6h6.75v37.36h-6.75V4.6z"/>
		<path class="st0" d="M72.24,6.16c2.34,1.04,4.13,2.53,5.37,4.46c1.25,1.94,1.87,4.24,1.87,6.9c0,2.63-0.62,4.92-1.87,6.88
			s-3.04,3.45-5.37,4.49c-2.34,1.04-5.08,1.56-8.23,1.56h-8.2v11.52h-6.75V4.6h14.95C67.16,4.6,69.9,5.12,72.24,6.16z M70.39,22.87
			c1.52-1.25,2.28-3.03,2.28-5.34c0-2.32-0.76-4.1-2.28-5.34c-1.52-1.25-3.76-1.87-6.7-1.87h-7.89v14.43h7.89
			C66.64,24.73,68.87,24.11,70.39,22.87z"/>
		<path class="st0" d="M89.99,40.77c-2.69-0.8-4.81-1.85-6.38-3.17l2.4-5.24c1.53,1.18,3.41,2.14,5.63,2.88
			c2.22,0.74,4.46,1.12,6.7,1.12c2.78,0,4.85-0.43,6.22-1.3c1.37-0.86,2.06-2.01,2.06-3.42c0-1.04-0.38-1.89-1.15-2.57
			c-0.77-0.67-1.73-1.2-2.91-1.58c-1.18-0.38-2.78-0.81-4.81-1.3c-2.85-0.66-5.15-1.31-6.91-1.97c-1.76-0.66-3.27-1.69-4.54-3.09
			c-1.26-1.4-1.9-3.29-1.9-5.68c0-2.01,0.56-3.83,1.68-5.47c1.12-1.64,2.81-2.95,5.07-3.92c2.26-0.97,5.03-1.45,8.3-1.45
			c2.28,0,4.52,0.28,6.73,0.83c2.21,0.55,4.11,1.35,5.71,2.39l-2.19,5.24c-1.64-0.93-3.35-1.64-5.12-2.13
			c-1.78-0.48-3.51-0.73-5.18-0.73c-2.74,0-4.78,0.45-6.11,1.35c-1.33,0.9-2,2.09-2,3.58c0,1.04,0.38,1.89,1.15,2.54
			c0.76,0.66,1.73,1.18,2.91,1.56c1.18,0.38,2.78,0.81,4.81,1.3c2.78,0.62,5.05,1.27,6.83,1.95c1.78,0.67,3.3,1.7,4.57,3.09
			c1.26,1.38,1.9,3.25,1.9,5.6c0,2.01-0.56,3.82-1.68,5.45c-1.12,1.63-2.82,2.92-5.1,3.89c-2.28,0.97-5.05,1.45-8.33,1.45
			C95.46,41.96,92.68,41.56,89.99,40.77z"/>
		<g>
			<path class="st0" d="M119.4,35.57c0.46,0.26,0.83,0.63,1.09,1.09c0.26,0.46,0.4,0.98,0.4,1.54c0,0.56-0.14,1.08-0.41,1.55
				c-0.27,0.47-0.64,0.84-1.1,1.11c-0.47,0.27-0.98,0.41-1.54,0.41c-0.56,0-1.08-0.14-1.54-0.41c-0.46-0.27-0.83-0.64-1.1-1.1
				c-0.27-0.47-0.4-0.98-0.4-1.54c0-0.56,0.13-1.07,0.4-1.54c0.27-0.47,0.63-0.83,1.1-1.1c0.47-0.27,0.98-0.41,1.55-0.41
				S118.94,35.3,119.4,35.57z M119.14,40.44c0.39-0.23,0.69-0.54,0.92-0.94c0.22-0.39,0.34-0.83,0.34-1.31
				c0-0.48-0.11-0.91-0.33-1.3c-0.22-0.39-0.52-0.69-0.91-0.92c-0.39-0.22-0.82-0.34-1.3-0.34c-0.48,0-0.92,0.11-1.31,0.34
				c-0.39,0.23-0.7,0.54-0.92,0.93c-0.22,0.39-0.33,0.83-0.33,1.3c0,0.48,0.11,0.91,0.33,1.3c0.22,0.39,0.53,0.7,0.91,0.93
				c0.39,0.23,0.82,0.34,1.3,0.34C118.32,40.79,118.75,40.67,119.14,40.44z M119.24,38.35c-0.12,0.18-0.29,0.31-0.5,0.41l0.76,1.16
				h-0.74l-0.67-1.04h-0.09h-0.67v1.04h-0.74v-3.4h1.41c0.44,0,0.79,0.11,1.05,0.32c0.26,0.21,0.38,0.5,0.38,0.86
				C119.42,37.95,119.36,38.17,119.24,38.35z M117.94,38.3c0.24,0,0.43-0.05,0.56-0.16c0.13-0.11,0.2-0.25,0.2-0.44
				s-0.07-0.34-0.2-0.44c-0.13-0.1-0.32-0.16-0.56-0.16h-0.64v1.2H117.94z"/>
		</g>
	</g>
	<g>
		<path class="st0" d="M138.63,41.96l-3.97-5.69c-0.25,0.03-0.5,0.03-0.75,0.03h-4.38v5.66h-3.6V22.55h7.99
			c5.1,0,8.26,2.61,8.26,6.91c0,2.94-1.5,5.1-4.13,6.13l4.46,6.38H138.63z M133.74,25.6h-4.22v7.74h4.22c3.16,0,4.8-1.44,4.8-3.88
			S136.91,25.6,133.74,25.6z"/>
		<path class="st0" d="M164.28,22.55v19.41h-3.61v-8.32h-10.04v8.32h-3.6V22.55h3.6v8.01h10.04v-8.01H164.28z"/>
	</g>
</g>
</svg>
