<?xml version="1.0" encoding="utf-8"?>
<!-- Generator: Adobe Illustrator 25.4.1, SVG Export Plug-In . SVG Version: 6.00 Build 0)  -->
<svg version="1.1" id="Capa_1" xmlns="http://www.w3.org/2000/svg" xmlns:xlink="http://www.w3.org/1999/xlink" x="0px" y="0px"
	 viewBox="0 0 64 80" style="enable-background:new 0 0 64 80;" xml:space="preserve">
<style type="text/css">
	.st0{fill:#3A79F9;}
</style>
<g>
	<path class="st0" d="M63,49c0-3.9-3.1-7-7-7h-8c2.3,0,4.5-0.9,6.1-2.4C56,37.9,57,35.5,57,33v-4c0-3.8-3.1-7-7-7H46
		c-3.7,0-6.7,2.9-6.9,6.6c-0.4-0.3-0.9-0.4-1.4-0.5c-0.9-1.3-2.3-2-3.8-2h-4.3c-1.8,0-3.4,0.7-4.6,1.9C24.4,24.6,21.5,22,18,22h-4
		c-3.9,0-7,3.1-7,7v3.7c0,4.9,3.7,9,8.4,9.3c0.2,0,0.4,0,0.6,0H8c-3.9,0-7,3.1-7,7v10h16v4h30v-4h16V49z M49.9,44L48,46.4L46.1,44
		H49.9z M40,42c-0.2,0-0.4,0-0.6,0c0.7-1.1,1.2-2.3,1.4-3.6c1.5,2,3.9,3.4,6.5,3.6c0.2,0,0.4,0,0.6,0H40z M25,36h6.4
		c1.3,0,2.5-0.5,3.4-1.4l0.5-0.5c0.7,1.5,2.1,2.5,3.7,2.8V37c0,2-0.8,3.8-2.2,5.1c-1.4,1.3-3.3,2-5.3,1.9c-3.7-0.2-6.5-3.4-6.5-7.3
		V36z M31.4,46c0.2,0,0.4,0,0.6,0h-1.7c0-0.1-0.1-0.1-0.1-0.2C30.6,45.9,31,46,31.4,46z M30.9,52h2.3l0.8,5.5L32,58.8l-1.9-1.3
		L30.9,52z M33.2,50h-2.4l-0.5-2h3.4L33.2,50z M32,46c0.6,0,1.2-0.1,1.8-0.2c0,0.1-0.1,0.1-0.1,0.2H32z M52.8,38.1
		c-1.4,1.3-3.3,2-5.3,1.9c-3.7-0.2-6.5-3.4-6.5-7.3V32v-1.2c4.6-1,9.4-1,14,0V33C55,35,54.2,36.8,52.8,38.1z M46,24H50
		c2.7,0,4.8,2.1,4.9,4.8c-4.6-1-9.4-1-14,0C41.1,26.1,43.3,24,46,24z M29.5,28h4.3c1,0,1.9,0.6,2.3,1.4l0.3,0.6H37c1.1,0,2,0.9,2,2
		v0.7v2.1c-0.9-0.3-1.7-1-2-2L36.7,32h-2.1l-1.2,1.2c-0.5,0.5-1.2,0.8-1.9,0.8H25v-1v-0.5C25,30,27,28,29.5,28z M14,24h4
		c2.8,0,5,2.2,5,5v1.8c-0.9-0.3-1.7-1-2-2L20.7,28h-2.1l-1.2,1.2c-0.5,0.5-1.2,0.8-1.9,0.8H9v-1C9,26.2,11.2,24,14,24z M9,32.7V32
		h6.4c1.3,0,2.5-0.5,3.4-1.4l0.5-0.5c0.7,1.5,2.1,2.5,3.7,2.8V33c0,2-0.8,3.8-2.2,5.1c-1.4,1.3-3.3,2-5.3,1.9
		C11.9,39.7,9,36.6,9,32.7z M22.2,39.6c0.4-0.3,0.7-0.7,1-1.1c0.2,1.3,0.8,2.5,1.5,3.6C24.4,42,24.2,42,24,42h-8
		C18.3,42,20.5,41.1,22.2,39.6z M18.8,44c-0.4,1.2-1.5,2-2.8,2s-2.4-0.8-2.8-2H18.8z M9,57v-7H7v7H3v-8c0-2.8,2.2-5,5-5h3.1
		c0.5,2.3,2.5,4,4.9,4s4.4-1.7,4.9-4H24c1.6,0,3.1,0.8,4,2h-4c-3.9,0-7,3.1-7,7v4H9z M19,53c0-2.8,2.2-5,5-5h4.2l0.8,3.1l-1.1,7.4
		l3.8,2.5H25v-7h-2v7h-4V53z M45,61h-4v-7h-2v7h-6.7l3.8-2.5L35,51.1l0.8-3.1H40c2.8,0,5,2.2,5,5V61z M61,57h-4v-7h-2v7h-8v-4
		c0-3.9-3.1-7-7-7h-4c0.9-1.2,2.4-2,4-2h3.5l4.5,5.6l4.5-5.6H56c2.8,0,5,2.2,5,5V57z"/>
	<rect x="28" y="5" class="st0" width="18" height="2"/>
	<rect x="18" y="5" class="st0" width="8" height="2"/>
	<rect x="18" y="9" class="st0" width="28" height="2"/>
	<rect x="44" y="13" class="st0" width="2" height="2"/>
	<rect x="18" y="13" class="st0" width="24" height="2"/>
	<path class="st0" d="M17,19h11.3l2,5h3.4l2-5H47c1.7,0,3-1.3,3-3V4c0-1.7-1.3-3-3-3H17c-1.7,0-3,1.3-3,3v12C14,17.7,15.3,19,17,19z
		 M16,4c0-0.6,0.4-1,1-1h30c0.6,0,1,0.4,1,1v12c0,0.6-0.4,1-1,1H34.3l-2,5h-0.6l-2-5H17c-0.6,0-1-0.4-1-1V4z"/>
</g>
</svg>
