<?xml version="1.0" encoding="utf-8"?>
<!-- Generator: Adobe Illustrator 25.4.1, SVG Export Plug-In . SVG Version: 6.00 Build 0)  -->
<svg version="1.1" id="Capa_1" xmlns="http://www.w3.org/2000/svg" xmlns:xlink="http://www.w3.org/1999/xlink" x="0px" y="0px"
	 viewBox="0 0 787 495" style="enable-background:new 0 0 787 495;" xml:space="preserve">
<style type="text/css">
	.st0{fill:none;}
	.st1{fill:#56AA47;}
	.st2{fill:#7EC247;}
	.st3{fill:url(#SVGID_1_);}
	.st4{fill:url(#SVGID_00000017502392580487067700000016053762298518815418_);}
	.st5{fill:none;stroke:url(#SVGID_00000038415070387036179030000009711283608256508581_);stroke-width:1.5;stroke-miterlimit:10;}
	
		.st6{fill:url(#SVGID_00000022542161819770873020000000455170927303410597_);stroke:url(#SVGID_00000162336220284921415550000008943834032999667349_);stroke-width:1.5;stroke-miterlimit:10;}
	.st7{fill:none;stroke:url(#SVGID_00000049929596045843768460000012566207540436637317_);stroke-width:1.5;stroke-miterlimit:10;}
	
		.st8{fill:url(#SVGID_00000106128827735913145380000009622031036487753629_);stroke:url(#SVGID_00000094614714733999915350000005332225475166186637_);stroke-width:1.5;stroke-miterlimit:10;}
	
		.st9{fill:url(#SVGID_00000168809925776777571840000013202703984592962442_);stroke:url(#SVGID_00000152970769342278303490000002859962565242416035_);stroke-width:1.5;stroke-miterlimit:10;}
	
		.st10{fill:url(#SVGID_00000155847691504378559220000006465875442444363963_);stroke:url(#SVGID_00000005247006587784117420000010035670297868420529_);stroke-width:1.5;stroke-miterlimit:10;}
	
		.st11{fill:url(#SVGID_00000001641607034510017210000003529235262817596563_);stroke:url(#SVGID_00000034061360900118670840000015999399695559926939_);stroke-width:1.5;stroke-miterlimit:10;}
	.st12{fill:none;stroke:url(#SVGID_00000106127869097242269710000004135773834132093356_);stroke-width:1.5;stroke-miterlimit:10;}
	
		.st13{fill:url(#SVGID_00000158733121594843926440000007773697061675202215_);stroke:url(#SVGID_00000017499713985195007860000013126903363712732556_);stroke-width:1.5;stroke-miterlimit:10;}
	
		.st14{fill:url(#SVGID_00000115478753463960396610000002974624860550743204_);stroke:url(#SVGID_00000080911149817985209500000004043984240157068969_);stroke-width:1.5;stroke-miterlimit:10;}
	
		.st15{fill:url(#SVGID_00000047045557059525354310000016737249580824811666_);stroke:url(#SVGID_00000181782461820279091760000014943163368098898364_);stroke-width:1.5;stroke-miterlimit:10;}
	
		.st16{fill:url(#SVGID_00000059310112436393513320000007676243652531985835_);stroke:url(#SVGID_00000088836410634790650070000006960028086502726034_);stroke-width:1.5;stroke-miterlimit:10;}
	
		.st17{fill:url(#SVGID_00000170254418143369147050000006141773931793670836_);stroke:url(#SVGID_00000045595391996416263220000007621147295636001439_);stroke-width:1.5;stroke-miterlimit:10;}
	
		.st18{fill:url(#SVGID_00000085243634704270737000000015223791893867687560_);stroke:url(#SVGID_00000023241912092492558000000013434882653841978021_);stroke-width:1.5;stroke-miterlimit:10;}
	
		.st19{fill:url(#SVGID_00000044150024907472283000000009294938741559208381_);stroke:url(#SVGID_00000167363770573249830010000018193667660349919146_);stroke-width:1.5;stroke-miterlimit:10;}
	.st20{fill:none;stroke:url(#SVGID_00000158743821280850280070000014978218446827024560_);stroke-width:1.5;stroke-miterlimit:10;}
	
		.st21{fill:url(#SVGID_00000121249081473706634660000010064070189105242039_);stroke:url(#SVGID_00000065758252805187068350000013679196460288020154_);stroke-width:1.5;stroke-miterlimit:10;}
	
		.st22{fill:url(#SVGID_00000090996131672784485340000017773981841081298617_);stroke:url(#SVGID_00000113328955414173336790000008049712377352181899_);stroke-width:1.5;stroke-miterlimit:10;}
	
		.st23{fill:url(#SVGID_00000068657011163612267940000007990801906646719141_);stroke:url(#SVGID_00000033365438768406876440000004716282158804136888_);stroke-width:1.5;stroke-miterlimit:10;}
	
		.st24{fill:url(#SVGID_00000022561869083422416330000013068491318845679512_);stroke:url(#SVGID_00000039100177277744516390000009074531488321310112_);stroke-width:1.5;stroke-miterlimit:10;}
	
		.st25{fill:url(#SVGID_00000046333035417768283110000013571691849424200083_);stroke:url(#SVGID_00000114069098308638293390000008823420776880530103_);stroke-width:1.5;stroke-miterlimit:10;}
	
		.st26{fill:url(#SVGID_00000160893164186177971640000013233891510621984441_);stroke:url(#SVGID_00000036214617851418498930000010551395841653385099_);stroke-width:1.5;stroke-miterlimit:10;}
	.st27{fill:none;stroke:url(#SVGID_00000102537137220975351400000011265516037030797244_);stroke-width:1.5;stroke-miterlimit:10;}
	
		.st28{fill:url(#SVGID_00000088100335030454982320000003525330530379560605_);stroke:url(#SVGID_00000048495184801440846850000008794108263927148459_);stroke-width:1.5;stroke-miterlimit:10;}
	
		.st29{fill:url(#SVGID_00000023247258415788294130000004532001981564472475_);stroke:url(#SVGID_00000021813370653816686830000003685276232755514806_);stroke-width:1.5;stroke-miterlimit:10;}
	
		.st30{fill:url(#SVGID_00000173132632017340688380000006486039028575109538_);stroke:url(#SVGID_00000132793565797683783210000013016848510751437988_);stroke-width:1.5;stroke-miterlimit:10;}
	
		.st31{fill:url(#SVGID_00000000212491137481549950000009634311899050366870_);stroke:url(#SVGID_00000163785250612749685780000005239441737204379788_);stroke-width:1.5;stroke-miterlimit:10;}
	
		.st32{fill:url(#SVGID_00000179626551358860690430000017895547563633787010_);stroke:url(#SVGID_00000016771653826671320720000017179552552102894764_);stroke-width:1.5;stroke-miterlimit:10;}
	.st33{fill:none;stroke:url(#SVGID_00000020389789906914153240000018330177397272881066_);stroke-width:1.5;stroke-miterlimit:10;}
	
		.st34{fill:url(#SVGID_00000182525289642062070810000008315201333885791935_);stroke:url(#SVGID_00000026853703219728755170000000372085487961414309_);stroke-width:1.5;stroke-miterlimit:10;}
	
		.st35{fill:url(#SVGID_00000090983358940450272710000002894317368371814587_);stroke:url(#SVGID_00000006676783289189513070000014283833843463403963_);stroke-width:1.5;stroke-miterlimit:10;}
	
		.st36{fill:url(#SVGID_00000066490217181582252460000014209311706752718504_);stroke:url(#SVGID_00000119116579741175607780000006544367896781028512_);stroke-width:1.5;stroke-miterlimit:10;}
</style>
<pattern  y="495" width="74" height="74" patternUnits="userSpaceOnUse" id="Nueva_muestra_de_motivo_1" viewBox="0 -74 74 74" style="overflow:visible;">
	<g>
		<rect y="-74" class="st0" width="74" height="74"/>
		<g>
			<rect y="-74" class="st0" width="74" height="74"/>
			<rect y="-74" class="st1" width="74" height="74"/>
		</g>
	</g>
</pattern>
<pattern  y="495" width="74" height="74" patternUnits="userSpaceOnUse" id="Nueva_muestra_de_motivo_6" viewBox="0 -74 74 74" style="overflow:visible;">
	<g>
		<rect y="-74" class="st0" width="74" height="74"/>
		<g>
			<rect y="-74" class="st0" width="74" height="74"/>
			<rect y="-74" class="st2" width="74" height="74"/>
		</g>
	</g>
</pattern>
<pattern  id="SVGID_1_" xlink:href="#Nueva_muestra_de_motivo_6" patternTransform="matrix(1 0 0 -1 -349 -16301)">
</pattern>
<path class="st3" d="M340.1,271.9l15.3,27.1l8.1,6.8v25.4l31.7,3.8l44.2-29.2l10.4-78.8c0,0-8.8-24.5-39.4-21.4s7.9-25.2-30.5,3.2
	s-38.4,28.3-38.4,28.3L340.1,271.9z"/>
<pattern  id="SVGID_00000130637726446331440890000010072564857974779551_" xlink:href="#Nueva_muestra_de_motivo_6" patternTransform="matrix(1 0 0 -1 -349 -16301)">
</pattern>
<path style="fill:url(#SVGID_00000130637726446331440890000010072564857974779551_);" d="M231.2,175.4l-6.3,10.5l-2.5,4.2l-0.3,6.9
	c0,0,6.6,2.7,9.5,5.6s2.9,2.9,2.9,2.9s1.6-3.9,2.9-1.4s2.2,1.4,2.2,1.4s-5.9-1.7,1.4,3.1s7.3,4.8,7.3,4.8l3.8,0.5l4.3,2.4l1.8,7.7
	l0.2,4.5l14.6,11.1c0,0,4.1,0.2,9.8,7.9c5.7,7.7,5.7,7.7,5.7,7.7l14.3,18.6l13.1,11.4l5.9,0.9l0.4-4.3l-2.3-3.9l1.9-3.1l2-6.2
	l-2.6-26.2c0,0-32.4-70.1-49.9-78.7c-17.5-8.6-6.3-11-17.5-8.6c-11.3,2.4-2.6-6.1-11.3,2.4s-8.7,8.4-8.7,8.4l0,0L231.2,175.4z"/>
<g>
	
		<pattern  id="SVGID_00000067936124424672839030000015069921305231435958_" xlink:href="#Nueva_muestra_de_motivo_1" patternTransform="matrix(1 0 0 -1 -349 -16301)">
	</pattern>
	
		<path style="fill:none;stroke:url(#SVGID_00000067936124424672839030000015069921305231435958_);stroke-width:1.5;stroke-miterlimit:10;" d="
		M388.3,308.2l-2.3-2.3l-0.1-1.2l1.2-2.9l3.3-4.6l0.9-3.2l1.1-0.7l1.8-0.4l3.5-2l1.2-0.9l0.4-1.3l0.7-0.2l0.8,1.4l1.3,1.3l4.4,2.6
		l0.6,2.4l1.1,2l0,0l0.3,0.6l-0.2,1.6l2,2.1l-4.3,2l-2.5,3.5l-0.7,0.5l-3,1l-1.3,0.1l-2.2-1l-1.7-1.4l-4.2-0.4L388.3,308.2z"/>
	
		<pattern  id="SVGID_00000033364761745014575070000013824103637031682494_" xlink:href="#Nueva_muestra_de_motivo_6" patternTransform="matrix(1 0 0 -1 -349 -16301)">
	</pattern>
	
		<pattern  id="SVGID_00000119104499489594345510000011875385679307999894_" xlink:href="#Nueva_muestra_de_motivo_1" patternTransform="matrix(1 0 0 -1 -349 -16301)">
	</pattern>
	
		<path style="fill:url(#SVGID_00000033364761745014575070000013824103637031682494_);stroke:url(#SVGID_00000119104499489594345510000011875385679307999894_);stroke-width:1.5;stroke-miterlimit:10;" d="
		M106.6,137.4h-0.7l0,0l-0.8,0.1l0.1,0.4l-0.8,0.4h-0.7l-0.8,0.9l-0.3-0.7l0.2-0.8l3.1-3.8l0.6-0.1l0.1,1l-0.8,0.8v0.5L106.6,137.4z
		 M79.5,125.5l0.6,0.4l0.8,2.9l-0.3,1l0.4,2.4l-0.7,0.9v2.1l-0.6-0.2l-0.5,0.3l-0.7-0.3l-0.6-1.4l-0.6-0.2l-1,0.6l-0.4-0.1l0.1-0.8
		l2.7-3l0.2-0.7l-0.6-1.6l0.5-1.9L79.5,125.5L79.5,125.5z M137.2,116.9l0.8,0.2l2.7,2.3l-0.5,0.5l-0.6-1l-1.7-0.9L137.2,116.9z
		 M145.5,115.4l0.3,0.6l-0.3,1h-1.2l-0.4-1.6H145.5L145.5,115.4z M3.9,102.4l-0.6,1.3l0.2,1l1.3,1.2l0.2,2.9l-0.7,2.1l-0.8,0.2
		l-0.6-1.4l0.2-0.9l-0.6-0.4l-0.1-1.6l-1.2-1.2l0.4-1l-0.3-1L2,103h0.8C2.9,103.1,3.9,102.4,3.9,102.4z M120.7,92.2v0.5l1.1-0.5v0.3
		l0.9,0.3l1.3,1.6l0.8,0.4l1.1,2.2l-0.6,0.9l0.1,1.2l1.8,0.8l2.9-0.2l0.3,0.3l-0.2,4.3l0.6,1.7l1.2,0.4l-0.3,1.9l-3-2.1l-1.7-2.4
		l-2.6-1.8l-1-1.9l-1.4-0.3l-0.2-1.1l-2-2.5l-0.2-0.9l0.8-1.9l-0.2-1L120.7,92.2L120.7,92.2z M99.3,79.8l0.6,0.8l-0.4,0.1l-0.3-0.3
		L99.3,79.8z M89.5,7.2l-0.8,0.5l-0.5-0.4h-1.3l-0.6,2l-0.5,0.5l-0.1,1.3l-1.8,2.4l1.4,2l-0.6,1.8l0.3,1.1l-0.4,2.7l0.2,1l-0.6,1
		l1,1l0.9,0.1l3.8,2.8l0,0l-0.5,1.7l0.9,4l-1.1,1.5l-0.7,2.4l-0.1,3.5l-0.9,3.2l0.3,0.7l-0.3,2.2l0.6,2.2l1.4,1.3l-0.4,0.6V51
		l2.8,1.8l0.6,3.5l-0.1,5.2l1.7,4v2.2L93.8,69l0.2,0.8l-0.5,1.9l0.4,0.3l-0.7,2.2l1,2.1l0.6,0.4l1.7,4l1.2,0.6l0.3,0.9l1,0.2
		l0.6,0.9v1.8L100,86l0.8,0.3l0.4,0.7l1.2,0.1l0.3-0.9l1.8,0.8l1.2,1.5l0.3-0.1l1,1.2l0.9,0.5l0.7,1.1l1.6,0.8l2.1,2.3l1.5,0.8
		l0.1,0.6l1.4,0.7l2,2.5l1.4,1.2l0.3,0.9l-0.7,0.8v0.5l2.1,2.6l0.8,1.6l-0.6,1.2l0.4,1.6l-0.3,0.3l0.8,1.7l0.8,0.1l0.5-0.7l-0.4-0.4
		l0.4-0.6l0.5,0.3l0.5-0.4l0.4,0.8l0.6-0.1v0.4l0.4,0.1l0.1,2.1l0.4,0.9h1.1l1.3-1l1.1,0.6l1.4,4.5l0.8,0.8l0.6,3.5l2.6,1.5l2.4-0.6
		l0.5,0.4l0.1,0.7l0.8-0.2l0.1,0.6l-0.4,0.5l0.3,0.7l-0.6,2.6l2,2.8l-0.5,2l0.6,1.4l-0.4,1.2l0.9,0.6l0.3,1l-0.3,2.5l0,0l-0.6-1.7
		l-0.9-0.3l0,0L107,137l0.2-0.5l-0.3-0.5l-0.1-1.3l0.9,1.2l0.8-1.4l-1.6-0.4l-0.3-1.7l1.5-3l-0.4-1l-0.9,0.5l-0.5-0.5l1.3-2.9
		l0.7-3.2l-1.3-2.2l-1.6-0.6l-0.1-2l-0.4-0.4l-2.2-0.1v-0.8l-0.4-0.5l-1.5-0.9l0.1-0.6l-0.5-1.2l-0.9-0.5l-0.6-1.9l-0.5-0.1
		l-0.2-0.6l-1-0.7l-1-0.1l-0.2,0.3l-0.5-1.1l-0.7-0.4l-0.2,0.3l-0.5-2.7l-0.6-1.1l-1.1-0.5l-0.6,0.3l-0.8-1l-0.3-1.3l-1.2-0.6
		l-0.1-0.4H89l-3.4-4.2l-2.9-1.5l-3.1-0.4L78,92.3l-2.4-1.2h-0.8l-2-1.9l-1.2,0.3l-2-2.2l-0.5,0.5l-1.9-1.6l0.3-2.5l-0.4-1.5
		L66,80.6L64.4,80l0.6-3.6l-0.5-1.2V71l-1.4-2.5L61,67.3l0.2-1.4l-0.8-0.8l-0.2,0.4l0.5,0.9l-0.5,0.3L59.7,66h-0.5l0.6,1.3l-0.4,0.2
		l-1-2l0.6-5.3l-0.6-3.5l-0.5-1l-0.7-0.2l-1.4-1.3h-0.5l-2.3-3l-1.5,0.2l-0.4-0.5l0.7-5.3l-1.4-2.7l-2.1-2.2l-1.8-3.1l-1.3-1
		l-0.7,0.1l-0.2-1l-1.2-0.9l-0.3-0.7l-0.4,0.1l-0.1-0.6l1-0.5l-0.4-0.9l0.5-1.2l-1.2-1.6l-0.3,0.1l-0.8-1l0.5-0.1l1.6,0.9l1-1
		l0.2-2.6L44,25.1l-1.3-0.3l-0.6-0.7l-1.2-0.2l-0.4-1.8L40,21.7h-1.2l-1.2-1.2l-0.1-3l-0.8-2.8l-0.5-0.8l-2.1-0.8l-0.5-0.6l-2.1-5.9
		V5.3l59.7-5.5l-1.6,2.8l-0.7,0.2l0.5,1.8l-0.3,0.2L89.5,7.2L89.5,7.2z"/>
	
		<pattern  id="SVGID_00000080885673204362457450000004742580422727072168_" xlink:href="#Nueva_muestra_de_motivo_1" patternTransform="matrix(1 0 0 -1 -349 -16301)">
	</pattern>
	
		<path style="fill:none;stroke:url(#SVGID_00000080885673204362457450000004742580422727072168_);stroke-width:1.5;stroke-miterlimit:10;" d="
		M91.4,395.4l1.5,0.4l-0.5,0.4l-1.3,0.2l-0.1-0.7C90.9,395.6,91.4,395.4,91.4,395.4z M184.5,382.5l1,0.7l0.7,1.1v1.8l-0.8,0.4
		l-0.4-0.7l-1.1-0.2l-0.8-1.3L184.5,382.5z M189.2,370.2l0.2,0.6l-0.5,0.7l-0.3-0.6L189.2,370.2z M210.7,235.9l2.8,4.6l0.4,1.9
		l-1.6-0.3l-0.7-1.1l-1.1-3.8L210.7,235.9L210.7,235.9z M159.6,231.9l3.1,0.2l1.1,1.4l0.9,0.1l0.8,0.6l1.3,2.4l-0.4,0.8l-6.8-5
		l-0.3-0.3L159.6,231.9z M200.1,231.7l1.8,1.6l-0.9,2h-0.5v-0.8l-0.7-0.3l0.1-0.5l-0.5-0.6l0.2-0.7l-0.3-0.5L200.1,231.7
		L200.1,231.7z M199.2,230.1l0.9,1.3l-0.6,0.3l-0.6-0.4l-0.1-0.8L199.2,230.1z M191.4,216.1l0.9,1.4l2,0.5l0.4,0.6l0.1,1.5l1,2.2
		l-0.5,0.1l-2.6-2l-0.7-2l-0.9-0.9L191.4,216.1z M156.1,211.5l0.2,1.4l-1.1,3.4l0.1,3.1l-0.8,0.7l0.7,1.3l-0.3,1.1l-0.6,0.1
		l-0.3,0.5l0.2,0.7l1.1,1.3l-0.2,0.3l0.9,0.8l0.4,1.3l-0.7,1.1l0.9,0.8l1.3,1.8l-0.1,0.4l-1.1-0.5l-0.1-0.7l-1.8-1.9l0.2-0.5
		l0.6,0.1l0.2-0.5l-0.1-1.1l-0.8-1l-1.3-0.7l-1.2,0.4l-0.7-0.4v-0.6l0.4-0.1l1.9-5.2L156.1,211.5L156.1,211.5z M191.8,210.4
		l-0.4,1.2l-0.5,0.2l-0.1-0.7L191.8,210.4z M156.9,205.5l-0.2,4.4l-0.4,1.4l-0.5-0.4L156.9,205.5L156.9,205.5z M157,200.4l0.2,2.1
		L157,205h-0.3L157,200.4L157,200.4z M189.8,199.4l0.3,3.3l-0.7-0.4l-0.4-1.4L189.8,199.4z M183.3,199.4l0.5,1.3l-0.3,0.5l-0.4-0.2
		l-0.4-1.4L183.3,199.4L183.3,199.4z M182.6,189.6l-0.5,1l0.4,1.7l-1.2-0.7l-1.7,2.7v0.9l-0.6,0.6v0.7l-0.6,0.1l-0.1-0.8l0.4-0.4
		l0.2-1.7l1.1-1.7l-0.2-1.5l1-0.3l0.2-0.4l0.6,0.4L182.6,189.6L182.6,189.6z M177.5,187.7l0.2,0.8l-0.4,0.1l-0.2-0.5L177.5,187.7z
		 M128.8,171.3l1.3,0.3l0.8,1.6l-1-0.6l-2-0.5l-0.1-0.3L128.8,171.3L128.8,171.3z M157.1,156.6l1.1,1l-0.3,1.2l-0.6-0.2l-0.6-1.3
		L157.1,156.6z M162.2,151.2l0.4,0.1l0.3,0.6H162l-0.2-0.5L162.2,151.2L162.2,151.2z M79.5,138.9l1.4,0.8l-0.1,0.5l-1.4-1
		L79.5,138.9z M105.9,137.4h0.7l0,0l0.4,0.4l0.3-0.4l31.4,0.1l0,0l0.9,0.3l0.6,1.7l0,0l-0.1,0.5l1.3,1l0.4,2l1.1,1.3h0.4l1.2,1.7
		l2.8,0.9l0.5,0.6l0.9,0.1l1.6,1.1l0.7,1l0.7,3.7l1.6,1.8l1,2.2l-0.4,0.8l2.6,2.1l2.5,0.6l0.5,0.6h0.9l0.1,0.7h-0.6l-0.9,1l-0.2,1.6
		l1.7,2.4l0.9,0.5v0.5l0.9,0.7l0.3,1.4l-0.7,0.6l-0.5,1.3l1.2,0.7l0.3,1.2l1.1,0.7l0.7,1.7l1,0.8l1.6-1.4l-3.4-3.6l-0.2-2.9
		l-0.7-1.6l0.7-0.5l1.9,1.4l0.7,1.1l1.4,0.9l0.5,0.8l2.2,1.4l-0.2,3.5l0.4,0.6l2.7,0.9l-0.6,1.6v1.2l1.1,1.9l0.7,0.3l0.2,0.5
		l0.1,1.1l-0.4,0.7l2,5.2l-0.6,0.9l0.1,1.4l-0.5,0.7l0.1,1l0.4,0.6l0.1,1.9l0.6,0.7v1.1l1.8,1.5l0.2-0.2l0.8,3.1l1.8,2.4l2.6,0.3
		l-0.2,1.6l1.2,3.1l0.9,0.9l0.3,1.1l-0.3,0.2l0.4,1.5l0.6,0.8v1l0.7,0.5l0.4,1.3l0.9,0.5l0.5,0.9l0.5-0.1l0.8,0.6l0.3,1.3l1.6,2.2
		l0.7,2.1l-0.2,1.2l-0.7,1.8l-0.9,0.9l-0.2,3.1l0.2,1l1.1,1.4l0.1,2.9l1.1,1.2l0.7,1.6l1.5,1.4l4.3,0.9l1.2-0.1l0.1,0.3l-1.3,0.5
		l-0.8-0.6l-0.4,0.3l0.2,1.5l1.7-0.1V243l1.2-1l0.1-1l-0.9-2.2l0.3-1.1l0.7-0.4l1.6,0.2v0.8l1.1,0.6l0.4,1.1l2.1,1l2.1,1.6l0.7,3.2
		l1.2,0.3l2.6-0.9v0.6l0.5,0.5l-0.7,0.9l0.1,2l3.2,3.2l-0.3,2l0.3,1.7l0.4,0.5l5.4,2.6l-0.3,0.8l1.4,2.1l-0.2,0.7l0.4,0.4l-0.5,4.4
		l-0.6,1.3l-1.9,2.3l-1,0.7l-2.2,0.5l-1.2,0.8v0.8l-2.1,1.1l-0.5,1l-0.9,0.7h-0.9l-0.6,0.7h-1.1l-2.4-2l-1.2-2.8l-1.5-7.1l-2.5-4.6
		l-1.8-2.4l-6.1-3.3l-11.5-11.4l-10.7-6.5l0.1-0.3l-1.2-1.2l-1.8-1l0.1-0.5l-0.6-0.1l-1-3l0.3-0.1l-0.5-0.6l-1-0.3l-0.1,1.1
		l-2.4-0.2l-0.1,0.8h-0.6l0.1-1.5l-0.7-2l-2.2-2.4l0.3-0.3l-0.6-0.5l-0.7,0.3l0.1,0.4l-1.4-0.1l-2-1l-0.3-0.7h0.5l0.1-0.8l-0.6-0.4
		l-0.2-0.8l0.6-1l-0.3-0.2l0.4-0.7l-0.4-0.1l0.2-0.4l-0.4-0.5l-0.6,0.9l0.3,0.8l-0.4,0.5l0.1,2.5H155l-0.5-1.1l0.8-1.6l-0.6-1.4
		l0.8-0.4l0.7-1.7v-1l-0.9,0.1l0.2-1.9l0.9-2l0.3-1.8l0.7-0.1l0.1-2.4l-0.5-0.1l0.1-1.2l0.6-0.4l-0.4-0.3l-0.2-1.1l0.3-1l0.3-0.1
		l0.1-2.4l-0.1-1.3l-0.8-1.1l-0.3-2.9l-2-5.4l-0.9-1.2l-1.9-1.1l-0.9-2.9l-1.6-1.9l-1.6-0.4l-0.2,0.7l-0.4,0.1l-3.2-2.3l-0.7-0.3
		l-0.7,0.3l-0.8-1.2l-2-1.4v-0.4h-0.6l-3.6-3l1,0.1l1.3,0.9l0.1-0.2l-1.1-0.8l-1.1-0.3l-0.7,0.2l-2.3-2l0.2-0.2l-0.4-0.5l0.4-0.6
		l-1.7-2.1l-0.9-2l-0.4,1.1l-1.5-0.7l0.3-0.3l0.5,0.2l1.6-1.6l0.4-1.3l-0.8-2.8l-0.6,0.6l-0.4,3.2l-0.6,0.5l-0.7-0.2l-0.4,0.8
		l0.1,1.8l-0.4,0.1l-2.1-1.3l-1.5-0.3l0.2-0.5l0.5,0.4l0.1-0.4l-0.5-0.2l-1.4,0.2l-0.8,0.9l-0.4,1.2l-0.6,0.3v0.6l-0.7,0.4l-0.8-0.3
		l-0.8-0.5l-0.7-1.4l-1.6-0.4l-1.6-3.7l-1.8-1.3l-2.2-0.6l-0.4,0.2l-0.2,0.6h-0.4l-1.3-1.3l-1.1-2l-1.1-0.8l-1.2-0.6l-2-0.3
		l-0.8,0.7l-2.4-1.6l-0.5,0.4l-0.5-0.3l0.1-0.8l-0.6-0.4l-0.5,0.1l-0.2-0.4v-3.5l-0.5-1.6l-2.3-1.9l-3.3-1.2l-1.2-2.3l-1.7-1.3
		l-0.1-1l-0.7-0.5l-0.6,0.9l-0.8-0.4l-0.3-0.9l-1-0.5l-0.6,0.3l-1.1-2.8l-0.8-0.8l0.8-0.4l1.1,0.9l2.3-0.2l1.5,0.2l0.4,0.5l1.4-0.2
		l1.6,0.3l0.5,0.5l1.6,0.3l2.8-0.2l0.6,0.4l2.4-1.3l0.6,0.4l0.8-0.1l0.2-0.6h-0.6l1.1-1.2l0.9,0.3l-0.5,2.5l0.8,1.3l1.5,1.2l1.3,0.4
		l1.3,1.2l-0.1,0.4l0.8,0.3l1-1.1l0.1-0.9l2.1,0.7l1.6,3l0.9,0.1l0.6-1.2l-1.6-1.6l0.1-1.1l0.7,0.6l0.2-0.4l-0.6-0.4l0.3-0.6
		l-0.5-1.7l0.2-0.9l-1.8-1.4l-1,1.9l0.2,1.1l-3.2,1.2l-1.6-1.2l0.2-0.5l0.6,0.5l-0.7-2l1.2-1.7l-0.5-0.5L105.9,137.4L105.9,137.4z"
		/>
	
		<pattern  id="SVGID_00000142883898713824509230000003539552496896544927_" xlink:href="#Nueva_muestra_de_motivo_6" patternTransform="matrix(1 0 0 -1 -349 -16301)">
	</pattern>
	
		<pattern  id="SVGID_00000137111324776887535600000013606204836594239161_" xlink:href="#Nueva_muestra_de_motivo_1" patternTransform="matrix(1 0 0 -1 -349 -16301)">
	</pattern>
	
		<path style="fill:url(#SVGID_00000142883898713824509230000003539552496896544927_);stroke:url(#SVGID_00000137111324776887535600000013606204836594239161_);stroke-width:1.5;stroke-miterlimit:10;" d="
		M667.6,384.7l0.5,0.8l-0.7,0.6l-0.5,0.2l-1.1-0.6l-0.4,0.3l0.4,0.3l-1.7,1.3l-0.5-0.7l-0.3,0.6l-2.1,0.9l-1.1,0.1l-0.5-0.6l0.3-0.3
		l2.4-0.4L667.6,384.7L667.6,384.7z M696,331.7l-0.2,7.3l4.1,0.5l1,2l0.5,0.2l1.1-0.4l0.9,1l0.5-0.1l0.4-1l0.8-0.7l0.4,0.3l1,1.8
		l-0.1,0.9l0.6,1l1.8,1.2l2,4.5l3.9,2.1l1.2,2.5l3.2,3.6l0.8,3.4l0.4,0.5l0,0l1.3,1.8l5.3,4.3l3.4,4.7l-0.2,5.9l-1.2,0.7l-0.4,0.7
		l0.2,2.5l-0.8,5.1l0.2,1.3l1,1.2l0.2,0.7l-0.5,1.4l0.8,0.5l-0.6,1.7l0.5,1.4l0.3,4.7l-0.6,1.3l-2.4,2.8l0.3,2.5l0,0v3.3h-45.5l0,0
		v-1.6l-4-1.6l-0.7,0.4l-0.8-0.9l-1.6-0.7l-1.6-1.5l-3.7-0.8l-2.8,0.1l-0.3,1.3l0.3,1.8l-0.3,0.7l-1.7,0.1l-1.3,0.6l-2.2-1.1
		l-1.5,0.1l-1.3-0.7l-0.9-1.4l-3.5-2.3l-1.2-1.8l-1.1-2.6l-0.5-0.3l0.2-2l-1.1-1.4l-0.4-0.2l-0.1,0.4l-0.5,0.1l-0.7-1.1h-1l-1.4-1
		l-0.6-0.9l-1.1-3.7l0,0l3.1-0.6l9.7-0.6l0.9,1.4l1.5,0.8l-0.6,1.2l-0.3-0.4l-0.3,0.3l-1-1.3l-0.7,0.9l-0.7-0.4l-0.2,0.2l0.2,0.7
		l-0.5,0.6l0.6,0.7l1.2-0.3l-0.5-1.1h0.8l0.3,0.5l0.6-0.1l1.1,0.7l0.2,0.6l6.7,1.7l1.4-0.1l0.2-0.7l0.7-0.7l4.5-1.5l0.8-2.9l0.6-0.3
		l0.3-1.3l-0.2-0.7l-1.1-1l-0.9,0.7l-1.2-0.6l-0.3-1l0.6-0.5l-0.1-0.8l1-1l-0.8,0.2l-0.7,1.3l-0.8,0.7h-0.5l-0.8,0.8l-0.1,0.6h-0.6
		v-0.2l2.5-2.6l6.7-3.7l4.8-3.5l4.9-4.5l0.5-0.9l-0.1-1l0.5-2l-0.2-2.2l0.7-1.8l-0.5-0.6v-0.6l0.9-1.1l0.2-1l3.8-2.9l1.4-2.5l-1-2.7
		l0.3-1.4l-0.4-1.3l0.4-0.3l-0.4-4.5l0.3-0.8l-0.5-3.4l1.3-3.6l0.4-3L696,331.7L696,331.7z"/>
	
		<pattern  id="SVGID_00000132089469543770299170000002460538383271994275_" xlink:href="#Nueva_muestra_de_motivo_6" patternTransform="matrix(1 0 0 -1 -349 -16301)">
	</pattern>
	
		<pattern  id="SVGID_00000039114900285013761730000016307518289625065611_" xlink:href="#Nueva_muestra_de_motivo_1" patternTransform="matrix(1 0 0 -1 -349 -16301)">
	</pattern>
	
		<path style="fill:url(#SVGID_00000132089469543770299170000002460538383271994275_);stroke:url(#SVGID_00000039114900285013761730000016307518289625065611_);stroke-width:1.5;stroke-miterlimit:10;" d="
		M603.6,455.4l0.2-0.6l0,0l-0.1-0.4h0.4l0.8,1.1L603.6,455.4z M603.2,451.4v-0.8l0,0l-0.1-2.1l0.5-1.5l-1.3-2.9l0.1-0.9l2.2-6.3
		l2.9-2.6l0.8-3.5l0.8-1v-2l0.3-0.9l0,0l0.9-1.1l2-0.9l3.7-2.9l0,0l2.5-3.2l0.1-1.6l1.4-1.9l1.2-0.8l0.6-1.2l0.8-7.1l1.7-0.3
		l0.5-0.6l2.1,0.9l1.4,1.7l0.8,0.4l2.8-0.1l-0.3,1.7l-1.4,2.1l-0.1,0.6l0.4,0.9l2.1,2.2l-0.3,1.9l0.4,0.3l1.3-0.1l0.4-0.4l0.5,0.2
		l1.2,1.9v0.7l0.7,0.9l0.8,0.3l1.9-0.8l2.4-2.3l5.8-4.3l0.6-0.8l3.3-1.2l0.4-0.8l-0.4-1.8l0.1-0.4l0.4,0.1V409l1.8,0.5h2l0.7-1.8
		l1.5,0.4l-0.1,0.6l0.6,0.3l0.6-0.4l1.2,0.2l1.2-0.3l1.1,1.4v2l2.6,1.3l1.3,3.3l-0.8,2.7l4.3,1.2l0.2,0.8l1.3,0.4l1.1,1.8l-0.8,0.3
		l-0.5,1l0,0l-0.7,0.1l0.6,1h0.8l1,1.1l0.8-0.4l0.9,0.3v0.8l0.5,0.7l0.6,0.3l0.3,1l1.1,1.2l1,0.2l0.3,1l1.4,1.4l0.1,0.6l1.3,0.4
		l0.5,0.6l0.3-0.3l1.1,0.4l0.2,0.9h1l0.9,0.7l1.1-0.1v0.5l2.1,1.3l1.4,2.2l0.3,3.2l0.8-0.1l0.1,0.5l-0.7,0.2l0.2,0.4l0.8-0.3
		l0.4,0.5l0.9-0.3l0.6,0.6l0.6-0.3l0.5,0.7l-0.2,0.5h1.7l0.4,0.6l0.1,0.6l-0.4,0.4l0.3,0.5l-0.3,0.9h-0.5l-0.2,0.6l0.4,0.4l-0.8,1.6
		l0.8,1.1l-0.7,0.4l0.6,0.3v0.4h-0.6l0.3,1.4l-31.8-0.3l-12.2,21l3.9,5l-1,1.6l-0.8-0.1l-0.3,0.7l0.1,2.5l-1,1.4l0.9,4.3l-0.7,1.2
		l-0.4,1.5l-0.9,0.7l-4.5-4.1l-10.9-11.5l-0.1-0.9l-0.8-0.2l-11.1-10.4l-5.4-4.3l-6.1-4.2l-3.8-1.8l0.3-0.4l0.8-0.1l0.3,0.6l0.6-0.3
		l0.1-0.5l-1.1-1.8l-4.7-1l-0.7-0.9L603.2,451.4L603.2,451.4z"/>
	
		<pattern  id="SVGID_00000127045977021801389840000008532285942596744866_" xlink:href="#Nueva_muestra_de_motivo_6" patternTransform="matrix(1 0 0 -1 -349 -16301)">
	</pattern>
	
		<pattern  id="SVGID_00000046338207250743219050000000386756343056517301_" xlink:href="#Nueva_muestra_de_motivo_1" patternTransform="matrix(1 0 0 -1 -349 -16301)">
	</pattern>
	
		<path style="fill:url(#SVGID_00000127045977021801389840000008532285942596744866_);stroke:url(#SVGID_00000046338207250743219050000000386756343056517301_);stroke-width:1.5;stroke-miterlimit:10;" d="
		M373.2,107.2l-2.3,4.2v0.3l1.7,0.6v1l-0.7,1l-0.8-0.3l-0.7,0.3l-1.7,4l-1.4,1.1l-1.6,0.6l-2.3,3.8l-0.6,1.1l0.9,1.4l-0.9,1.4
		l-2.7,6.8l-0.6,0.4l-1.8-0.7v1.6l1.1,0.2l0.5,1.5L359,138l-1.9,0.4l0.8,1.4l-0.1,0.8l-0.6,0.8l0.7,0.8l0.1,0.7l-1.1,1.2l0.8,4.5
		l1.1,0.5l0.2,0.8l0.1,1.1l-0.5,1.1l0.7,3.7l0.2,4.8l0.5,0.7l1.8,0.8l-0.4,1.5h-1.1l-1.1,1l-1.9,0.9l0.4,0.8l-0.1,1.3l2.1,1.9
		l1.1,1.8l0,0l-1.1,0.2l-1.1-0.9l-0.5,0.7l-0.3-0.2l0.4-0.7l-0.8-0.1l-3.2,1.1l-1.5-0.6l-0.9,0.8l-1.4-0.3l-0.7-1l-1.4-0.2l-1.4-0.9
		l-0.7,0.3l-0.3,0.7l0.5,0.7l1.5,0.1l-0.1,1l-2.5,0.4l-1.1,1.5l-1.5,0.5L341,177l0.2,1.3l-0.3,0.8l-0.4,0.2l-1.7-0.2l-1.7,0.9
		l-1-0.2l-1.7-1.2l-2-1.9l-2.2,0.5l-1.2-0.3l-0.7-0.7h-0.5v1.1l-1.6,0.7l-0.5,0.6l-0.6,0.1l-0.4-0.5l-1.7,1l-0.2-0.6l-1.6-0.5
		l-1.3,0.3l-1.1-1.9l-1.6,0.3l-0.8-1.1h-1l-1.6-1.4l-1.9-0.2l-0.3-0.6l-1.3-0.7l-1-1.9l-1.1-0.2l-1.9-1.2l-1.3-0.1l-0.7-0.9
		l-0.8,0.5l-0.2,1.3l-1.8,0.6v1.8l-0.6,0.5l-0.9,3.4v1.6l-0.9,1.5l0.1,0.5l1.1,0.5v1.1l-0.3,0.6l-2,0.9l-0.9,0.9v1.4l-1-0.2
		l-0.4,0.4l0.4,2.1l-0.9,0.3l-1.7,4l1,1.6l0.6,1.9l-2.1,3.4l-3.5,2.7l-1.2,1.6l-0.6-0.3l-0.7-1.2l-2-0.3l-0.5-0.9l-1.6,0.2l-1.1-0.7
		l-0.3-1.3l-2.3,0.8l-0.3,0.6l0,0l-2.1-2.8l-0.6-3.2l-2.9-4.9l-2.4-0.7l-3.2-0.3l-3.8-1.1l-1.2-4.7l-3.1-5l-0.1-1.9l-1.4-0.9
		l-0.3-1.1l0.5-2l-0.5-0.8l0.4-2.3l-1.1-2.3l-1.2,0.3l-0.6-0.2l-0.1-2.9l-0.7-0.4l-4.9,0.2l0,0l-1.8-0.4l-2,0.6l-3.5-1.8v-0.5
		l0.7-0.4l-0.5-3.4l1.3-3.1v-1.7l-1.6-4.1l-1-1.4l-0.6-2.1l-2.8-1.7l-0.5-0.6l0.7-2.4l-0.4-1.7l-2.1-3l-1.8-0.7l-0.4-0.7l0.6-2.8
		l-1.6-1.1l0.7-0.3l1-1.4l2.5-0.5l1.4-0.8l0.8,0.1l1.8,1.3h0.5l1.4-1.1l1.1-0.1l1-1.2l0.9-0.1l0.6-1.2l-2.3-0.9l-1.6-1.8l0.4-2.9
		l-0.8-1.9l0.2-1l1.5-2.6l-0.8-2.7l0.8-1.3l-0.5-2.6l1.5-1.3l0.1-2.7l1.4-0.7l0.3-0.5l-0.3-5.7l0.2-0.9l0.8-0.9V92l-0.7-6.2l-0.8-1
		h-0.6l-0.3-1l0.6-4.9l1.3-2.6v-1.1l-1.4-1.3l-0.2-1l0.9-0.5l0.3-1.8l-1.9-6.2l0.1-1.2l-1.1-1.5V61l0.7-1.6l-1-0.9l-0.1-2.4
		l-2.7-2.7v-0.6l1.6-0.1v-1.8l0.5-1.3l-0.2-1.6l-1.6-2.8l-0.5-1.9l0.9-1.3l-1.1-1l0,0h14V28h41.7l1,1.1l1.6-0.1l1,0.6l0.9,1l1.8,4
		l0.8,0.4l1.1,2.4l3.2,2l1.8,0.2l1.3,0.8l0.6,1.5h0.6l0.4,0.7h0.5l2.2,2.7l0.3,0.8l1.3,0.5l0.4,0.6l1.5,0.6l1.2,1l0.9,2.4l1.2,0.6
		l0.4,0.8l1.9,1.2l0.5,0.9l-0.2,0.5l1,0.2l1.5,1l0.3-0.4l0.9,0.9l0.9-0.3l0.2,0.6l0.4-0.2l0.6,0.7h0.4l-0.1,0.4l1.1,0.1l0.8,1.3
		l0.9,0.5l0.9-0.1l0.6,0.7l0.3,1.3l1.1,0.4l0.9,1l0.8,2.1v1.5l0.5,0.8l-0.2,0.8l1.1,0.7l-0.2,0.3l1.5,1.6l-0.1,0.5l1.4,1.1l0.5,1.6
		l-0.2,1.5l0.3,1l-0.5,2.1l0.4,0.2v1.1l0.4,0.7l-0.3,0.4l0.3,1.1l1.1,0.9l1.1,1.9l1.3,3.9l3.5,2.7l0.4,0.8l1.1,0.6l0.5-0.3l2,1
		l0.1,0.4l0.6,0.2l-0.1,0.6l1.2,1.7l1.4,0.6l1.4,1.3l2,0.9l3,0.4l1.4,0.6l0.4-0.2l0.2,1.3l0.4-0.3l1,1.4l1.5,0.3l0.3,0.4h2.3
		l2.1,2.1l-0.1,0.5l0.6-0.1l0.5,0.8L373.2,107.2z"/>
	
		<pattern  id="SVGID_00000099650065968812812690000000685536270820073149_" xlink:href="#Nueva_muestra_de_motivo_6" patternTransform="matrix(1 0 0 -1 -349 -16301)">
	</pattern>
	
		<pattern  id="SVGID_00000099623940443790377260000006411957271615717051_" xlink:href="#Nueva_muestra_de_motivo_1" patternTransform="matrix(1 0 0 -1 -349 -16301)">
	</pattern>
	
		<path style="fill:url(#SVGID_00000099650065968812812690000000685536270820073149_);stroke:url(#SVGID_00000099623940443790377260000006411957271615717051_);stroke-width:1.5;stroke-miterlimit:10;" d="
		M461.2,142.5l-0.3,0.6l-1.1,0.8l-1,0.1l-1.9,1.3l-5.5-0.9l-3.7,0.3l-1.1,0.6l-0.5,2.3l-1.7,2.6l-0.3,0.8l0.2,2.3l-0.6,0.5l-2.2-0.1
		l-2.1,0.9l-1.2-0.4l-1.2,1l-1.8,3l0.3,3.3l2.8,2.1l0.6-0.1l0.7-3.1l0.6,0.1l2,1.5l0.4,5.1l-0.8,2.2l-1,0.8l-1.1,2.2h-3.2l-2.6,1.7
		l-3.5,0.3l-0.9,0.9l-1,2.7l-2.4,2.4v1.3l4.5,4.8l2.7,2l1,3.1l1.4,1.1l0.9,0.1l0.4,0.6l-1,2.9l0.2,2.5l0.8,1.8l1.1,0.1l0.8,0.7
		l2.1,0.1l0.4,0.4l0.6,3.4l0.8,0.9l3.3,1.9l-0.5,1.1l3.6,0.6l0.5,0.8l0.9,0.3l0.4,0.9l-0.8,0.9l-0.1,1.1l-0.3,0.2H448l-3.4-0.9
		l-1.3-1.5l-1.7-0.2l-0.9,0.3l0.3,0.8l-1.8,0.6l-1.7,3.2l0.9,2.9l0.1,2.2l-0.2,0.4l-2.4,0.1l-0.2,0.4l0.3,0.8l-0.3,1.2l1.4,1.6
		l0.1,1.4l0.6,1.2l-1,3.3l0,0l-2.1-0.5L434,231l-0.2,0.8l-1.4,0.4l-2.1-0.8l-1.4-1.3l-1.9-3.8l-1.3-0.8l-3-0.4l-2.3,0.5l-0.9,0.9
		h-2.8l-0.6-3.6l-1.2-0.3l-1.5,0.4l-2.2-3.1l-2-1.7l-2.5-1l-2.5-1.7l-9.3-0.6l-5.4,1.1l-0.6,0.5v1.6l0,0l-3,2l-0.6,1l-0.5,2.1
		l0.5,1.7l-0.3,0.5l-0.7,0.2l-2.1-1.4l-2.8-0.2l-3.4-1.6l-1.3-1.2l-0.6-0.9l-0.5-3.1l-2.4-1.9l-0.6-1.7l-1.8-2.1l-0.6-3.1l1.4-1.4
		l2.3-0.4l-0.8-1.2l-1.3-0.3l-0.7-0.8l0.1-0.9l1.4-2.1l1.1-0.8l1.2-3.1l-1.2-4.5l-0.2-2l0.4-2.3l-1.7-3.9l-0.2-1.4l0.4-2.9l-1.4-4
		l-2.3-2.1l-0.8-1.2l-1.2-1.2l-3-0.8l-0.7-0.6l0,0l-1.1-1.8l-2.1-1.9l0.1-1.3l-0.4-0.8l1.9-0.9l1.1-1h1.1l0.4-1.5l-1.8-0.8l-0.5-0.7
		l-0.2-4.8l-0.7-3.7l0.5-1.1l-0.1-1.1l-0.2-0.8l-1.1-0.5l-0.8-4.5l1.1-1.2l-0.1-0.7l-0.7-0.8l0.6-0.8l0.1-0.8l-0.8-1.4l1.9-0.4
		l0.3-0.5l-0.5-1.5l-1.1-0.2v-1l1.8,0.7l0.6-0.4l2.7-6.8l0.9-1.4l-0.9-1.4l0.6-1.1l2.3-3.8l1.6-0.6l1.4-1.1l1.7-4l0.7-0.3l0.8,0.3
		l0.7-1v-1l-2.2-0.6v-0.3l2.3-4.2l0,0l0.7,0.1l0.3-0.6l0.4,0.1l-0.3,0.6l1.4,0.7l0.1,0.5l0.4-0.4l0.3,0.4l1.6-0.1l0.9,0.4l0.9-0.4
		l0.5-2.3l0.3,0.2l0.3-1.1l0.8-0.1l1.1-1.7v-0.6l0.6-0.3l0.4,0.3l1-0.5l0.2-0.7l0.6,0.2l0.5-0.3l-0.2-0.7l-0.8-0.4l0.4-0.8l0.2-1.8
		l1-0.2l-0.1-0.3l0.7-0.9l-0.4-0.3v-0.9l0.7-1.3l-0.1-1.1l0.7-0.6l0.3-1.6l0.5,0.1l0.1-1.2l1.2-1.1l-0.1-0.4l0.7-1.6l1.1,0.2
		l1.4-0.6l0.6,0.3l0.9-0.6l-0.1-0.5l2.7,0.5L398,85l0.4-1.6l1.1-1l1.4,0.3v0.4l2.1,0.3l1.6,1.4L406,85l0.5-0.1v-0.3l1-0.1l1.6,0.2
		l0.3,0.4l0.5-0.4l2-0.3l0.5,0.3l-0.1,0.5l0.8-0.3l1.7,0.8l0.4-0.2l0.4,0.3l0.4-0.3l0.3,0.4l1.9-0.6l0.1-0.6l0.6-0.5l0.2,1.5l2-0.8
		l0.2,1.1l1.1-0.5l0.2,0.2l-0.4,0.3l0.4,1l0.5,0.4l0.3,1.4l1.2-0.2l0.4,0.6l-0.3,1.5l0.6,0.4l0.2-1.3l0.3-0.3l0.5,0.1l0.1,1.6
		l-0.5,1.1l0.3,0.3l1.9,0.2l0.6,1.1l2.2,0.5l1.3,2.5l1.6,0.8l1.4,1l0.3,0.8l2,1l0.8,1.7l-0.2,0.4l2.4,1.8l0.4,0.9l0.4,3.7l0.5,1.2
		l0.7,0.1l0.7,2l0.7,0.1l0.3,0.6l0.1,1.3l0.6,0.6l0.2,2.1l1.3,0.6v0.8l1.3,0.8l-0.4,1.1l0.6,0.8l1.2,0.4l-0.1,0.4l-0.6,0.2l0.7,0.9
		l-0.2,1.4l1.5,2.4v1.1l1,1.1l0.8,0.1l0.3,1.1l3.1,1.4l0.9,1.8l0.8,0.5l0.2,1l0.8,1.2l0.9,0.1v1.1l1,1l-0.2,1l0.7,1.1v1.1l0.7,0.1
		L461.2,142.5z"/>
	
		<pattern  id="SVGID_00000111149633412793813570000013105174112158266018_" xlink:href="#Nueva_muestra_de_motivo_1" patternTransform="matrix(1 0 0 -1 -349 -16301)">
	</pattern>
	
		<path style="fill:none;stroke:url(#SVGID_00000111149633412793813570000013105174112158266018_);stroke-width:1.5;stroke-miterlimit:10;" d="
		M370.6,380.1l-2.5,2.2l-1-0.3l-0.4,0.3v1.8l-1.9,1.2l-0.7,1.7l0,0l-5.5-4.4l-5.2-2.8l-4-1.4l0.1-0.8h0.5l0.1-0.6l-0.5-0.5l-1.1-0.6
		l-1.8,0.9l-0.3-0.6l-1.8-0.7l-4.5-1.2l0.3-0.4l0.6,0.4l0.2-0.3l-0.6-0.2l0,0h1.9l1.5-1.8l1.1,0.5l0.6-0.1l0.5-0.8l0.9-0.6l0.5,0.4
		l3.8-0.9l1.3,0.4l1.1-0.3l3.1-2.3l3.3,0.3l1.4-0.2l3.2-1.7l2.5-2.4l0.6,0.1l0.5,2.9l-0.2,1l1,0.8l0.2,0.8l1.1,0.5l-0.5,1.8l0.1,3.1
		l-0.6,1.3l0.8,1.5L370.6,380.1z"/>
	
		<pattern  id="SVGID_00000116216380175733221050000001887760730598289300_" xlink:href="#Nueva_muestra_de_motivo_6" patternTransform="matrix(1 0 0 -1 -349 -16301)">
	</pattern>
	
		<pattern  id="SVGID_00000181802819557298136940000011190076292150801076_" xlink:href="#Nueva_muestra_de_motivo_1" patternTransform="matrix(1 0 0 -1 -349 -16301)">
	</pattern>
	
		<path style="fill:url(#SVGID_00000116216380175733221050000001887760730598289300_);stroke:url(#SVGID_00000181802819557298136940000011190076292150801076_);stroke-width:1.5;stroke-miterlimit:10;" d="
		M485.5,377.1h-1l-2.4,0.8l-0.9-0.8l-0.6,0.1l-1.3,1.1l-1.3-1.2l-1.3,0.2l0,0l-2.6-4.4l-0.1-1l3.2-2.8l0.5-2l2.2-2.5l0.3,0.4v1.1
		l1.6,1.9l0.5,1.5l2.1,1.8l0.3,1.5l0.5-0.4l0.2,0.5l0.4,1.6l-0.5,1.7L485.5,377.1z"/>
	
		<pattern  id="SVGID_00000094609601896728989060000002756381034835820473_" xlink:href="#Nueva_muestra_de_motivo_6" patternTransform="matrix(1 0 0 -1 -349 -16301)">
	</pattern>
	
		<pattern  id="SVGID_00000131366233732826087060000001488302683836937095_" xlink:href="#Nueva_muestra_de_motivo_1" patternTransform="matrix(1 0 0 -1 -349 -16301)">
	</pattern>
	
		<path style="fill:url(#SVGID_00000094609601896728989060000002756381034835820473_);stroke:url(#SVGID_00000131366233732826087060000001488302683836937095_);stroke-width:1.5;stroke-miterlimit:10;" d="
		M279.5,199.9l0.3-0.6l2.3-0.8l0.3,1.3l1.1,0.7l1.6-0.2l0.5,0.9l2,0.3l0.7,1.2l0.6,0.3l1.2-1.6l3.5-2.7l2.1-3.4l-0.6-1.9l-1-1.6
		l1.7-4l0.9-0.3l-0.4-2.1l0.4-0.4l1,0.2v-1.4l0.9-0.9l2-0.9l0.3-0.6v-1.1l-1.1-0.5l-0.1-0.5l0.9-1.5v-1.6l0.9-3.4l0.6-0.5v-1.8
		l1.8-0.6l0.2-1.3l0.8-0.5l0.7,0.9l1.3,0.1l1.9,1.2l1.1,0.2l1,1.9l1.3,0.7l0.3,0.6l1.9,0.2l1.6,1.4h1l0.8,1.1l1.6-0.3l1.1,1.9
		l1.3-0.3l1.6,0.5l0.2,0.6l1.7-1l0.4,0.5l0.6-0.1l0.5-0.6l1.6-0.7v-1.1h0.5l0.7,0.7l1.2,0.3l2.5-0.2l2,1.9l1.7,1.2l1,0.2l1.7-0.9
		l1.7,0.2l0.4-0.2l0.3-0.8l-0.2-1.3l1.9-3.1l1.5-0.5l1.1-1.5l2.5-0.4l0.1-1l-1.5-0.1l-0.5-0.7l0.3-0.7l0.7-0.3l1.4,0.9l1.4,0.2
		l0.7,1l1.4,0.3l0.9-0.8l1.5,0.6l3.2-1.1l0.8,0.1l-0.4,0.7l0.3,0.2l0.5-0.7l1.1,0.9l1.1-0.2l0,0l0.7,0.6l3,0.8l1.2,1.2l0.8,1.2
		l2.3,2.1l1.4,4l-0.4,2.9l0.2,1.4l1.7,3.9l-0.4,2.3l0.2,2l1.2,4.5l-1.2,3.1l-1.1,0.8l-1.4,2.1l-0.1,0.9l0.7,0.8l1.3,0.3l0.8,1.2
		l-2.3,0.4l-1.4,1.4l0.6,3.1l1.8,2.1l0.6,1.7l2.4,1.9l0.5,3.1l0.6,0.9l1.3,1.2l3.4,1.6l2.8,0.2l2.1,1.4l0.7-0.2l0.3-0.5l-0.5-1.7
		l0.5-2.1l0.6-1l3-2l0,0l0.4,0.5v1.6l0.8,0.3l0.4,1.1l1.5,0.7l0.8,0.9l-0.8,4.9l1.2,0.4l1,4l-1,0.5v0.4l0.5,0.4l-0.1,0.7l-6.1,0.6
		l-1.7-0.2l-0.8,0.9l-2.7-0.9l-1-0.7l-1.1-0.1l-2.3,0.8l-2.2-0.7l-3.9-0.3l-1.7,1.4l-0.3,1.6l-2.4,1.8l-2.1,2.8l-2.3,2.1l-2.4,0.7
		l-0.2,1.3l0.8,0.5l0.4,1.6l-0.3,1.7l0.4,1.9l-0.5,1.2l0.9,4.3l-2.8,2.4l-2.3,2.9l-0.1,1.9l-1.3,5.8l-0.6,0.4l-1.4,2.7l-0.1,1.3
		l0.9,3.1l-0.2,5.5l-0.3,0.6l-3.2,1.4l-1,1.5l-1.2,3l0,0l-2.9,1.3l-0.4,1.4h-0.5l-1.8-1.1l-1-2.1l-2.5-2.4l-1.7-0.4l-1.4-1.8
		l-1.4,2.6l-0.8,0.9h-0.7l-2.2-4.6l1.7-1.8l1.7-0.9l0.6-0.9l-0.1-1.2h-1.1l-0.5-0.4l-0.6-2.5l-2.1-0.2l-1.3-0.6l-1.5-1.8H328
		l-0.9,1.3l-1.7,0.4l-2.2-2.6l0,0l-2.1-2.2l-0.6-0.1l-0.9,0.6l-2-0.1L317,269l-0.1-2.3l-1.2-1.3l-0.7-1.7l0.3-0.9l-1-2.9l-0.4-2.8
		l-1.7-1.6l-0.9-2l-1.1-1.2l-0.6-2.9l-0.7-1.1l-0.8-2.6l0.3-0.9l-1-0.9l-0.1-2.2l-1.7-2.3l-0.1-1.1l-1.1-0.3l-0.9-1.4l-1.5-1l-4-1.2
		l-0.7,1l-2.8,2.1l-1.3,0.2l-0.7,0.6l-0.7-0.5L291,238l-0.6-2l-1-1.4l-0.8-4.1l-0.2-0.3l-0.6,0.4l-0.6-0.2l-1.2-4.5l-1.3-0.3
		l-0.9-2.6l-2.3-0.2l-0.5,0.4l-1.2-1l0.3-1.4l-1.2-2.4l-0.8-0.6l-0.5-1.8l-1-0.6l0.5-2l0.1-5.1l1.3-3.2l-0.1-0.7l-0.5,0.1l-0.6-0.7
		l1.7-2.2l1.2-0.8l-0.1-0.7l-0.7,0.2L279.5,199.9z"/>
	
		<pattern  id="SVGID_00000098915747011187176800000011308473368120256683_" xlink:href="#Nueva_muestra_de_motivo_6" patternTransform="matrix(1 0 0 -1 -349 -16301)">
	</pattern>
	
		<pattern  id="SVGID_00000056424781205724453310000000174413793462717111_" xlink:href="#Nueva_muestra_de_motivo_1" patternTransform="matrix(1 0 0 -1 -349 -16301)">
	</pattern>
	
		<path style="fill:url(#SVGID_00000098915747011187176800000011308473368120256683_);stroke:url(#SVGID_00000056424781205724453310000000174413793462717111_);stroke-width:1.5;stroke-miterlimit:10;" d="
		M462.6,312.7l0.5,0.5l-0.1,2.1l-1.1,1.9l2.5,0.6v1.2l-0.7,1.4l-1.5,0.7l-0.6,1l-1.1,0.2l-1.7-1.8l-1.5,0.6l-2.3,3.3l0.1,1.5
		l-0.7,1.6l-0.8-0.5l-0.2,1.1l-0.7,0.4l-2.7-0.4l-1.5,0.7l-4.6,0.3l-0.7,1.4l-0.6,3.8l0.1,0.8l1,0.7l0.6,1.7v2.7l1.1,1.9l2,1.4
		l0.7,1.7l0,0l-0.4,1.1l0.6,1.2l0.1,1.3l-0.5,1.8h0.7l-0.1,1l-1.2,1.1l-2.1,0.3l-0.7,0.8l-0.5,1.4l-0.6,0.2l0.3-1.5l-0.5-0.2
		l-1.9,0.5l-1.4,1l-3.4-0.2l-2.6-0.9l-1.3-0.1l-0.6,0.3l-0.3-0.1l0.2-0.5l-0.5-2.3l-2.2,0.6l-1.4-0.4l-0.7,0.6l0.3,0.8l-1.2,0.5
		l-1.8-0.7l-2.5-0.2l-0.5-0.5v-3.2l-0.5-1.7l1,0.5l0.6-0.3l-1.3-1.8l-1.1-0.8l-1.4,0.2l-0.6-0.4l-2.1,0.7l-2,2.8l-0.9-0.3l-2.2,0.1
		l-0.5-0.4l-1.2,0.7l-0.8-0.1l-0.4-0.5l-0.7-2.9l0.4-0.4l-0.6-0.5l-0.5,0.1l-0.3-0.5h-0.9l0,0l0.4-2.8l1.8-3.4l-1.6-2.9l-1.6-0.4
		l-0.5-1.3l2-2l0.1-0.8l1.8-1.5l1.9-4l2.5-1.9l1.1-2.7l-0.1-0.6l0.5-0.7l1.5-0.1l0.4-0.4l0.7-1.4l-0.8-0.5l0.6-2.2l-0.7-0.1l1.5-5.5
		l-0.1-0.7l1.2-1.4l-0.7-0.8l1.2-1.3l0,0l1,0.6l0.8-0.9l0,0l1.2,0.7l2.9,0.3l1.3,0.7l4.6,1.1l1.2,0.8h1.1l5,3.7l2.7,1.4h2.8l1.5-0.6
		l-0.1-1.1l0.6-1.8l1.1-0.7l3.9,1.3l3.1,2l0.3,0.7l0.5-0.1l1.7,2.1l1.8-0.2l0.4-0.5l0.7,0.8h1.6L462.6,312.7z"/>
	
		<pattern  id="SVGID_00000041255015179628755720000010435110558680436382_" xlink:href="#Nueva_muestra_de_motivo_6" patternTransform="matrix(1 0 0 -1 -349 -16301)">
	</pattern>
	
		<pattern  id="SVGID_00000076562387643944074090000001135753104084091783_" xlink:href="#Nueva_muestra_de_motivo_1" patternTransform="matrix(1 0 0 -1 -349 -16301)">
	</pattern>
	
		<path style="fill:url(#SVGID_00000041255015179628755720000010435110558680436382_);stroke:url(#SVGID_00000076562387643944074090000001135753104084091783_);stroke-width:1.5;stroke-miterlimit:10;" d="
		M446.9,377.4l0.3,2.9l-1,1.9l-0.7,4.2l0.4,1.6l1.8,0.8l0.1,1.2l-0.3,0.7l-1.7,1.8l0.6,0.7l1.3-0.3l1.5,0.3l0.2,1.1l1.6,2v-0.4h0.6
		l0.3-0.4l0.2,0.4l2-2.2l2.5-0.6l-0.7-1.4l0.4-0.6l1-0.5l0.8,0.4l3.5-0.2l0.3-0.6l0.9-0.4l0.9,0.3l0.4-1.6l1.8-0.3l-0.4-1.7h0.8
		l0.9,1.1l2,0.7l0.8-0.5l0.8,0.1l0,0l0.5,0.8l-0.6,1.1l0.4,0.4l1.1-0.2l1.1,0.5l2,2.7l5.5,0.7l2.3,2.3l0,0v1.2l1.4,1.2l1.3,0.6
		l1.2,2.3l3-0.2l0.2,0.8l-0.8,1l4.2,1.8l0.1,1.1l1.4-0.3l0.5,0.3l0.9-0.9l1.5-0.1l1.6,2l1.6,0.8l0,0l-1.7,4l-0.2,1.4l2.7,6.1
		l0.6,4.6l-0.9,0.8l-0.2,2.1l0.6,0.5l2.3,0.8l0.5,1.2l-0.1,1.9l0.3,0.6l1.2,0.3l0.4,0.5l0.4,1.6l-0.9,2.9l-0.9,0.9l-1.2,0.2
		l-0.9,0.7l-0.2,1.4l-4.1,3.6l-0.5,2l-4.6,3.5l0,0l-3.6-3.6l-1.9-2.5l-1.7,0.2l-0.3,0.6l-1.3-0.2l-10.5-3.2l-3.1-0.6h-4l-1.6-0.5
		l-2.1-1.1l-1.8-1.5l-1-0.3l0.6-0.6l-0.2-0.4h-1l0.2,0.4l-0.6,0.3l-1.1-1.7l-0.9-0.4l-26.4-9.4l0.1-0.6l-0.5-0.6l-2.5-1.8l-0.8-1
		l-6.1-2.6l0.2-0.8l-0.9-1.1l-0.8-0.6l-2.4-0.8l-0.1-0.5l-1-0.4l-0.8-1.9l-1.9-1.3l-1.4-2.4l-3.8-2.1l-2.2-0.7l-1.4,0.2l-0.7,0.8
		l-0.5-0.3l0,0l-0.8-1.3l0.1-3.9l0.8-0.6l2.6-0.8l0.9,0.3l1.5-0.6l0.8-0.8l1.6,0.4l0.8-0.3l0.2-0.3h-1.8l0.3-0.9l-0.1-1.2l-0.6-1.4
		l0.6-1.1l-0.6-1.2l0.1-0.3h0.6l-0.5-0.8l0.7-0.4l0.6,0.1l-0.2-0.5l0.6-0.1l0.5,0.8l0.5-0.8l-0.3-0.4l1.1-0.3l0.1,1l0.6-0.4l0.3,0.4
		l0.1-0.7l0.7-0.2h1.1l1.2,1.9l2,0.9l3.5-0.5l0.2-0.5l2-0.5h1.7l0.5,0.5l2,0.5l1.6-0.2l1.1,0.3l1.2,1.7l0.1,0.8l0.6,0.1l1.4-1.1
		l0.6,0.6l1.4,0.2l0.4,0.8l1.5,0.9l0.3-0.4l0.4,0.3l0.3,1.1h0.8l0.8-1l-2.8-3.8l-0.3-3.1l-1.2-4.2l0.5-1l1.1-0.9h0.4l0.6,1.6
		l2.4-2.9l0.9-0.5l1.1-2.5L446.9,377.4L446.9,377.4z M451.4,396.1l0.1,0.3l0.4-0.3H451.4z"/>
	
		<pattern  id="SVGID_00000057834185443574964410000003725776619186585002_" xlink:href="#Nueva_muestra_de_motivo_6" patternTransform="matrix(1 0 0 -1 -349 -16301)">
	</pattern>
	
		<pattern  id="SVGID_00000044899821356783885240000015430685211570797476_" xlink:href="#Nueva_muestra_de_motivo_1" patternTransform="matrix(1 0 0 -1 -349 -16301)">
	</pattern>
	
		<path style="fill:url(#SVGID_00000057834185443574964410000003725776619186585002_);stroke:url(#SVGID_00000044899821356783885240000015430685211570797476_);stroke-width:1.5;stroke-miterlimit:10;" d="
		M493.6,315.5l0.8,0.2l0.3,0.8l-0.3,2.7l1.8,1.7l1.3,0.7l1.3,0.1l0.9-0.9l2,0.6l2.5,3.4l-1.9,2.5l-0.6,2.2l0.6,1.1l-0.3,0.6
		l-1.5,0.2l-1.3-1.4h-0.5l-2.4,2.2L496,333l-0.6,0.5l-0.3,3.7l-0.6,1.3l-0.3,2.1l1.2,2.6l0.9,1.1l0.5-0.2l1.3-1.5l2.5-1.2l1.9-2.2
		l1.6-0.7l2.1-2.3l0.8-0.4l1.5,1l0,0l0.1,3l-2.9,2.5l-0.9,1.4l-3.6,1.9l0.7,1.4l2.1-0.5l0.5,2.2l-0.8,4.8l-1.5,3.1l0.7,4.7l0,0
		l-2.4-0.5l-0.8,1.5l-1.5,1.2l-2.1,0.3l-1-0.2l-5,1.7l0,0l-0.2-1.4l1.8-4.1l-0.2-1.7l-5.8,0.6l-1.7,2.6l-0.2,0.2l-0.6-0.3v-0.9
		l-0.9-1.8l0.2-0.5l0.9-0.5l0.9-0.1l1.1-4.3l-0.4-1.9l-0.6-0.1l-2.7,1.4l-3.9,1.1l-0.5,3.8l-0.7,0.8l-2.1-1l-0.2,2.2l-1.2,1l0.1-2.5
		l-0.4-1.3l-0.7-0.6l-0.3-1.3l-1.2-1.3l0.7-1l-1.5-3.1l-0.6-0.3l-0.1-0.6l-4.6-0.7l-2.6-1.5l-1.2-1.4l0,0l1-6.5l1.6-0.5l0.9-0.7
		l2.9-0.7l2.3-1.6l-0.6-2l1.1-2.6l1.2-0.4l0.8-1.2l0.5-2.2l0.8-1.6l-0.3-1.1l1.6-1.4l1.2,0.7l4.1-1.3l1.3-3.1l0,0l2.3-0.8l1.1,2.4
		l1.3,1.1h1.1l1.4-2.4l0.9,1.3l1.3-3l1.6-1.8L493.6,315.5L493.6,315.5z"/>
	
		<pattern  id="SVGID_00000058564008198934942440000004955544532739510661_" xlink:href="#Nueva_muestra_de_motivo_6" patternTransform="matrix(1 0 0 -1 -349 -16301)">
	</pattern>
	
		<pattern  id="SVGID_00000000221421030140458510000002467193951830542770_" xlink:href="#Nueva_muestra_de_motivo_1" patternTransform="matrix(1 0 0 -1 -349 -16301)">
	</pattern>
	
		<path style="fill:url(#SVGID_00000058564008198934942440000004955544532739510661_);stroke:url(#SVGID_00000000221421030140458510000002467193951830542770_);stroke-width:1.5;stroke-miterlimit:10;" d="
		M406,343.1h0.9l0.3,0.5l0.5-0.1l0.6,0.5l-0.4,0.4l0.7,2.9l0.4,0.5l0.8,0.1l1.2-0.7l0.5,0.4l2.2-0.1l0.9,0.3l2-2.8l2.1-0.7l0.6,0.4
		l1.4-0.2l1.1,0.8l1.3,1.8l-0.6,0.3l-1-0.5l0.5,1.7v3.2l0.5,0.5l2.5,0.2l1.8,0.7l1.2-0.5l-0.3-0.8l0.7-0.6l1.4,0.4l2.2-0.6l0.5,2.3
		l-0.2,0.5l0.3,0.1l0.6-0.3l1.3,0.1l2.6,0.9l3.4,0.2l1.4-1l1.9-0.5l0.5,0.2l-0.3,1.5l0.6-0.2l0.5-1.4l0.7-0.8l2.1-0.3l1.2-1.1l0.1-1
		h-0.7l0.5-1.8l-0.1-1.3L448,346l0.4-1.1l0,0l1.5,1l1.2,1.9l-0.2,0.8l3.3,3l0,0l-0.1,2.4l0.9,0.8v0.6l-1.3,1.7l-0.3,2l-0.3,0.5
		l-1.4,0.5l-1.5-0.1l1,2l0.6,0.5l0.4,5.2l-0.3,0.6l-0.7,0.1l-0.4,0.6l-0.8,1.8l0.3,1l-1.1,2.4l-1.5,1.8l-0.2,1.1l-0.6,0.4l0,0
		l-2.3,1.4l-1.1,2.5l-0.9,0.5l-2.4,2.9l-0.6-1.6h-0.4l-1.1,0.9l-0.5,1l1.2,4.2l0.3,3.1l2.8,3.8l-0.8,1h-0.8l-0.3-1.1l-0.4-0.3
		l-0.3,0.4l-1.5-0.8l-0.4-0.8l-1.4-0.2l-0.6-0.6l-1.4,1.1l-0.6-0.1l-0.1-0.8l-1.2-1.7L431,392l-1.6,0.2l-2-0.5l-0.5-0.5h-1.7l-2,0.5
		l-0.2,0.5l-3.5,0.5l-2-0.9l-1.2-1.9h-1.1l-0.7,0.3l-0.1,0.7l-0.3-0.4l-0.6,0.4l-0.1-1.1l-1.1,0.3l0.3,0.4l-0.5,0.8l-0.5-0.8
		l-0.6,0.1l0.2,0.5l-0.6-0.1l-0.7,0.4l0.5,0.8h-0.6l-0.1,0.3l0.6,1.2l-0.6,1.1l0.6,1.4l0.1,1.2l-0.3,0.9h1.8l-0.2,0.3l-0.8,0.3
		l-1.6-0.4l-0.8,0.8l-1.5,0.6l-0.9-0.3l-2.6,0.8l-0.8,0.6l-0.1,3.9l0.8,1.3l0,0l0.2,0.8l-1.3,0.5l-3-1.5l-4-1.2l-7.8-1.7l-5.1-2.4
		l-3.8-0.7l-5-1.9l-0.5,0.2l-3.8-2.3l-1.8-4.1l-2.9-2.2l0.4-0.8l-1.6-1.9l0,0l0.7-1.7l1.9-1.2v-1.8l0.4-0.3l1,0.3l2.5-2.2l0,0
		l1.7-0.4l1.5,0.3l2.2-1.7l0.5,0.1l1.3,1.8l0.3-0.1l1.6-1.7l2.2-1.2l4-3.6l1.4-0.7l2.3,0.6l0.9-2.3l2.4-2.5l-0.1-1.6l-0.6-0.7
		l-3.4,0.1l0.6-2.6l-1.9-4.2l0.9-0.7l0.3-0.8l-0.6-2.2l-0.7-0.6l-3.2-0.9l-2.3-0.3l-0.5,0.6h-0.5l-0.5-0.8l0.9-1.5v-2.4l0.4-0.3
		l0.9,0.2l0.3-1.1l2.5,0.5l1,1.3h0.4l0.2-0.8l3-0.7l0.3-1.4l0.9-0.3l1-1l1.1,0.1l2.1-1.6l1.1-0.3l1.7,0.1l1.3-0.5l1.7,0.2l2.1-1
		L406,343.1z"/>
	
		<pattern  id="SVGID_00000083086851326472954750000010466165502486022030_" xlink:href="#Nueva_muestra_de_motivo_6" patternTransform="matrix(1 0 0 -1 -349 -16301)">
	</pattern>
	
		<pattern  id="SVGID_00000106841626226487008940000017214990819540381104_" xlink:href="#Nueva_muestra_de_motivo_1" patternTransform="matrix(1 0 0 -1 -349 -16301)">
	</pattern>
	
		<path style="fill:url(#SVGID_00000083086851326472954750000010466165502486022030_);stroke:url(#SVGID_00000106841626226487008940000017214990819540381104_);stroke-width:1.5;stroke-miterlimit:10;" d="
		M476.7,377.4l1.3-0.2l1.3,1.2l1.3-1.1l0.6-0.1l0.9,0.8l2.4-0.8h1l0,0l1,0.8l0.9,1.6l2.5,0.9l2.6-2.1l0.9-0.2l0,0l-2.8,7.1l1.3,7.7
		l-0.5,0.7l-2.8-2.6l-0.5,0.1l-0.8,1.3l-1.2,0.6l-0.6,1l-2.8,1.9l0,0l-2.3-2.3l-5.5-0.7l-2-2.7l-1.1-0.5l-1.1,0.2l-0.4-0.4l0.6-1.1
		l-0.5-0.8l0,0l0.2-1l1.6-1.8l0.4-1.4L476.7,377.4z"/>
	
		<pattern  id="SVGID_00000117675142217339445440000013738289807965630094_" xlink:href="#Nueva_muestra_de_motivo_1" patternTransform="matrix(1 0 0 -1 -349 -16301)">
	</pattern>
	
		<path style="fill:none;stroke:url(#SVGID_00000117675142217339445440000013738289807965630094_);stroke-width:1.5;stroke-miterlimit:10;" d="
		M302.5,317.5l0.2,0.8l-0.8,0.4l-0.5-0.7l0.4-0.5L302.5,317.5L302.5,317.5z M297.4,313.1l1.6,0.4l0.4,0.6l-0.5,0.4l-0.1,0.8
		l-2.3-0.9l-0.4-0.5L297.4,313.1L297.4,313.1z M292,307.9l2.6,0.7l0.4,0.4l-0.1,0.6l0.8,0.8l-0.2,0.9l-0.6,0.4l-2.3-1.3l-0.5-1.4
		L292,307.9L292,307.9z M291.6,305.8l0.4,1l-0.5,0.2l-0.2-0.8L291.6,305.8L291.6,305.8z M316.1,284.5l0.6,1.4l-0.2,1.4l0.5,0.5
		l-0.2,0.7l0.9,6.4h-0.6l-0.2-0.4l-0.8-4.2l-2-4.5l0.3-0.3l1.1,1.8l0.8-0.3l-0.7-2.2L316.1,284.5L316.1,284.5z M323.3,271.9l2.2,2.6
		l1.7-0.4l0.9-1.3h0.5l1.5,1.8l1.3,0.6l2.1,0.2l0.6,2.5l0.5,0.4h1.1l0.1,1.2l-0.6,0.9l-1.7,0.9l-1.7,1.8l2.2,4.6h0.7l0.8-0.9
		l1.4-2.6l1.4,1.8l1.7,0.4l2.5,2.4l1,2.1l1.8,1.1h0.5l0.4-1.4l2.9-1.3l0,0l0.2,2.8l0.4,1l0.7,0.4l0,0l0.2,0.5l-1.3,4.9l0.5,3
		l1.7-0.5l1.2,1.1l1.1,0.1l0.5,0.5l0.1,2.7l0.9,1.6l4.5,0.6l1.7,4.3l1.4,1.2l0.2,1.5l-0.4,4.2l-0.4,0.8l-2.3,1.3l-1.7,0.3l-1,1
		l-1,0.4l-4,0.2l-1.5,8.4l-0.8,0.2l-0.5,0.6l0.4,1.5l0.7,0.8l-0.3,0.4l1.2,1.5v1.5l-0.5-0.3l-0.5-1.5l-0.7-0.8l-2.3-2.1l-1.1-0.5
		l-2.7-3l-3.1-0.8l-1.2-1.4l-1.5-0.7l-1.3,0.2l-3.2,2.4l-2.3-0.5l-1.2,0.5l-4.5,5.6l0,0l-1.2-1.8l-0.5-0.1l-0.9,0.7l-3-1l0.8-0.6
		l0.9-2.1l0.4,0.1l0.9-1.6l1.2-0.8l0.9-1.2l0.1-0.8l1,0.4l1.1-1.6l-0.3-1l0.5-3.1l-0.6-2.8l1.4-2.7l-0.2-1.3l-0.7-0.8l-0.9,0.3
		l-4.7-3.2l-1.4-3.6l-3-5.1l-0.7-2.7l0.2-3.2l0.8-0.4l0.5,1.2l0.6,0.1l0.3,0.8l2,1l0.3-1.5l-1-0.7l-0.3,0.3l-0.4-0.8l-1,0.3
		l-0.2-0.6l0.4-0.4l-0.1-0.6l-0.5-0.1l-0.3,0.4l-0.3-0.3l0.1-0.7l-0.5-1l-0.2-3.4l-0.3-0.6l0.2-0.9l-0.6-0.4l0.3-0.7l-0.6-2.1
		l0.3-0.2l0,0l2.1,1.2l3.5,0.6l0.4-0.9l-0.2-2l-0.4-0.4l-0.2-1.3l-1.3-1.3l-0.5-1.3l0.3-1l1.7-2.1l0.6-3.4L323.3,271.9L323.3,271.9z
		"/>
	
		<pattern  id="SVGID_00000137815618284371259010000004774290432069224847_" xlink:href="#Nueva_muestra_de_motivo_6" patternTransform="matrix(1 0 0 -1 -349 -16301)">
	</pattern>
	
		<pattern  id="SVGID_00000036971988191736475320000013829508536096909458_" xlink:href="#Nueva_muestra_de_motivo_1" patternTransform="matrix(1 0 0 -1 -349 -16301)">
	</pattern>
	
		<path style="fill:url(#SVGID_00000137815618284371259010000004774290432069224847_);stroke:url(#SVGID_00000036971988191736475320000013829508536096909458_);stroke-width:1.5;stroke-miterlimit:10;" d="
		M464,145.3l-0.6,0.3l-1.3,1.7l-2.8,0.8l-0.6,0.7l0.3,0.8l-0.4,1.1l0.6,0.4l4,0.2v0.9l-1.2,1.4l1.3,0.9l-0.2,2.5l0.2,1.4l1.1,1.1
		l0.4,3.2l-1.6,1.4l-0.8,2.4l0.1,1.1l1.5-0.1l1.3,0.7l0.5,0.8l-0.5,1.3l-0.2,3.2l0.8,0.8l0.9-0.4l0.7,0.4l0.8,1.9l1.9,0.2l1.2,4.1
		l1.8,2.5l1.4-0.1l-0.1,1l1.2,1.6l0.7,0.1l0.8-0.7l0.6,0.1l0.2,0.6l-0.4,0.7l0.8,1.3l-0.9,0.3l0.8,0.5l0.4,0.6l3.3,0.5l0.6,0.6
		l1.2,2.3l1,0.5l2.7-1.5l1.1,0.1l3.4-0.7l0.7,0.4l0.1,1.5l0.8,1l-0.3,3.4l0.6,1.5l-0.5,0.8l-0.2,2.1l0.7,1.6l-0.4,0.8l1,0.8l2,0.6
		l0.4,0.3v0.5l-1.5,1.6l-0.6,1.4l-1.3,0.6l-1.4,1.4l-0.8,0.1l-1,1.1l-4.4,0.9l-1,1.1l-0.8,2l-2.8-0.2l-0.6-1.2h-0.5l-1.5,2l-1.3,0.4
		l-0.3,0.4l0.6,2.2l0.7,0.4L478,222l-0.9,0.1l-0.9,0.7l-0.5,1.6l-1.1,0.4l-0.4-1.5l-0.4,0.1l-0.4,1l-1.1,0.5l-1.1,1.6l-1.8-0.1
		l-1.3,2.1l-2.9,1.3l-2,1.4l-0.7,2.1l0.2,0.3l1.8-0.1l1.3,2.6l-0.9,6.8l1.8,2.1l1.4,3.6l1.4,0.8l0.8,2.3l-2.3-0.4l-0.4,0.1l-0.3,1.5
		l-1.8,1l-0.7,0.1l-2.5-0.7l-2.3,1.2l-0.7,2.8l-1.5,1.8l-0.3,1l0.4,2.8l-0.2,1.8l-3.1-0.4l-0.8,0.7l0.5,1.4l-0.4,0.8l0,0l-3.9-0.7
		l-2.3,2.8l-1.5-0.7l-1.2-1.5l-0.6-1.6l-0.3-4.1l-0.5-1.3l1.1-5.6l-0.1-0.9l-1-1.5l0.2-4.4l-0.9-2.3l-2.5-3.1l0.1-1.4l-1.8-1.7
		l-0.3-0.8l1.2-1.6v-0.3l-0.7-0.3l0.5-1.6l-1.4-0.5l-1,0.2l-1.7-2.3l0,0l0.5-0.4l0,0l1-3.3l-0.6-1.2l-0.1-1.4l-1.4-1.6l0.3-1.2
		l-0.3-0.8l0.2-0.4l2.4-0.1l0.2-0.4l-0.1-2.2l-0.9-2.9l1.7-3.2l1.8-0.6l-0.3-0.8l0.9-0.3l1.7,0.2l1.3,1.5l3.4,0.9h1.9l0.3-0.2
		l0.1-1.1l0.8-0.9l-0.4-0.9L449,210l-0.5-0.8l-3.6-0.6l0.5-1.1l-3.3-1.9l-0.8-0.9l-0.6-3.4l-0.4-0.4l-2.1-0.1l-0.8-0.7l-1.1-0.1
		l-0.8-1.8l-0.2-2.5l1-2.9l-0.4-0.6l-0.9-0.1l-1.4-1.1l-1-3.1l-2.7-2l-4.5-4.8V180l2.4-2.4l1-2.7l0.9-0.9l3.5-0.3l2.6-1.7h3.2
		l1.1-2.2l1-0.8l0.8-2.2l-0.4-5.1l-2-1.5l-0.6-0.1l-0.7,3.1l-0.6,0.1l-2.8-2.1l-0.3-3.3l1.8-3l1.2-1l1.2,0.4l2.1-0.9l2.2,0.1
		l0.6-0.5l-0.2-2.3l0.3-0.8l1.7-2.6l0.5-2.3l1.1-0.6l3.7-0.3l5.5,0.9l1.9-1.3l1-0.1l1.1-0.8l0.3-0.6l0,0l0.8-0.2l0.2,0.9l0.8,0.3
		L464,145.3z"/>
	
		<pattern  id="SVGID_00000151506904692370299900000016175262906856789644_" xlink:href="#Nueva_muestra_de_motivo_6" patternTransform="matrix(1 0 0 -1 -349 -16301)">
	</pattern>
	
		<pattern  id="SVGID_00000100349689834971108860000010297043993796376992_" xlink:href="#Nueva_muestra_de_motivo_1" patternTransform="matrix(1 0 0 -1 -349 -16301)">
	</pattern>
	
		<path style="fill:url(#SVGID_00000151506904692370299900000016175262906856789644_);stroke:url(#SVGID_00000100349689834971108860000010297043993796376992_);stroke-width:1.5;stroke-miterlimit:10;" d="
		M540.5,393.9l1.2-2.2l0.3-1l-0.5-0.7v-0.9l0.7-0.6l1.2,1.2l1,0.4l-0.6,1.3l0.6,2.7l0.6,0.9l2,1.5l1.3-0.4l1.4,0.8l1,1.9l1.4,0.1
		l-0.5,0.9l0.7,0.4l2.5-0.8l1.4,0.5l1.2-0.2l2,0.5l0.5,0.4l1,3.8l-0.2,1.3l-0.8,1.1l-1,2.6l-0.7,0.7l0.3,0.7l-0.2,1.2l2.2,4.4l2,0.6
		l1.3-0.6l2.9-0.2l3-2.1l3.7-0.9l1.2-1.1l0.4,0.1l1.4,0.8l-0.2,0.7l-1.5,0.7l-0.2,1.1l3.4,4.4l3.5,2.8v1l0.6,0.6l-0.3,1.4l28.4,1.8
		l0,0l-0.3,0.9v2l-0.8,1l-0.8,3.5l-2.9,2.6l-2.2,6.3l-0.1,0.9l1.2,2.9l-0.5,1.5l0.1,2.1l0,0v0.4l-2,0.9L601,452l-0.5-0.4l-0.7,0.1
		l-0.8-0.9h-0.9l-0.9-1.5l-1.1,0.4v1h-0.7v0.6l1.1,1l4.4,0.3l3.1,2.3l0,0l-0.2,0.6l0,0l-4.7-2.1l-3-0.9l-7.6-1.1l-0.2-0.5l2.6-0.9
		l0.7-0.6l0.4-1.1l-2.4-0.8l-1.3,0.9l-0.4,0.8h-1l-0.3,0.6l-0.5-0.1l-0.1-0.4l1.1-0.9l-1.1-0.9l0.2-0.6l-1.4-1l-1.7,0.4l-1.3,2.2
		h-1.3l-0.9,0.8l0.2,0.9l-0.6,0.1l-0.4,0.8h6.3l1.8,0.2l0.1,0.3l-3.6,0.1l-4,0.7l-1.8-0.2l-0.2,0.6l-2,0.2l-0.5,0.5h-0.6l-0.2,1
		l-2,0.9l-0.3,0.5l0.2,0.8l-1.4,0.5l-0.2,0.5l-1.5-0.2l-0.1,0.6h-2l-0.1,0.5l-2,0.9l-2.4,0.3l-1.3,0.9l-3.8,1l-2.7,1.3v0.3l-1.5,0.4
		l0.2,0.3l-3,1.4l-4.5-0.3l-1.9,1h-1.6l-3.5-1.5l-4-0.6l-1.5-1l-2.4-0.8l-0.8-0.5l-0.3-0.8l-3.8-1.7l-3.3-0.6l-2,0.1L518,458
		l-0.7,0.2l-2.6-0.4l-0.4,0.4l-2.4-0.4l-5.7-3.7l-5.4-2.9l-4.7-0.8l-3.8-1.4l0,0l4.6-3.5l0.5-2l4.1-3.6l0.2-1.4l0.9-0.7l1.2-0.2
		l0.9-0.9l0.9-2.9l-0.4-1.5l-0.4-0.5l-1.2-0.3l-0.3-0.6l0.1-1.9l-0.5-1.2l-2.3-0.8l-0.6-0.5l0.2-2.1l0.9-0.8l-0.6-4.6l-2.7-6.1
		l0.2-1.4l1.7-4l0,0l1.2-1.4l2.1-1.4l1.6-0.4h3.5l1.5-0.6l2.2,1.6l1.2,0.4l0.7-0.2l1.8-1.6l-0.1-0.4l-2.3-1.6l-0.4-0.8l2-4.3
		l1.6-0.7l1.6-0.2l0.5,0.3l0.2,1l-0.1,0.5l-1.3,0.9l0.1,0.4l1.3,1l0.7,1.1l1.4,2.8l0.4,1.6l0.8,0.7l0.9-0.9l0.9-1.9l2.6-2.6l1.4-0.3
		l3.7,0.9l1.8-1.5l0.1-0.9l0.3,0.6l1.4-0.9l2.4-0.5l1.9-3.5L540.5,393.9z"/>
	
		<pattern  id="SVGID_00000008836753652895401030000003020329986284815765_" xlink:href="#Nueva_muestra_de_motivo_6" patternTransform="matrix(1 0 0 -1 -349 -16301)">
	</pattern>
	
		<pattern  id="SVGID_00000070800372510596431870000010765431901130918540_" xlink:href="#Nueva_muestra_de_motivo_1" patternTransform="matrix(1 0 0 -1 -349 -16301)">
	</pattern>
	
		<path style="fill:url(#SVGID_00000008836753652895401030000003020329986284815765_);stroke:url(#SVGID_00000070800372510596431870000010765431901130918540_);stroke-width:1.5;stroke-miterlimit:10;" d="
		M508.5,336.4l0.7-2.6l1-0.8l0.1-0.8l0.9-0.9l0.3-1l1.2,0.4l2-0.3v1.8l-1.2,0.8l0.2,0.3l0.9-0.2l0.8,0.6l-0.4,0.8l0.2,0.8l0.8,0.8
		l2.2,1.2l0.5,1.1l-1.5,2.5l-1.6-0.9l-1.2,0.8l0.1,4l0.5,2.4l0.7,0.5l2-0.2l0.9,1.8l0.6,0.2l1.6-1.4l1.2-2l0.8-0.7l7,2.5l0.1,0.5
		l-2.2,3l-1.7,4.3l-0.2,0.8l0.3,1l-0.3,1l-0.7,0.9l-1,2.6l-0.6,0.2l-0.3,0.7l1.4,3l-0.5,1.4l0.3,0.4l1.4,1l3.6,0.8l2.9,1.3l0.5,0.6
		l0.1,1.3l-0.2,0.7l-0.5,0.1l-4.8-0.2l-0.2,0.9l0.5,6.1l-0.1,0.5l-1.9,2.4v3l0.4,1.1l0.8,0.7l3.8,1.1l-0.2,0.8l1.9,3.1l1.4,0.1l1-1
		l1.4-0.8l2.6,0.8l1.8,2.2l0,0l-0.8,0.8l-1.9,3.5l-2.4,0.5l-1.4,0.9l-0.3-0.6l-0.1,0.9l-1.8,1.5l-3.7-0.9l-1.4,0.3l-2.6,2.6
		l-0.9,1.9l-0.9,0.9l-0.8-0.7l-0.4-1.6l-1.4-2.8l-0.7-1.1l-1.3-1l-0.1-0.4l1.3-0.9l0.1-0.5l-0.2-1l-0.5-0.3l-1.6,0.2l-1.6,0.7
		l-2,4.3l0.4,0.8l2.3,1.6l0.1,0.4l-1.8,1.6l-0.7,0.2l-1.2-0.4l-2.2-1.6l-1.5,0.6h-3.5l-1.3,0.5l-2.1,1.4l-1.2,1.4l0,0l-1.6-0.8
		l-1.6-2l-1.5,0.1l-0.9,0.9l-0.5-0.3l-1.4,0.3l-0.1-1.1l-4.2-1.8l0.8-1l-0.2-0.8l-3,0.2l-1.2-2.3l-1.4-0.6l-1.4-1.2V396l0,0l2.8-1.9
		l0.6-1l1.2-0.6l0.8-1.3l0.5-0.1l2.8,2.6l0.5-0.7l-1.3-7.7l2.8-7.1l0,0l-0.1-4.4l-1-3.6v-1.1l0.5-0.6l-0.4-1.8l0,0l0.7-0.3l1.2,0.4
		l3,2.3l1.3,1.4l0.5,1.4l1.2,1.3l4.1,2.2l0.9-0.1l3.1-2.7h0.6l1.5,1h0.8l1.2-0.8l1.4-2.3l0.8,0.3l2.7-0.5l0.8-0.5l0.3-1.1l-0.9-0.2
		l-0.7-0.6l-0.3-1.2l-1.2-1.2l-0.6-0.4l-1.5,0.5l-0.8-0.2l0.1-1.7l-4.1-3.4l-0.7-1.1l-0.5-0.1l-1.5,1.8l-0.6,0.2l-2.1-0.4l0,0
		L502,356l1.5-3.1l0.8-4.8l-0.5-2.2l-2.1,0.5L501,345l3.6-1.9l0.9-1.4l2.9-2.5L508.5,336.4L508.5,336.4L508.5,336.4z"/>
	
		<pattern  id="SVGID_00000158724968985355468360000009700604752941413557_" xlink:href="#Nueva_muestra_de_motivo_6" patternTransform="matrix(1 0 0 -1 -349 -16301)">
	</pattern>
	
		<pattern  id="SVGID_00000088126350706740277120000005769368146003751340_" xlink:href="#Nueva_muestra_de_motivo_1" patternTransform="matrix(1 0 0 -1 -349 -16301)">
	</pattern>
	
		<path style="fill:url(#SVGID_00000158724968985355468360000009700604752941413557_);stroke:url(#SVGID_00000088126350706740277120000005769368146003751340_);stroke-width:1.5;stroke-miterlimit:10;" d="
		M481,318.6l-1.3,3.1l-4.1,1.3l-1.2-0.7l-1.6,1.4l0.3,1.1l-0.8,1.6l-0.5,2.2l-0.8,1.2l-1.2,0.4l-1.1,2.6l0.6,2l-2.3,1.6l-2.9,0.7
		l-0.9,0.7l-1.6,0.5l-1,6.5l0,0l-1.1,0.8l-0.4,0.7l0.2,0.7l-0.7,0.1l-0.9-0.6l-0.2,0.3l0.5,1l0.3,1.7l-1.9,2l-2.5,0.3l0,0l-3.3-3
		l0.2-0.8l-1.2-1.9l-1.5-1l0,0l-0.7-1.7l-2-1.4l-1.1-1.9v-2.7l-0.6-1.7l-1-0.7l-0.1-0.8l0.6-3.8l0.7-1.4l4.6-0.3l1.5-0.7l2.7,0.4
		l0.7-0.4l0.2-1.1l0.8,0.5l0.7-1.6l-0.1-1.5l2.3-3.3l1.5-0.6l1.7,1.8l1.1-0.2l0.6-1l1.5-0.7l0.7-1.4v-1.2l-2.5-0.6l1.1-1.9l0.1-2.1
		l-0.5-0.5l0,0L462,312l1.5-0.4l-0.3-0.5l0.2-0.5h1.1l1.5,1l0.6,1.9l0.6,0.7l2.5,0.3l1.9-0.5l0.6,0.4l1.1-2.8l0.6-0.4l0.8,0.2
		l0.5-0.3l1,2.2l3.2,3.4l0.8,1.5L481,318.6z"/>
	
		<pattern  id="SVGID_00000134953093180994220730000004239194095378177446_" xlink:href="#Nueva_muestra_de_motivo_6" patternTransform="matrix(1 0 0 -1 -349 -16301)">
	</pattern>
	
		<pattern  id="SVGID_00000073002868893160892160000002084760752436175240_" xlink:href="#Nueva_muestra_de_motivo_1" patternTransform="matrix(1 0 0 -1 -349 -16301)">
	</pattern>
	
		<path style="fill:url(#SVGID_00000134953093180994220730000004239194095378177446_);stroke:url(#SVGID_00000073002868893160892160000002084760752436175240_);stroke-width:1.5;stroke-miterlimit:10;" d="
		M786.8,337.2l-1.1,2.6l-1.1,1.5h-0.3l-2.6,3.4l-1.6,1l-0.7-1.7l0.1-1.9l2.3-3.8l0.7-0.4l0.7,0.8l0.3-0.3l0.5,0.3l1.5-0.4
		L786.8,337.2L786.8,337.2z M726.8,406.6l-0.3-2.5l2.4-2.8l0.6-1.3l-0.3-4.7l-0.5-1.4l0.6-1.7l-0.8-0.5l0.5-1.4l-0.2-0.7l-1-1.2
		l-0.2-1.3l0.8-5.1l-0.2-2.5l0.4-0.7l1.2-0.7l0.2-5.9l-3.4-4.7l-5.3-4.3l-1.3-1.8l0,0l0.9-2l0.3-1.5L721,357l0.6-0.5l3.5-0.2
		l1.4-1.4l2.4-1h2.4l1.2-0.4l1.9-1.8l1.1,0.9l0.3-0.3l-0.3-0.7l1.9-1.6l1.8-1l5.5-2l0.5-0.5l0.8-2.4l0.5-0.4h1l0.9,1.7h0.4l-0.3-2.2
		l1.5-2.8l1.2-0.6l1.1,1l1.5-0.4l1.5,0.1l3.1-1.8l3.1-2.7l1.7-0.8l0.9-1.2l0.3-1.6l0.9-1.1l0.5-2.5l1.2-2l0.1-1l-1.3-3.2l0.5-3.2
		l0.9-0.9l0.1-0.8l-0.3-5.3l0,0l1.3,0.1v0.4l0.6,0.3l0.7-0.3l2.1,0.6l0.3,0.4l0.7-0.3l1.6,0.2l0.4,0.4l0.3-0.5l2.7-0.9l0.2-2
		l-0.6-0.3l0.6-0.8l0.5-0.2l0.4,0.5l1.4,0.4l0.6,0.8l0.3-0.2l0.5,0.5v0.8l1.6,2.2l1,4l0.4-0.1l0.2-1.6l0.7-0.7l-0.1-0.9l-0.7-1.1
		l0.7,0.2l0.1,1.7l-0.6,1.6l0.4,1.2l-0.2,1.4l0.2,0.8l1.2,0.9l-0.7,2.5H785l-0.3,0.7l-1.3,4l-1.2,1.1l-1.1,1.6v0.5l-1.2,0.7
		l-0.3,0.8l-1.9,2.2l-3.9,3l-1.7,2.4l-1,2.5l-1.5,1.7l-1.4,4v1.9l0.6,1.9l0.4,0.1l0.2,1.1l-0.6,1.4l-0.8,0.8l0.4-0.9h0.4l0.6-1.3
		l-0.1-0.6l-0.6-0.4l0.1,1.3l-1,1.8L767,357l-0.3-0.4l-0.9,0.5l-1.6,2.7l-2.4,0.4l-0.2,1.9l1,0.7l0.2,0.6l0.7-0.3l-0.1,0.8l0.4,0.1
		l-0.3,0.7l0.6-0.1l0.9-1.3l1.6-0.3l0.6,0.6l0.8-0.8l-0.3-0.4l1.7-0.2l0.5,0.8l-0.7,2.5l-2,1.9h-0.5l0.1-0.8l-2.5,1.5l-0.6,1.7v1.3
		l-0.7,0.8l0.4,0.1l-0.1,0.7h1.4l2-2.8l0.8-0.4l0.5,0.2l-0.3,1.4l0.3-1.1l1-0.1l-2.2,2.6l-0.3,3.2l-2,4.1l-1.1,4.8l-0.9,1l-0.8,4.8
		l-0.5,0.9v2l-1.4,2.3l-0.6,3.3l-0.7-0.5l-0.6,0.1v-0.7l0.6-0.4l-0.1-1l-0.4,0.1l0.4-1.5l-0.5-0.3l-0.2-0.6l-0.8-0.2l0.2-1l-2.6-0.8
		l-1-1.2l0.7-0.5l0.3-2l0.9-1.7l-0.5-0.5l0.4-1.2l-0.4-1.4l-0.7-0.6l0.2-0.9l-0.8-0.3l-2.3,3.6l-1.1,0.4v0.3l1-0.4l-3.2,5.9
		l-2.3,0.1l-0.2-0.3l-1.1,0.4l-1.2-0.3l-0.9,0.8l-0.9,3l-1.1,1.1l-0.5,2l-1.1,1.4l-1.2,2.9l-1.4,0.8l-0.6,1.4l-1.6,1.3l0.1,1.6
		l-0.9-1l-0.9-0.4l-0.6-1h-1l-1-1.2l-1.8,0.4L726.8,406.6L726.8,406.6z M777.1,310.7l-0.2,0.5l-2,1.2h-1.5l-0.6,0.4l-0.9-0.5
		l-0.5-0.8l1.7,0.6l1.4-0.1L777.1,310.7L777.1,310.7z"/>
	
		<pattern  id="SVGID_00000147915421858317167400000006245353315834319758_" xlink:href="#Nueva_muestra_de_motivo_6" patternTransform="matrix(1 0 0 -1 -349 -16301)">
	</pattern>
	
		<pattern  id="SVGID_00000079487706473943888740000004766326982337103500_" xlink:href="#Nueva_muestra_de_motivo_1" patternTransform="matrix(1 0 0 -1 -349 -16301)">
	</pattern>
	
		<path style="fill:url(#SVGID_00000147915421858317167400000006245353315834319758_);stroke:url(#SVGID_00000079487706473943888740000004766326982337103500_);stroke-width:1.5;stroke-miterlimit:10;" d="
		M436.1,231.5l1.7,2.3l1-0.2l1.4,0.5l-0.5,1.6l0.7,0.3v0.3l-1.2,1.6l0.3,0.8l1.8,1.7l-0.1,1.4l2.5,3.1l0.9,2.3l-0.2,4.4l1,1.5
		l0.1,0.9l-1.1,5.6l0.5,1.3l0.3,4.1l0.6,1.6l1.2,1.5l1.5,0.7l2.3-2.8l3.9,0.7l0,0l0.9,1.1l0.1,2.1l1,0.8l0.5,1.1l-0.3,3.6l0.2,3
		l0.2,0.7l1.1,0.9l4.2,1.4l3.3,0.3l2.2,0.7l0.6-0.4v-1l1-0.6l0.6,0.3l0.8,1.3l1.7,0.6l1.4,1.1l0.8,1.2l0.9,2.5l2.2,2.9l1.8-0.2
		l2,0.4l2.3-0.1l0.7-0.8l1.9,1.2l2.1-0.5l1,0.2l0,0l0.3,0.9l0.5,0.3h2.4l4.4,1.4l0.7,0.7l1.2,3.6h-2.5l-1.1,0.7l0.3,2.5l-0.3,0.7
		l-0.4,0.3l-2.2-0.3l-0.3,0.4l0.4,0.4h1.1l-0.6,0.5l0.4,0.3l-0.1,1.2l0.6,0.7l0.5-0.1v0.5l1.2,1.1l-1.9,0.6l-0.3,0.8l-1.1-0.1v0.7
		h-1.3l-0.2,0.9l0.9,3.3l1.3,0.2l0.1,3.3l0,0h-1.7l-1.6,1.8l-1.3,3l-0.9-1.3l-1.4,2.4h-1.1l-1.3-1.1l-1.1-2.4l-2.3,0.8l0,0l-0.9-0.3
		l-0.8-1.5l-3.2-3.4l-1-2.2l-0.5,0.3l-0.8-0.2l-0.6,0.4l-1.1,2.8l-0.6-0.4l-1.9,0.5l-2.5-0.3l-0.6-0.7l-0.6-1.9l-1.5-1h-1.1
		l-0.2,0.5l0.3,0.5l-1.5,0.4l0.6,0.6l0,0l-2.6,1.3h-1.6l-0.7-0.8l-0.4,0.5l-1.8,0.2l-1.7-2.1l-0.5,0.1l-0.3-0.7l-3.1-2l-4-1.8
		l-1.1,0.7l-0.6,1.8l0.1,1.1l-1.5,0.6h-2.8l-2.7-1.4l-5-3.7h-1.1l-0.9-0.7l-4.6-1.1l-1.3-0.7l-2.9-0.3l-1.2-0.7l0,0l1.9-4l0.4-1
		l-0.3-0.2l0.1-0.5h0.4l0.4-1.6l-1.4-3.9l3.3-7.3l0.2-1.6l-2-2.6h-0.7l-1.5,0.7l-4.5,4.6l-2.4,0.7h-2.1l-1.5-2l-0.9-2l-1.1-0.6
		l-2.3-0.3l-1.1-1.3l-4.2-2.5l-0.9-1l-0.3-1.5l0.2-1.3l1.3-4l-1-3l0.5-1.7l-0.6-0.8l0.9-1.7l0.7-0.2l2.3,0.9l2.9-0.6l0.5-1.4l0.9-1
		l2.3-0.8l3.6-2.1l3.5-5.1l4.7-1.6l1.1-1.5l1.2-3l-1-1.2l0.8-3.4l0.6-0.6l1.9-0.5l1.4-0.9l0.9-1.8l0.2-1.5l0.7-0.5l1.6,0.1l1-0.5
		l0.7-1.7l1.2-1l0.4-1.8L436.1,231.5L436.1,231.5z"/>
	
		<pattern  id="SVGID_00000021106088909521902900000007733156435324213951_" xlink:href="#Nueva_muestra_de_motivo_1" patternTransform="matrix(1 0 0 -1 -349 -16301)">
	</pattern>
	
		<path style="fill:none;stroke:url(#SVGID_00000021106088909521902900000007733156435324213951_);stroke-width:1.5;stroke-miterlimit:10;" d="
		M315.8,282.5l0.4,0.1l0.5,0.9l-0.5,0.7L315.8,282.5z M255.2,217.5l1.2,1.4l0.5-0.2l0.3,0.3v0.9l0.6,1.1l-0.3,2.7H257l-0.7-2.1
		l-1.1-1.2V217.5L255.2,217.5z M250.4,215.5l1.4,0.9l3.6,4.6l0.7,1.1v1.4l-0.4,0.2l-2.7-5.1l-2.8-2.6L250.4,215.5L250.4,215.5z
		 M249.9,213.2l1.8,1.2l0.2,0.6l-1.7-0.8L249.9,213.2L249.9,213.2z M228.4,182.6l1,0.1l0,0l0.5,0.4l-0.1,1l-0.4,0.3l1.8,1.5
		l-0.4-1.1l0.8-0.6l-0.2-0.5l-0.3,0.3l-0.5-0.3l-0.9-1.8v-0.7l0,0l-0.1-1.6l0.3-0.2l0.2,1.9l0.4,0.2l0.5-0.9l0.8,0.9l0.1,0.8
		l0.5-0.1l-0.1,0.8l0.3,0.4l2.9-1.7l1.3-1.2l2-0.6l0.1-2.5l0.5-0.9l4.1-1l2.1-3.9l1.9-0.6l-0.3-2.5l3.1-3.9l0.3-1.8l0,0l4.9-0.2
		l0.7,0.4l0.1,2.9l0.6,0.2l1.2-0.3l1,2.3l-0.4,2.3l0.5,0.8l-0.5,2l0.3,1.1l1.4,0.9l0.1,1.9l3.1,5l1.2,4.7l3.8,1.1l3.2,0.3l2.4,0.7
		l2.9,4.9l0.6,3.2l2.1,2.8l0,0l0.1,0.7l0.7-0.2l0.2,0.7l-1.2,0.8l-1.7,2.2l0.6,0.7l0.5-0.1l0.1,0.7l-1.3,3.2l-0.1,5.1l-0.5,2l1,0.6
		l0.5,1.8l0.8,0.6l1.2,2.4l-0.3,1.4l1.2,0.9l0.5-0.4l2.3,0.2l0.9,2.6l1.3,0.3l1.2,4.5l0.6,0.2l0.6-0.4l0.2,0.3l0.8,4.1l1,1.4
		l0.6,1.9l0.8-0.2l0.7,0.5l0.7-0.6l1.3-0.2l2.8-2.1l0.7-1l4,1.2l1.5,1l0.9,1.4l1.1,0.3l0.1,1.1l1.7,2.3l0.1,2.2l1,0.9l-0.3,0.9
		l0.8,2.6l0.7,1.1l0.6,2.9l1.1,1.2l0.9,2l1.7,1.6l0.4,2.8l1,2.9l-0.3,0.9l0.7,1.7l1.2,1.3l0.1,2.3l0.6,1.3l2,0.1l0.9-0.6l0.6,0.1
		l2.1,2.2l0,0l-0.8,0.6l-0.6,3.4l-1.7,2.1l-0.3,1l0.5,1.3l1.3,1.3l0.2,1.3l0.4,0.4l0.2,2l-0.4,0.9l-3.5-0.6l-2.1-1.2l0,0l0.2-1
		l-1.5-1.6l0.3-0.6l0.7-0.4l-0.7-0.6l-0.5,0.7l0.5,1.9l0.5,0.5l-0.6,1.7l0.5,1.7l-0.4,0.6l-3.7-5.8l-3-2.9l-1.8-1.1l-4.2-5.2
		l-4.7-4.6l0.4-0.3l1.1,1.3l0.1-0.3l-1.5-1.1l-0.5,0.2l-0.2,0.6l-0.4-0.3l0.1-0.7l-0.7-0.5l-0.9-1.6l0.3-0.4l-1.3-2l-2.5-2.5
		l0.1-0.4l-1.4-1.2l-0.6-1.1l-2.6-1.9l0.4-0.5l-2.2-3.4l-0.2-1.2l-7.4-7l0.9,0.2l0.3-0.4l-0.5-0.3l0.1-0.8l-0.6-0.1l-0.2,0.5
		l-0.5,0.2l-3.8-3l-1.4-0.3l-5-4l-4.6-2.9l0.2-0.6l0.6,0.7l3.1,1.7l0.5,0.7l1,0.1l0.5,0.8l0.6-0.1l0.8,1.1l0.5-0.1l-0.5-0.6l0.1-0.7
		l0.7-0.2v-0.4l-0.3-1.2l-1.5-2H268l0.1,1.4l-1.1,0.2l-1.1-1.4l-0.6,0.5l-1-0.2l-0.2-0.9l-1.6-1.5l-2.1-0.9l-0.3-0.5l-0.6,0.4
		l-1.1-0.5l-0.8-1.1l0.1-1.1l-1.4-1.6l0.6-0.3l1.2,1.2l0.7-1.2l-0.6-0.4l-0.2-0.8h-0.3l0.1-0.9l0.5-0.5l-0.7-0.3V221l0.5-0.6
		l0.1-0.8l-1-0.7l-0.3-1.9l-0.5-0.7l-1.5-1v0.5l-0.9-0.2l-1.9-1.7l-0.3-0.8h-1.6l0.1-1.1l-1.3-0.6l-0.6,0.8l0.3,0.6l-0.4,0.6
		l-1.9-2.1l-5.4-2.7l0.5-0.6l-0.4-0.5l-1.3,0.4l-1.5-2.3l0.7-1.3l-0.4-0.6l-1.2,0.4l-0.4-1l-1.3-0.1l-0.4,0.2l0.2,0.6l-0.2,0.7
		l0.5,0.3l-0.7,1.1l-0.5,0.2l-0.1-0.6l-0.4-0.1l0.2-0.4l-0.8-0.3l-1.2,0.2l0.3,0.8l-0.8,0.2l-1.8-2.1l1.2-0.2l0.4-0.4l0.1-0.8
		l0.9,0.9l0.9-0.4l0.2-1l0.7,0.1l0.5-0.5l-0.3-1.3h-1.1l-1,0.6l-0.9,1.8l-1.6-0.5l-0.2,0.5l-0.6-0.1l-0.4-1.1l-1.7-1.6l-0.5,0.4
		l1.6,1.2l0.1,0.8l-1.6-1l-2.9-0.5l-0.2-0.3l2,0.3l0.1-2h-0.5l-1.6-1.3l-1.1,0.3l-0.4-0.7l0.2-2.7l0.2-0.1l-0.4-1.1l-0.4-0.2v-0.7
		l0.7-2.1h0.4v-0.8l2.1-3.4l0.7-2.4l1-1.1l0.3,0.1l-0.2,1l-0.9,0.3l-0.6,2.7l0.4,0.6l0.3-0.2l0.4-1l-0.3-0.6l0.2-0.3l0.3,0.5
		l0.8-1.7L228.4,182.6L228.4,182.6z"/>
	
		<pattern  id="SVGID_00000084490068591863450710000017528386983666964648_" xlink:href="#Nueva_muestra_de_motivo_6" patternTransform="matrix(1 0 0 -1 -349 -16301)">
	</pattern>
	
		<pattern  id="SVGID_00000070807525339740254970000017569935213074457218_" xlink:href="#Nueva_muestra_de_motivo_1" patternTransform="matrix(1 0 0 -1 -349 -16301)">
	</pattern>
	
		<path style="fill:url(#SVGID_00000084490068591863450710000017528386983666964648_);stroke:url(#SVGID_00000070807525339740254970000017569935213074457218_);stroke-width:1.5;stroke-miterlimit:10;" d="
		M229.4,182.8l-1-0.1l0,0l0.1-0.5h0.5L229.4,182.8z M227.8,182.1l0.1-1.5l0.2,1L227.8,182.1L227.8,182.1z M194,153.7l0.6,0.9
		l-0.2,0.3l1.3,0.6l-0.3,0.4l-1.5-0.9L194,153.7L194,153.7z M152.3,101.2l0.5,1.6l-0.3,1.1l1,1.2l1,2.6l-0.4,0.4l-0.1,1.4l-1.5,4
		l-0.1,1l-0.7,0.6l-0.5-0.5l-0.8,0.1l-1.2-1.1l-1.3-0.1l-0.3-0.6h-0.5l-0.1-0.4l-2-1.1l1.7-1.2l0.6-0.9l-0.4-3.3l0.7-3l0.6-0.9
		l1.3,0.2l1-0.9L152.3,101.2L152.3,101.2z M93.8,28.8l0.8,0.1l-0.1,0.6L93,29.1v-0.4L93.8,28.8L93.8,28.8z M90.2,27l1,0.5l0.7,1.4
		l1.3,1l0.5,1.1l-0.3,0.7l-0.8-0.6l-0.7,0.1l-1-0.5L90,29.8l-0.4-1l0.2-1.4C89.8,27.2,90.2,27,90.2,27z M239.5,41.1l1.1,1l-0.9,1.3
		l0.5,1.9l1.6,2.8l0.2,1.6l-0.5,1.3v1.8l-1.6,0.1v0.6l2.7,2.7l0.1,2.4l1,0.9L243,61l0.1,0.8l1.1,1.5l-0.1,1.2l1.9,6.2l-0.3,1.8
		L245,73l0.2,1l1.4,1.3v1.1l-1.3,2.6l-0.6,4.9l0.3,1h0.6l0.8,1l0.7,6.2v2.6l-0.8,0.9l-0.2,0.9l0.3,5.7l-0.3,0.5l-1.4,0.7l-0.1,2.7
		l-1.5,1.3l0.5,2.5l-0.9,1.3l0.8,2.7l-1.5,2.6l-0.2,1l0.8,1.9l-0.4,2.9l1.6,1.8l2.3,0.9l-0.6,1.2l-0.9,0.1l-1,1.2l-1.1,0.1l-1.4,1.1
		h-0.5l-1.8-1.3l-0.8-0.1l-1.4,0.9l-2.5,0.5l-1,1.4l0.2,0.6l1.6,1.1l-0.6,2.8l0.4,0.7l1.8,0.7l2.1,3l0.4,1.7l-0.7,2.4l0.5,0.6
		l2.8,1.7l0.6,2.1l1,1.4l1.6,4.1v1.7l-1.3,3.1l0.5,3.4l-0.7,0.4v0.5l3.5,1.8l2-0.6l1.8,0.4l0,0l-0.3,1.8l-3.1,3.9l0.3,2.5l-1.9,0.6
		l-2.1,3.9l-4.1,1l-0.5,0.9l-0.1,2.5l-2,0.6l-1.3,1.2l-2.9,1.7l-0.3-0.4l0.1-0.8l-0.5,0.1l-0.1-0.8l-0.8-0.9l-0.5,0.9l-0.4-0.2
		l-0.2-1.9l-0.3,0.2l0.1,1.6l0,0h-0.4l-0.2,0.5l-1.3-1.7l0.1-1l-1.4-2.4l-2.3-2.6l-1.4-1l-0.9-0.1l1.1,0.2l0.1-0.4l-0.4-0.9h-0.6
		l-0.4-0.8L221,172l-0.1-0.6l-0.4-0.1l-0.7,1.1l0.4,0.8l-2.7-0.1l-0.5,0.6l-2.5-1l-1.2-1l-0.9-1.3v-1l-1-2.8l-1.4-1.9l0.2-0.1l1,1.4
		l0.2-0.9l-0.6-0.4l0.3-0.4l-0.3-1.6l-1.7-1.4l-0.3,0.4l-0.4-0.4l-1.1,1l-1-0.7l-5-1.2l-3.1-3l-1.4-0.7l0.3-0.2l-0.4-0.9l0.1-1.3
		l-0.6-0.4l-0.5,0.4l-0.7-0.5l-0.1-1.3l-0.4-0.1l-0.4-0.8l0.3-2.1l-0.6-1.2l0.2-0.4l-0.8-0.8l0.1-0.8l1.4-1l-0.8-0.1l-0.2,0.8
		l0.2-1.5l0.7-0.4l-0.7-0.1l-0.3-1.1l0.5-0.4l-0.1-0.8l0.4-0.8l0.9,0.2l0.3-0.5l-1-0.8l-0.8-0.2l-0.5,0.5l-0.6-0.5l-3.9-0.9
		l-0.3-0.8l-1.6,0.9l0.6,0.9l-0.2,1.1l-1.2-0.4l-1-1l0.4-0.6l-0.6-0.1V138l-1.3-0.3l-1.3,0.8l-1.5-1.4l-1-0.3l-0.9-1.3l-1-0.3
		l-0.7-0.8l-0.2-0.9l-1.1-1.2l-0.1-0.9l-0.7-0.9l-0.4,0.1l-0.5-1.6h-0.4l-1.2-1.1l-0.1-1.4l-0.9-0.8l-5.4-2l-0.2-1.1l-1.2-2.6
		l-4-3.7l-0.5-1.3l0.6-0.1l0.5-0.6l0.5,1.2l0.6-0.4v-0.8l-0.6-0.5l-0.5,0.4l-0.5-0.7l-0.3,0.2l-1.3-1l-1.2-0.3l-0.4-1.1l-1-0.8
		l-0.3-0.7l-1.9-0.6l0.6-0.7l-0.4-0.8l-0.1-1.3L154,106l0.5-1l-0.5-1.1l-0.4-0.1l-0.1-0.6l-0.7-0.1l0.5-1.8l-0.6-1.8l-0.6-0.6h-1.3
		l-0.8,0.4l-1.7-0.9l-0.2-1.1l1-2.8l-0.3-0.6l-1-0.5l-0.2-1.2l-1-0.8l-1.7-2.8l-0.9-0.7l-0.6-1.9l-1.1-1.6l-0.3-1.6l-1.2-0.6
		l-0.6,0.2l-0.2-0.3l0.4-2.5l-0.6-1.5l0.1-3.5l-0.5-1.4l-1.9-1.9l-0.1-3.1l-1-2l-2.4-2.1l-2.5-4.7l-0.9-3.4l0.7-2.3l0.1-3l0.3,0.1
		l0.7-1l0.1-1.1l-0.5-2.8l-0.3,0.1l-0.2-0.8H131l-2.3-1.4l-0.7-1.1l-0.8,0.7l-3.9-0.9l-0.2-0.3l-0.3,0.2l-2.6-0.5l-0.1-0.5l-0.6-0.3
		l-1.3-0.2l0.2-1.5l-0.6-1.6l0.1-0.8l-0.5-0.9l-1.2-1l-4.3-1.8l-0.1-0.6l-0.4,0.1l-0.2-0.5l-0.4,0.6l-0.8-0.5l-0.6,0.7l-0.2,0.6
		l0.3-0.1l0.2,0.5l-0.7,1l-0.7-0.1l-0.4,1.2l-2.8-0.1l-3.1-1.4l-1.4-1.5l-2.9-1.6L97.3,31h-1.2l-2.4-2.3l-2.2-0.1L90.2,28l-1-1.2
		h-0.8l0,0L84.7,24l-0.9-0.1l-1-1l0.6-1l-0.2-1l0.4-2.7l-0.3-1.1l0.6-1.8l-1.4-2l1.8-2.4l0.1-1.3l0.5-0.5L85.4,7h1.3l0.5,0.4L88,6.9
		l0,0l92.8,34C182.2,41.2,239.5,41.1,239.5,41.1z"/>
	
		<pattern  id="SVGID_00000047035333661113543570000017548420272826805151_" xlink:href="#Nueva_muestra_de_motivo_6" patternTransform="matrix(1 0 0 -1 -349 -16301)">
	</pattern>
	
		<pattern  id="SVGID_00000002373704951715812110000009561063018664661422_" xlink:href="#Nueva_muestra_de_motivo_1" patternTransform="matrix(1 0 0 -1 -349 -16301)">
	</pattern>
	
		<path style="fill:url(#SVGID_00000047035333661113543570000017548420272826805151_);stroke:url(#SVGID_00000002373704951715812110000009561063018664661422_);stroke-width:1.5;stroke-miterlimit:10;" d="
		M616.4,395l-4.1,1.5l-0.4,0.6l-1.9,0.2L616.4,395z M644.3,388.1l1.1,3.7l0.6,0.9l1.4,1h1l0.7,1.1l0.5-0.1l0.1-0.4l0.4,0.2l1.1,1.4
		l-0.2,2l0.5,0.3l1.1,2.6l1.2,1.8l3.5,2.3l0.9,1.4l1.3,0.7l1.5-0.1l2.2,1.1l1.3-0.6l1.7-0.1l0.3-0.7l-0.3-1.8l0.3-1.3l2.8-0.1
		l3.7,0.8l1.6,1.5l1.6,0.7l0.8,0.9l0.7-0.4l4,1.6v1.6l0,0l-0.2,14.4l-10.5,0.2l0,0l0.5-1l0.8-0.3l-1.1-1.8l-1.3-0.4l-0.2-0.8
		l-4.3-1.2l0.8-2.7l-1.3-3.3l-2.6-1.3v-2l-1.1-1.4l-1.2,0.3l-1.2-0.2l-0.6,0.4l-0.6-0.3l0.1-0.6l-1.5-0.4l-0.7,1.8h-2l-1.8-0.5v0.4
		l-0.4-0.1l-0.1,0.4l0.4,1.8l-0.4,0.8l-3.3,1.2l-0.6,0.8l-5.8,4.3l-2.4,2.3l-1.9,0.8l-0.8-0.3l-0.7-0.9v-0.7l-1.2-1.9l-0.5-0.2
		l-0.4,0.4l-1.3,0.1l-0.4-0.3l0.3-1.9l-2.1-2.2l-0.4-0.9l0.1-0.6l1.4-2.1l0.3-1.7l-2.8,0.1l-0.8-0.4l-1.4-1.7l-2.1-0.9l-0.5,0.6
		l-1.7,0.3l-0.8,7.1l-0.6,1.2l-1.2,0.8l-1.4,1.9l-0.1,1.6l-2.5,3.2l0,0l-1.9-0.8l-0.4-2.2l0.4-1l-0.2-1.3l-1.1-3.1l-0.4-0.5l-2.5-1
		l-0.4-0.6h-1.2l-1.4-2l-1.4-0.4l-1.1-1v-3l-0.6-1.5l-0.1-2.8l-0.5-0.4l0.9-0.9l0.9,0.5l0.2-0.3l-2.3-0.4l1.9-0.9l0,0l4.5-1.5
		l0.1,1.2l2.7-0.5l0.6-0.4l-0.3-1l0.7-0.4l1-0.1l0.2,0.4l0.8,0.1l1.3-0.2l0.6-0.6l-0.1-1.2l3.3-0.8l0.3,0.7l0.8-0.9l5.4-0.2l0.9,0.4
		l-0.7,0.6l0.1,0.9h0.8l0.8-0.4l0.1,0.3h0.7l0.4-0.6l-1.8-0.8l1.1-0.5l2.9,0.3l2.2-0.3l3-1.6l2.3-2.8L644.3,388.1L644.3,388.1z"/>
	
		<pattern  id="SVGID_00000056410896349884526740000000866547440702435223_" xlink:href="#Nueva_muestra_de_motivo_6" patternTransform="matrix(1 0 0 -1 -349 -16301)">
	</pattern>
	
		<pattern  id="SVGID_00000028307707771477808580000002850524981904539832_" xlink:href="#Nueva_muestra_de_motivo_1" patternTransform="matrix(1 0 0 -1 -349 -16301)">
	</pattern>
	
		<path style="fill:url(#SVGID_00000056410896349884526740000000866547440702435223_);stroke:url(#SVGID_00000028307707771477808580000002850524981904539832_);stroke-width:1.5;stroke-miterlimit:10;" d="
		M513.9,238.6l-0.2,4.5l-0.3,0.1L513.9,238.6z M520.7,212.4l0.5,0.2l-2.8,7l-0.3-1.4l0.3-0.9l0.6-0.5l0.1-1L520.7,212.4L520.7,212.4
		z M512,293.1l-2,1.4l-1.5-1.6l-0.4-1.1l-1.2-1l-1.4-0.2l-1.6-1.2l-1.1-0.4l-0.7-1.3l-2.5,0.3l-0.4,0.7l0.2,0.7l-2,0.4l-0.1-0.6
		l-0.4,0.2l-0.7-0.6l-1.1-0.2l-4.2,0.3l-1.8,1l0,0l-1-0.2l-2.1,0.4l-1.9-1.2l-0.7,0.8l-2.3,0.1l-2-0.4l-1.8,0.2l-2.1-2.9l-0.9-2.5
		l-0.8-1.2l-1.4-1.1l-1.7-0.6l-0.8-1.3l-0.6-0.3l-1,0.6v1l-0.6,0.4l-2.2-0.7l-3.3-0.3l-4.2-1.4l-1.1-0.9l-0.2-0.7l-0.2-3l0.3-3.6
		L456,270l-1-0.8l-0.1-2l-0.9-1.1l0,0l0.4-0.8l-0.5-1.4l0.8-0.7l3.1,0.4l0.2-1.8l-0.4-2.8l0.3-1l1.5-1.8l0.7-2.8l2.3-1.2l2.5,0.7
		l0.7-0.1l1.8-1l0.3-1.5l0.4-0.1l2.3,0.4l-0.8-2.3l-1.4-0.8l-1.4-3.6l-1.8-2.1l0.9-6.8l-1.3-2.6l-1.8,0.1l-0.2-0.3l0.7-2.1l2-1.4
		l2.9-1.3l1.3-2.1l1.8,0.1l1.1-1.6l1.1-0.5l0.4-1l0.4-0.1l0.4,1.5l1.1-0.4l0.5-1.6l0.9-0.7l0.9-0.1l0.4-1.7l-0.7-0.4l-0.6-2.2
		l0.3-0.4l1.3-0.4l1.5-2h0.5l0.6,1.2l2.8,0.2l0.8-2l1-1.1l4.4-0.9l1-1.1l0.8-0.1l1.4-1.4l1.3-0.6l0.6-1.4l1.5-1.6v-0.5l-0.4-0.3
		l-2-0.6l-1-0.8l0.4-0.8l-0.7-1.6l0.2-2.1l0.5-0.8l-0.6-1.5l0.3-3.3l-0.8-1l-0.1-1.5l-0.7-0.4l-3.4,0.7l-1.1-0.1l-2.7,1.5l-1-0.5
		l-1.2-2.3l-0.6-0.6l-3.3-0.5l-0.4-0.7l-0.8-0.5l0.9-0.3L478,186l0.4-0.7l-0.2-0.6l-0.6-0.1l-0.8,0.7l-0.7-0.1l-1.2-1.6l0.1-1
		l-1.4,0.1l-1.8-2.5l-1.3-4.1l-1.9-0.2l-0.9-1.9l-0.7-0.4l-0.9,0.4l-0.8-0.8l0.2-3.2l0.5-1.3l-0.5-0.8l-1.3-0.7l-1.5,0.1l-0.1-1.1
		l0.8-2.4l1.6-1.4l-0.4-3.2l-1.1-1.1l-0.2-1.4l0.2-2.5l-1.3-0.9l1.2-1.4V151l-4-0.2l-0.6-0.4l0.4-1.1l-0.3-0.8l0.6-0.7l2.8-0.8
		l1.3-1.7l0.6-0.3l0,0l0.2,0.3h1.3l0.1,0.7l0.7,0.2l0.2-0.4h0.8l0.7,1.1l0.3-0.3l0.4,0.2l0.7,1.2l-0.4,1.7h0.8l0.4,0.5l-0.3,2.9
		l-1,2l1,0.1l-0.1,0.9l0.3,0.3l0.7-0.2l0.4,0.6l0.4,1.9l-0.4,2l0.3,0.5l-0.5,0.7l0.2,1.2l0.8,0.2l0.8,1.2l-0.3,0.4l0.5,0.7l1.1,0.3
		l0.4,1.5l0.8,0.3l1,2.1l-0.1,0.8l0.9,1.1l0.5,2.4l0.4,0.2l0.1,2.4l1.2,0.6l0.7,1.2l-0.5,1.3l1,1l0.8-0.4l0.8,0.6l0.9-0.2l0.5,0.1
		v0.6l0.8-0.1l0.7,0.6l0.4-0.3h1.9l0.3,0.9l1.3,0.3l1.5,2l2.4-0.1v0.6l0.3-0.1l0.2,0.4l0.5-0.5l0.9,0.5v0.4l1.6-0.4v0.7l1.4,1.2
		l1.3-0.1v0.8l0.8,0.8l1.5,0.9l0.8,0.1l0.4,0.4l0.5-0.5l0.7,0.6l1.7-0.5l0.4,0.7h0.7l0.1-0.5l1.3-0.2l0.4,0.4l2.6-0.3l0.7,0.4
		l0.7-0.4l0.4,0.2l-0.2,0.5l0.8,0.2h2.9l1.1,1.9l0.5-0.1l0.5,1l0.4-0.3l0.7,1.4l1.9,0.6l-0.2,0.3l0.6,0.4l1.5-0.3l-0.1-1.7l0.7-0.6
		l0.5,0.3l0.2-0.4h0.9l0.1-0.5l1.6-0.3l1.4-0.1l0.3,0.3l-0.3,4.9l-1,3.8l-5.7,11l-0.8-0.3l1.8-3.1l-0.7-0.6l0.5-0.6l-0.4-0.6
		l-1.1,0.1l0.2-0.6l-1.5-0.2l-0.6-0.8l-1,1.1l0.7-0.1l0.7,1.1l0.2-0.2l0.3,1.1l-0.3,0.3l-0.2-0.5l-0.6,0.2l-0.4,0.8l0.3,0.2l0.3,1.2
		l-0.8,0.3L518,210l-0.8,0.6l-0.4-0.6v-1.1l-1.8-0.2l0.1,0.4l-0.9,0.8l0.5,0.8l-0.3,0.9l-0.5,0.1l-0.9-0.6l-0.2,0.6l0.6,0.1l0.7,0.9
		l0.3-0.2l0.6,0.3l-0.2,0.8l0.9,0.7l-0.8,1.1l0.1,1.3l-1.3,2.9l0.4,0.4h0.7l0.4,0.7l0.9,0.2l-1.5,1.1l-0.2,1H514v0.7l0.6,0.4
		l0.1,0.8l-0.5,3l0.4,0.1l0.3,0.8L514,233h-0.5l-0.3-0.5l0.1-1.4l-1,0.3l-0.9-0.6l0.2,0.9l-0.7,0.4l0.4,0.6l-0.3,1l0.9,2.2l0.4,0.2
		l-0.2,0.7l0.6-0.1l0.1-1.6l0.8-0.7l0.2,3.2l-0.7,6.4l-0.3,0.5l-0.2-0.1l0.3-0.6l-0.6-0.1v0.5l0.9,0.4v7.1l0.9,0.5v0.4l-0.4,0.3
		l-0.3,2.1l0.2,0.7l0.3,0.1l0.1-2h-0.3l-0.1-0.7l0.5-0.3l-0.9,9.5l0.3,10.9l-0.2,3.6l-0.5,0.6l-0.4,1.9l-1.3,1.5l-1,2.1l-0.2,1.2
		l1,0.7v2.8h-0.4v1l0.6,2l0.5-0.1l1.2,2.7L512,293.1L512,293.1z"/>
	
		<pattern  id="SVGID_00000181807701227400966620000011434880169441810101_" xlink:href="#Nueva_muestra_de_motivo_6" patternTransform="matrix(1 0 0 -1 -349 -16301)">
	</pattern>
	
		<pattern  id="SVGID_00000138564536563049950460000014699817526227206309_" xlink:href="#Nueva_muestra_de_motivo_1" patternTransform="matrix(1 0 0 -1 -349 -16301)">
	</pattern>
	
		<path style="fill:url(#SVGID_00000181807701227400966620000011434880169441810101_);stroke:url(#SVGID_00000138564536563049950460000014699817526227206309_);stroke-width:1.5;stroke-miterlimit:10;" d="
		M521.8,313.6l-0.7,2l-0.8,1l-0.1-1.5L521.8,313.6z M514.4,303.2l1.7,3.6l-0.5-0.1l-1-1.6L514.4,303.2L514.4,303.2z M516.4,304.2
		l1.9,2.4l5.3,4.9l-0.7,3.1l-1.7,4.1l-0.5,0.5l-0.2-2.1l1.8-3.4l-0.1-1.3l-1.8-1.6l-1.3-2l-2.8-3.1l-1.5-3.7l-0.5,0.1l0.1-0.8
		L516.4,304.2L516.4,304.2z M489.2,289.9l1.8-1l4.2-0.3l1.1,0.2l0.7,0.6l0.4-0.2l0.1,0.6l2-0.4l-0.2-0.7l0.4-0.7l2.5-0.3l0.7,1.3
		l1.1,0.4l1.6,1.2l1.4,0.2l1.2,1l0.4,1.1l1.5,1.6l2-1.4l0,0l0.6,5.4l1.7,4.5l-0.1,1l-0.4,0.2l0.6,1.4l0.4,3.3l0.8,0.9l0.1,1.1
		l1.8,3.3l1.5-0.3l0.5,0.8l-0.4,1.3l0.5,1.7l1,0.8l0.1,1.1l0.5,0.2l0.7,2.9l4.7,9.8l0.6,2.9l0.8,1.4l4.2,4.1l0.7,1.2l5.9,6.4
		l3.5,4.4l0.6,1.4l2.6,2.9l1.2,3.3l0.1,2l0.6,1.1l-0.1,1.1l1.5,2.1l-0.2,1.8l0.7,2.6l1.7,1.3l1.2,0.5l0.2,0.7l1,0.5l1,1.4l-0.3,0.6
		l0.2,0.9l0.8,0.7l2.4,0.3l0.3,2.5l0.7,1.8l0.9,0.9l3.5,1.7v0.7l-2-1.4l-1-0.1l-0.1,0.3l0.5,0.1v0.6l0.8,0.3l0.3,0.6l-0.1,0.2
		l-0.7-0.3l-0.3,0.3l0.2,0.5l1.2-0.1l-0.1-0.7l0.9-0.3l0.6,0.3l0.2-1.2l1.8,1.2l2.7,0.7l9.4,0.2l3,2.4l0.6,1.2l2.2,0.6l3.3,0.3
		l0.5,0.4l0.6,1.8l0.8,0.8l0.1,0.7l2.8,2.8l0.6,2.4l2.7,1.3l3.8-0.4l7.2-1.8l0,0l-1.9,0.9l2.3,0.4l-0.2,0.3l-0.9-0.5l-0.9,0.9
		l0.5,0.4l0.1,2.8l0.6,1.5v3l1.1,1l1.4,0.4l1.4,2h1.2l0.4,0.6l2.5,1l0.4,0.5l1.1,3.1l0.2,1.3l-0.4,1l0.4,2.2l1.9,0.8l0,0l-3.7,2.9
		l-2,0.9l-0.9,1.1l0,0l-28.4-1.8l0.3-1.4l-0.6-0.6v-1l-3.4-2.7l-3.4-4.4l0.2-1.1l1.5-0.7l0.2-0.7l-1.4-0.8l-0.4-0.1l-1.2,1.1
		l-3.7,0.9l-3,2.1l-2.9,0.2l-1.3,0.7l-2-0.6l-2.2-4.4l0.2-1.2l-0.3-0.7l0.7-0.7l1-2.6l0.8-1.1l0.2-1.3l-1-3.8l-0.5-0.4l-2-0.5
		l-1.2,0.2l-1.4-0.5l-2.5,0.8l-0.7-0.4l0.5-0.9l-1.4-0.1l-1-1.9l-1.4-0.8l-1.3,0.4l-2-1.6l-0.6-0.9l-0.6-2.7l0.6-1.3l-1-0.4
		l-1.2-1.1l-0.7,0.6v0.9l0.5,0.7l-0.3,1l-1.2,2.2l0,0l-1.8-2.2l-2.6-0.8l-1.4,0.8l-1,1l-1.4-0.1l-1.9-3.1l0.2-0.8l-3.8-1.1l-0.8-0.7
		l-0.4-1.1v-3l1.9-2.4l0.1-0.5l-0.5-6.1l0.2-0.9l4.8,0.2l0.5-0.1l0.2-0.7l-0.1-1.3l-0.5-0.6l-2.9-1.3l-3.6-0.8l-1.4-1l-0.3-0.4
		l0.6-1.4l-1.4-3l0.2-0.7l0.6-0.2l1-2.6l0.7-0.9l0.3-1l-0.3-1l0.2-0.8l1.7-4.3l2.2-3l-0.1-0.5l-7-2.5l-0.8,0.7l-1.2,2l-1.6,1.4
		l-0.6-0.2l-0.9-1.8l-2,0.2l-0.7-0.5l-0.5-2.4l-0.1-4l1.2-0.8l1.6,0.9l1.5-2.5l-0.5-1.1l-2.2-1.2l-0.8-0.8l-0.2-0.9l0.4-0.8
		l-0.8-0.6l-0.9,0.2l-0.2-0.3l1.2-0.8v-1.8l-2,0.3l-1.2-0.4l-0.3,1l-0.9,0.9l-0.1,0.8l-1,0.8l-0.7,2.6l0,0l-1.5-1l-0.8,0.4l-2.1,2.3
		l-1.6,0.7l-1.9,2.2l-2.5,1.1l-1.3,1.5l-0.5,0.2l-0.9-1.1l-1.2-2.6l0.3-2.1l0.6-1.3l0.3-3.7l0.6-0.5l0.3-0.9l2.4-2.2h0.5l1.3,1.4
		l1.5-0.2l0.3-0.6l-0.6-1l0.6-2.2l1.9-2.5l-2.5-3.4l-2-0.6l-0.9,0.9l-1.3-0.1l-1.3-0.7l-1.8-1.7l0.3-2.7l-0.3-0.8l-0.9-0.2l0,0
		l-0.1-3.4l-1.3-0.2l-0.9-3.3l0.2-0.9h1.3v-0.7h1l0.3-0.8l1.7-0.8l-1.2-1.1v-0.5l-0.5,0.1l-0.6-0.7l0.1-1.2l-0.4-0.3l0.6-0.5h-1.1
		l-0.4-0.4l0.3-0.4l2.2,0.3l0.4-0.3l0.3-0.7l-0.3-2.5l1.1-0.7h2.5l-1.2-3.6l-0.6-0.7l-4.4-1.4H490l-0.5-0.3L489.2,289.9L489.2,289.9
		z"/>
	
		<pattern  id="SVGID_00000141443840818908972760000018183846467148606363_" xlink:href="#Nueva_muestra_de_motivo_6" patternTransform="matrix(1 0 0 -1 -349 -16301)">
	</pattern>
	
		<pattern  id="SVGID_00000145024950780534810240000011004740174243806338_" xlink:href="#Nueva_muestra_de_motivo_1" patternTransform="matrix(1 0 0 -1 -349 -16301)">
	</pattern>
	
		<path style="fill:url(#SVGID_00000141443840818908972760000018183846467148606363_);stroke:url(#SVGID_00000145024950780534810240000011004740174243806338_);stroke-width:1.5;stroke-miterlimit:10;" d="
		M766.7,313.5l0.3,5.3l-0.1,0.8l-0.9,0.9l-0.5,3.2l1.3,3.2l-0.1,1l-1.1,2l-0.5,2.5l-0.9,1.1l-0.3,1.6l-0.9,1.2l-1.7,0.8l-3.1,2.7
		l-3.1,1.8l-1.5-0.1l-1.5,0.4l-1.1-1l-1.2,0.4l-1.5,2.8l0.3,2.2h-0.4l-0.9-1.7h-1l-0.5,0.4l-0.8,2.4l-0.5,0.5l-5.5,2l-1.8,1
		l-1.9,1.6l0.3,0.7l-0.3,0.3l-1.1-0.9l-1.9,1.8l-1.2,0.4h-2.4l-2.4,1l-1.4,1.4l-3.5,0.2l-0.6,0.5l0.2,0.9l-0.3,1.5l-0.9,2l0,0
		l-0.4-0.5l-0.8-3.4l-3.2-3.6l-1.2-2.5l-3.8-2.1l-2-4.5l-1.8-1.2l-0.6-1l0.1-0.9l-1-1.8l-0.4-0.3l-0.9,0.8l-0.4,1l-0.5,0.1l-0.9-1
		l-1.1,0.3l-0.4-0.2l-1-2l-4.1-0.5l0.2-7.3l0,0l0.1-1.4l0.6-0.6l0.7-1.7l-0.2-0.5l-0.3,0.2l-1.1,3.4l-0.6,0.5l0.3-1.5l1-3l1-1.4
		l5.6-3.5l2.5-0.6l2.1-1.3h0.9l0.3-0.5l1-0.3l2.9-0.7l0.1,0.4h0.6l-0.1-0.3l0.7-0.4l4-0.7l16.5-2.2l5-1.9l0.6-1.4l5.5-1.2l3.2,0.3
		l1.3-0.4l2.3-1.5l2.1,0.5l-0.2,0.5l1.7,0.6l3.6,0.3l0.5,0.8l1,0.6l2.2,0.1l1.9,0.5l0.4-0.4l-3.8-0.9L766.7,313.5z"/>
	
		<pattern  id="SVGID_00000140692606307652126940000001126559581662705293_" xlink:href="#Nueva_muestra_de_motivo_1" patternTransform="matrix(1 0 0 -1 -349 -16301)">
	</pattern>
	
		<path style="fill:none;stroke:url(#SVGID_00000140692606307652126940000001126559581662705293_);stroke-width:1.5;stroke-miterlimit:10;" d="
		M389,218.1v-1.6l0.6-0.5l5.4-1.1l9.3,0.6l2.5,1.7l2.5,1l2,1.7l2.2,3.1l1.5-0.4l1.2,0.3l0.6,3.6h2.8l0.9-0.9l2.3-0.5l3,0.4l1.3,0.8
		l1.9,3.8l1.4,1.3l2.1,0.8l1.4-0.4l0.2-0.8l0.8-0.3l2.1,0.5l0,0l-0.5,0.4l0,0l-0.8,0.4l-0.4,1.8l-1.2,1l-0.7,1.7l-1,0.5l-1.7-0.1
		l-0.7,0.5l-0.2,1.5l-0.9,1.8l-1.4,0.9l-1.9,0.5l-0.6,0.6l-0.8,3.4l1,1.2l-1.2,3l-1.1,1.5l-4.7,1.6l-3.5,5.1l-3.6,2.1l-2.3,0.8
		l-0.9,1l-0.5,1.4l-2.9,0.6l-2.3-0.9l-0.7,0.2l-0.9,1.7l0.6,0.8l-0.5,1.7l1,3l-1.3,4l-0.2,1.3l0.3,1.5l0.9,1l4.2,2.5l1.1,1.3
		l2.3,0.3l1.1,0.6l0.9,2l1.5,2h2.1l2.4-0.7l4.5-4.6l1.5-0.7h0.7l2,2.6l-0.2,1.6l-3.3,7.3l1.4,3.9l-0.4,1.6h-0.4l-0.1,0.5l0.3,0.2
		l-0.4,1l-1.9,4l0,0l-0.8,0.9l-1-0.6l0,0l-0.3-0.4l-2.1-0.8l-2.7-2.4l-2.1-1.1l-3.5-0.9l0,0l-1.1-2l-0.6-2.4l-4.4-2.6l-1.3-1.3
		l-0.8-1.4l-0.7,0.2l-0.4,1.3l-1.2,0.9l-3.5,2l-1.8,0.4l-1.1,0.7l-0.9,3.2l-3.3,4.6l-1.2,2.9l0.1,1.2l2.3,2.3l0,0l-0.1,2.2l0.6,1.9
		l2.8,1.8l-0.5,2.7l-1,1.3l-2.3,1.4l-3.6,2.9l-1.5-0.5l-1.4,0.5l-0.6,0.5l-0.3,2l-1.5,0.5l-0.1,0.4l-1.7-0.4l-1.3,0.3l-0.2,0.6
		l-0.9-0.1l-1,0.5l-2.9-1.6l-2.3,0.2l-0.9-0.5l-0.8-1.7l-0.8-0.8l-2.5-0.6l-0.2-0.5l4-1.8l1.2-1.1l0.1-1l-0.3-0.6l-0.6-0.4l-1,0.5
		l-0.9-0.5l-0.9-2.5l1.8-0.5l1.6-1.9l0.3-2.5l-0.2-1.8l2.9-2.1l1.8-1.7l3.3-1.7l1.3-0.2l0.7-0.7l1.2-2.9l0.7-3.5L380,294l-2.1-0.1
		l-0.5-0.4l0.8-1.5l-0.4-0.9l-2.2-0.2l-1.9,0.7l-0.3,1.9l1.2,1l-2.4,1.9l-0.9,1.7l-0.9,0.4l-0.7-0.5l-1.3-0.2l-0.7,0.8h-1.9
		l-0.6-0.7l0.1-0.5l3.8-6.2V290l-0.6-1.9l-1.4-1.3l-1.4-0.5l-3.4,0.7l-0.6,0.6v7l-0.4,1.2l-1.2-0.2l-1.2-1.8v-3.3l1.7-4.2l1.5-1.9
		l1.1-0.8l0.2-0.9l-1.8-1l-2.7,0.4l-2.2,1.5l-0.1,0.8l1.7,3.8l0.2,1.4l-1,1.2l-1.8,1.1l-0.3-0.5l1-3.2l-0.5-0.4l-3.1,1.2l-0.4,3
		l-1.4-0.3l-1.1,1.2l0,0l-0.7-0.4l-0.4-1l-0.2-2.8l0,0l1.2-3l1-1.5l3.2-1.4l0.3-0.6l0.2-5.5l-0.9-3.1l0.1-1.3l1.4-2.7l0.6-0.4
		l1.3-5.8l0.1-1.9l2.3-2.9l2.8-2.4l-0.9-4.3l0.5-1.2l-0.4-1.9l0.3-1.7l-0.4-1.6l-0.8-0.5l0.2-1.3l2.4-0.7l2.3-2.1l2.1-2.8l2.4-1.8
		l0.5-1.3l1.7-1.4l3.9,0.3l2.2,0.7l2.3-0.8l1.1,0.1l1,0.7l2.7,0.9l0.8-0.9l1.7,0.2l6.1-0.6l0.1-0.7l-0.5-0.4v-0.4l1-0.5l-1-4
		l-1.2-0.4l0.8-4.9l-0.8-0.9l-1.5-0.7l-0.4-1.1l-0.8-0.3v-1.6L389,218.1z"/>
	
		<pattern  id="SVGID_00000095321835876258176150000012808843165992560022_" xlink:href="#Nueva_muestra_de_motivo_6" patternTransform="matrix(1 0 0 -1 -349 -16301)">
	</pattern>
	
		<pattern  id="SVGID_00000132772744882060067150000015373264771692478629_" xlink:href="#Nueva_muestra_de_motivo_1" patternTransform="matrix(1 0 0 -1 -349 -16301)">
	</pattern>
	
		<path style="fill:url(#SVGID_00000095321835876258176150000012808843165992560022_);stroke:url(#SVGID_00000132772744882060067150000015373264771692478629_);stroke-width:1.5;stroke-miterlimit:10;" d="
		M451.9,396.1l-0.4,0.3l-0.1-0.3H451.9z M460.7,344.7l1.2,1.4l2.6,1.5l4.6,0.7l0.1,0.6l0.6,0.3l1.5,3.1l-0.7,1l1.2,1.3l0.3,1.3
		l0.7,0.6l0.4,1.3l-0.1,2.5l1.2-1l0.2-2.2l2.1,1l0.7-0.8l0.5-3.8l3.9-1.1l2.7-1.4l0.6,0.1l0.5,1.3l-1.1,4.3l-0.9,0.1l-0.9,0.5
		l-0.2,0.5l0.9,1.8v0.9l0.6,0.3l0.2-0.2l1.7-2.6l5.8-0.6l0.2,1.7l-1.8,4.1l0.2,1.4l0,0l1,1.8l0.8-0.2l0.5,0.6l0,0l0.4,1.8l-0.6,0.6
		v1.1l1,3.6l0.1,4.4l0,0l-0.9,0.2l-2.6,2.1l-2.5-0.9l-0.9-1.6l-1-0.8l0,0l-0.2-0.8l0.5-1.7l-0.4-1.6l-0.2-0.5l-0.5,0.4l-0.3-1.5
		l-2.1-1.8l-0.5-1.5l-1.6-1.9v-1.1l-0.3-0.4l-2.2,2.5l-0.6,2l-3.2,2.8l0.1,1l2.6,4.4l0,0l-4,6.3L472,385l-1.6,1.8l-0.2,1l0,0
		l-0.8-0.1l-0.8,0.5l-2-0.7l-0.9-1.1h-0.8l0.4,1.7l-1.8,0.3l-0.4,1.6l-0.9-0.3l-0.9,0.4l-0.3,0.6l-3.5,0.2l-0.8-0.4l-1,0.5l-0.4,0.6
		l0.7,1.4l-2.5,0.6l-2,2.2l-0.2-0.4l-0.3,0.4h-0.6v0.4l-1.6-2l-0.2-1.1l-1.5-0.3l-1.3,0.3l-0.6-0.7l1.7-1.8l0.3-0.7l-0.1-1.2
		l-1.8-0.8l-0.4-1.6l0.7-4.2l1-1.9l-0.3-2.9l0,0l0.6-0.4l0.2-1.1l1.5-1.8l1.1-2.4l-0.3-1l0.8-1.8l0.4-0.6l0.7-0.1l0.3-0.6l-0.4-5.2
		l-0.6-0.5l-1-2l1.5,0.1l1.4-0.5l0.3-0.5l0.3-2.1l1.3-1.7v-0.6l-0.9-0.8l0.1-2.4l0,0l2.5-0.3l1.9-2l-0.3-1.7l-0.5-1l0.2-0.3l0.9,0.6
		l0.6-0.1l-0.2-0.7l0.3-0.6L460.7,344.7L460.7,344.7z"/>
	
		<pattern  id="SVGID_00000008110995886540204640000000046564263448069295_" xlink:href="#Nueva_muestra_de_motivo_6" patternTransform="matrix(1 0 0 -1 -349 -16301)">
	</pattern>
	
		<pattern  id="SVGID_00000150097538589721472340000017113573189359455929_" xlink:href="#Nueva_muestra_de_motivo_1" patternTransform="matrix(1 0 0 -1 -349 -16301)">
	</pattern>
	
		<path style="fill:url(#SVGID_00000008110995886540204640000000046564263448069295_);stroke:url(#SVGID_00000150097538589721472340000017113573189359455929_);stroke-width:1.5;stroke-miterlimit:10;" d="
		M388.3,308.2l2-1.1l4.2,0.4l1.7,1.4l2.2,1l1.3-0.1l3-1l0.7-0.5l2.5-3.5l4.3-2l-2-2.1l0.2-1.6l-0.3-0.6l0,0l3.5,0.9l2.1,1.1l2.7,2.4
		l2.1,0.8l0.3,0.4l0,0l-1.2,1.3l0.7,0.8l-1.2,1.4l0.1,0.7l-1.5,5.5l0.7,0.1l-0.6,2.2l0.8,0.5l-0.7,1.4l-0.4,0.4l-1.5,0.1l-0.5,0.7
		l0.1,0.6l-0.8,2.6l-2.5,1.9l-1.9,4l-1.8,1.5l-0.1,0.8l-2,2l0.5,1.3l1.6,0.4l1.6,2.9l-1.8,3.4l-0.4,2.8l0,0h-2.8l-2.1,1l-1.7-0.2
		l-1.3,0.5l-1.7-0.1l-1.1,0.3l-2.1,1.6l-1.1-0.1l-1,1l-0.9,0.3l-0.3,1.4l-3,0.7l-0.2,0.8h-0.4l-1-1.3l-2.5-0.5l-0.3,1.1l-0.9-0.2
		l-0.4,0.3v2.4l-0.9,1.5l0.5,0.8h0.5l0.5-0.6l2.3,0.3l3.2,0.9l0.7,0.6l0.6,2.2l-0.3,0.8l-0.9,0.7l1.9,4.2l-0.6,2.6l3.4-0.1l0.6,0.7
		l0.1,1.6l-2.4,2.5l-0.9,2.3l-2.3-0.6l-1.4,0.7l-4,3.6l-2.2,1.2L378,380l-0.3,0.1l-1.3-1.8l-0.5-0.1l-2.2,1.7l-1.5-0.3l-1.7,0.4l0,0
		v-2l-0.8-1.5l0.6-1.3l-0.1-3.1l0.5-1.8l-1.1-0.5l-0.2-0.8l-1-0.8l0.2-1l-0.5-2.9l-0.6-0.1l-2.5,2.4l-3.2,1.7l-1.4,0.2l-3.3-0.3
		l-3.1,2.3l-1.1,0.3l-1.3-0.4l-3.8,0.9l-0.5-0.4l-0.9,0.6l-0.5,0.8l-0.6,0.1l-1.1-0.5l-1.5,1.8h-1.9l0,0l-0.6-0.5l-0.6,0.1l-0.1-0.5
		l-0.7,0.3l-0.5-0.3l-0.9,0.1v-0.6l0.5-0.5l-0.1-0.5l-0.9-0.3l-0.2,0.4l-0.9,0.2l-2-1.1l-1.9-1.7l0.4-0.7l-0.4-0.7l-0.8-0.5l0.1-0.9
		l-0.5-0.2l-0.2-1.5l-0.8-0.7h-0.8v-0.4l-2.8-2.1l-0.3-0.7l-1.4-1.5l-0.4-1.1l-3.9-5.3l-1.1-2.3l0.2-2.2l-0.3-1.2l-0.7-0.2l-0.1-0.6
		l-2.2-2.3l-0.5-1.6l1-0.5l1-1.1l7.3-1.2l1.5-1.1l0.7-1.6l-0.3-1l-1.3-1.1l0,0l4.5-5.6l1.2-0.5l2.3,0.5l3.2-2.4l1.3-0.2l1.5,0.7
		l1.2,1.4l3.1,0.8l2.7,3l1.1,0.6l2.3,2.1l0.7,0.8l0.5,1.5l0.5,0.3V336l-1.2-1.5l0.3-0.4l-0.7-0.8l-0.4-1.5l0.5-0.6l0.8-0.2l1.5-8.4
		l4-0.2l1-0.4l1-1l1.7-0.3l2.3-1.3l0.4-0.8l0.4-4.2l-0.2-1.5l-1.4-1.2l-1.7-4.3l-4.5-0.6l-0.9-1.6l-0.1-2.7l-0.5-0.5l-1.1-0.1
		l-1.2-1.2l-1.6,0.5l-0.5-3l1.2-4.9l-0.2-0.5l0,0l1.1-1.2l1.4,0.3l0.4-3l3.1-1.2l0.5,0.4l-1,3.2l0.3,0.5l1.8-1.1l1-1.2l-0.2-1.4
		l-1.7-3.8l0.1-0.8l2.2-1.5l2.7-0.4l1.8,1l-0.2,0.9l-1.1,0.8l-1.5,1.9l-1.7,4.2v3.3l1.2,1.8l1.2,0.2l0.4-1.2v-7l0.6-0.6l3.4-0.7
		l1.4,0.5l1.4,1.3l0.6,1.9v1.2l-3.8,6.2l-0.1,0.5l0.6,0.7h1.9l0.7-0.8l1.3,0.2l0.7,0.5l0.9-0.4l0.9-1.7l2.4-1.9l-1.2-1l0.3-1.9
		l1.9-0.7l2.2,0.2l0.4,0.9l-0.8,1.5l0.5,0.4l2.1,0.1l0.5,0.4l-0.7,3.5l-1.2,2.9l-0.7,0.7l-1.3,0.2l-3.3,1.7l-1.8,1.7l-2.9,2.1
		l0.2,1.8l-0.3,2.5l-2.2,2.1l-1.8,0.5l0.9,2.5l0.9,0.5l1-0.5l0.7,0.1l0.3,0.6l-0.1,1l-1.2,1.1l-4,1.8l0.2,0.5l2.5,0.6l0.8,0.8
		l0.8,1.7l0.9,0.5l2.3-0.2l2.9,1.6l1-0.5l0.9,0.1l0.2-0.6l1.3-0.3l1.7,0.4l0.1-0.4l1.5-0.5l0.3-2l0.6-0.5l1.4-0.5l1.5,0.5l3.6-2.9
		l2.3-1.4l1-1.3l0.5-2.7l-2.7-2l-0.6-1.9L388.3,308.2z"/>
	
		<pattern  id="SVGID_00000116234061492332256810000012048264400545923743_" xlink:href="#Nueva_muestra_de_motivo_6" patternTransform="matrix(1 0 0 -1 -349 -16301)">
	</pattern>
	
		<pattern  id="SVGID_00000039830574089936653150000010061552758958951592_" xlink:href="#Nueva_muestra_de_motivo_1" patternTransform="matrix(1 0 0 -1 -349 -16301)">
	</pattern>
	
		<path style="fill:url(#SVGID_00000116234061492332256810000012048264400545923743_);stroke:url(#SVGID_00000039830574089936653150000010061552758958951592_);stroke-width:1.5;stroke-miterlimit:10;" d="
		M502.8,360.7l2.1,0.4l0.6-0.2l1.5-1.8l0.5,0.1l0.7,1.1l4.1,3.4l-0.1,1.7l0.8,0.2l1.5-0.5l0.6,0.4l1.2,1.2l0.3,1.2l0.7,0.6l0.9,0.2
		l-0.3,1.1l-0.8,0.5l-2.7,0.5l-0.8-0.3l-1.4,2.3l-1.2,0.8h-0.8l-1.5-1h-0.6l-3.1,2.7l-0.9,0.1l-4.1-2.2l-1.2-1.3l-0.5-1.4l-1.3-1.4
		l-3-2.3l-1.2-0.4l-0.7,0.3l0,0l-0.5-0.6l-0.8,0.3l-1-1.8l0,0l5-1.7l1,0.2l2.1-0.3l1.5-1.2l0.8-1.5L502.8,360.7z"/>
</g>
</svg>
