<?xml version="1.0" encoding="utf-8"?>
<!-- Generator: Adobe Illustrator 25.4.1, SVG Export Plug-In . SVG Version: 6.00 Build 0)  -->
<svg version="1.1" id="Capa_1" xmlns="http://www.w3.org/2000/svg" xmlns:xlink="http://www.w3.org/1999/xlink" x="0px" y="0px"
	 viewBox="0 0 64 80" style="enable-background:new 0 0 64 80;" xml:space="preserve">
<style type="text/css">
	.st0{fill:#3A79F9;}
</style>
<path class="st0" d="M38,1C24.2,1,13,12.2,13,26c0,4.1,1,8.1,2.9,11.7L3.2,50.4C1.8,51.8,1,53.7,1,55.6C1,59.7,4.3,63,8.4,63
	c2,0,3.8-0.8,5.2-2.2l12.8-12.8C29.9,50,33.9,51,38,51c13.8,0,25-11.2,25-25S51.8,1,38,1z M27.5,28.9l3.1,3.1L16.3,46.3l1.4,1.4
	L32,33.4l3.1,3.1L17.5,54.1L14.4,51l1.3-1.3l-1.4-1.4L13,49.6l-3.1-3.1L27.5,28.9z M29.4,28H36v6.6L29.4,28z M36,26c0-1.1,0.9-2,2-2
	s2,0.9,2,2s-0.9,2-2,2v-2H36z M38,30c2.2,0,4-1.8,4-4s-1.8-4-4-4s-4,1.8-4,4h-5c0-5,4-9,9-9s9,4,9,9s-4,9-9,9V30z M16.1,55.5
	L14,57.6L6.4,50l2.1-2.1L16.1,55.5z M8.4,61c-3,0-5.4-2.4-5.4-5.4c0-1.4,0.6-2.8,1.6-3.8L5,51.4l7.6,7.6l-0.4,0.4
	C11.1,60.4,9.8,61,8.4,61z M38,49c-3.5,0-7-0.8-10.2-2.4l3.8-3.8c2,0.8,4.2,1.2,6.4,1.2c5.3,0,10.3-2.3,13.7-6.4l-1.5-1.3
	C47.1,39.9,42.7,42,38,42c-1.7,0-3.3-0.3-4.8-0.7l4.3-4.3c0.2,0,0.4,0,0.6,0c6.1,0,11-4.9,11-11s-4.9-11-11-11s-11,4.9-11,11
	c0,0.2,0,0.4,0,0.6l-4.3,4.3C22.3,29.3,22,27.7,22,26c0-8.8,7.2-16,16-16s16,7.2,16,16c0,3-0.8,5.9-2.4,8.5l1.7,1.1
	C55,32.7,56,29.4,56,26c0-9.9-8.1-18-18-18s-18,8.1-18,18c0,2.2,0.4,4.4,1.2,6.4l-3.8,3.8C15.8,33,15,29.5,15,26
	C15,13.3,25.3,3,38,3s23,10.3,23,23S50.7,49,38,49z"/>
</svg>
