<?xml version="1.0" encoding="utf-8"?>
<!-- Generator: Adobe Illustrator 25.4.1, SVG Export Plug-In . SVG Version: 6.00 Build 0)  -->
<svg version="1.1" id="Capa_1" xmlns="http://www.w3.org/2000/svg" xmlns:xlink="http://www.w3.org/1999/xlink" x="0px" y="0px"
	 viewBox="0 0 64 80" style="enable-background:new 0 0 64 80;" xml:space="preserve">
<style type="text/css">
	.st0{fill:#3A79F9;}
</style>
<g>
	<rect x="31" y="1" class="st0" width="2" height="6"/>
	<rect x="18" y="4.5" transform="matrix(0.866 -0.5 0.5 0.866 -1.1959 10.5024)" class="st0" width="2" height="6"/>
	<rect x="8.5" y="14" transform="matrix(0.5 -0.866 0.866 0.5 -9.9817 16.7125)" class="st0" width="2" height="6"/>
	<rect x="3" y="29" class="st0" width="6" height="2"/>
	<rect x="6.5" y="42" transform="matrix(0.8661 -0.4999 0.4999 0.8661 -20.2264 10.4987)" class="st0" width="6" height="2"/>
	<rect x="53.5" y="40" transform="matrix(0.5 -0.866 0.866 0.5 -9.984 68.7123)" class="st0" width="2" height="6"/>
	<rect x="55" y="29" class="st0" width="6" height="2"/>
	<rect x="51.5" y="16" transform="matrix(0.8661 -0.4999 0.4999 0.8661 -1.1982 29.5299)" class="st0" width="6" height="2"/>
	<rect x="42" y="6.5" transform="matrix(0.4999 -0.8661 0.8661 0.4999 16.0245 42.7148)" class="st0" width="6" height="2"/>
	<path class="st0" d="M53,30c0-11.6-9.4-21-21-21s-21,9.4-21,21c0,7.3,3.8,14.1,10,17.9V49h-2v2h2v2h-2v2h2v2h-2v2h2v4h22v-4h2v-2
		h-2v-2h2v-2h-2v-2h2v-2h-2v-1.1C49.2,44.1,53,37.3,53,30z M41,61H23v-2h18V61z M41,57H23v-2h18V57z M41,53H23v-2h18V53z M17.3,27.2
		c-0.2-0.3-0.3-0.7-0.3-1.1c0-1.2,1-2.1,2.1-2.1h0.1c0.7,0,1.4,0.4,1.8,1l3.5,5.6l-4.2,2.1L17.3,27.2z M25.7,32.3l1.7,2.7h1l3.5,4.7
		l3.5-4.7h1l1.7-2.7l4.2,2.1L37,43.7V49H27v-5.3l-5.5-9.4L25.7,32.3z M31,35h2l-1,1.3L31,35z M43.5,32.6l-4.2-2.1l3.5-5.6
		c0.4-0.6,1.1-1,1.8-1h0.1c1.2,0,2.1,1,2.1,2.1c0,0.4-0.1,0.8-0.3,1.1L43.5,32.6z M39,49v-4.7l9.4-16c0.4-0.6,0.6-1.4,0.6-2.1
		c0-2.3-1.9-4.1-4.1-4.1h-0.1c-1.4,0-2.7,0.7-3.5,1.9L35.5,33H32h-3.5l-5.8-9.1C22,22.7,20.7,22,19.3,22h-0.1
		c-2.3,0-4.1,1.9-4.1,4.1c0,0.7,0.2,1.5,0.6,2.1l9.4,16V49h-2v-2.3l-0.5-0.3C16.6,43,13,36.7,13,30c0-10.5,8.5-19,19-19
		s19,8.5,19,19c0,6.7-3.6,13-9.5,16.4L41,46.7V49H39z"/>
	<path class="st0" d="M38,27c0-3.3-2.7-6-6-6s-6,2.7-6,6s2.7,6,6,6S38,30.3,38,27z M32,31c-2.2,0-4-1.8-4-4s1.8-4,4-4s4,1.8,4,4
		S34.2,31,32,31z"/>
</g>
</svg>
