<?xml version="1.0" encoding="utf-8"?>
<!-- Generator: Adobe Illustrator 25.4.1, SVG Export Plug-In . SVG Version: 6.00 Build 0)  -->
<svg version="1.1" id="Capa_1" xmlns="http://www.w3.org/2000/svg" xmlns:xlink="http://www.w3.org/1999/xlink" x="0px" y="0px"
	 viewBox="0 0 64 80" style="enable-background:new 0 0 64 80;" xml:space="preserve">
<style type="text/css">
	.st0{fill:#3A79F9;}
</style>
<g>
	<path class="st0" d="M49,25V1H1v38h14v24h48V25H49z M61,33H17v-6h44V33z M43,25H15v4H7V15h36V25z M47,3v6H3V3H47z M3,37V11h44v14
		h-2V13H5v18h10v6H3z M35,61c0-2.2,1.8-4,4-4s4,1.8,4,4H35z M39,55c-3.3,0-6,2.7-6,6h-6v-2h2.2l0.2-0.7c0.2-0.8,0.5-1.5,0.9-2.1
		l0.4-0.7l-1.5-1.5l2.8-2.8l1.5,1.5l0.7-0.4c0.7-0.4,1.4-0.7,2.1-0.9l0.7-0.2V49h4v2.2l0.7,0.2c0.8,0.2,1.5,0.5,2.1,0.9l0.7,0.4
		l1.5-1.5l2.8,2.8l-1.5,1.5l0.4,0.7c0.4,0.7,0.7,1.4,0.9,2.1l0.2,0.7H51v2h-6C45,57.7,42.3,55,39,55z M59,61V37H45v2h12v22h-4v-4
		h-2.7c-0.1-0.4-0.3-0.8-0.5-1.2l1.9-1.9l-5.7-5.7l-1.9,1.9c-0.4-0.2-0.8-0.3-1.2-0.5V47h-8v2.7c-0.4,0.1-0.8,0.3-1.2,0.5l-1.9-1.9
		l-5.7,5.7l1.9,1.9c-0.2,0.4-0.3,0.8-0.5,1.2H25v4h-4V39h12v-2H19v24h-2V35h44v26H59z"/>
	<rect x="19" y="29" class="st0" width="2" height="2"/>
	<rect x="23" y="29" class="st0" width="2" height="2"/>
	<rect x="27" y="29" class="st0" width="2" height="2"/>
	<rect x="5" y="5" class="st0" width="2" height="2"/>
	<rect x="9" y="5" class="st0" width="2" height="2"/>
	<rect x="13" y="5" class="st0" width="2" height="2"/>
	<rect x="5" y="33" class="st0" width="8" height="2"/>
	<rect x="38" y="37" class="st0" width="2" height="2"/>
	<rect x="38" y="29" class="st0" width="2" height="2"/>
	<rect x="38" y="21" class="st0" width="2" height="2"/>
	<rect x="38" y="17" class="st0" width="2" height="2"/>
	<rect x="34" y="17" class="st0" width="2" height="2"/>
	<rect x="30" y="17" class="st0" width="2" height="2"/>
	<rect x="26" y="17" class="st0" width="2" height="2"/>
	<rect x="22" y="17" class="st0" width="2" height="2"/>
	<polygon class="st0" points="40,42.6 40,41 38,41 38,42.6 34.7,39.3 33.3,40.7 39,46.4 44.7,40.7 43.3,39.3 	"/>
</g>
</svg>
