<?xml version="1.0" encoding="utf-8"?>
<!-- Generator: Adobe Illustrator 25.4.1, SVG Export Plug-In . SVG Version: 6.00 Build 0)  -->
<svg version="1.1" id="Capa_1" xmlns="http://www.w3.org/2000/svg" xmlns:xlink="http://www.w3.org/1999/xlink" x="0px" y="0px"
	 viewBox="0 0 64 80" style="enable-background:new 0 0 64 80;" xml:space="preserve">
<style type="text/css">
	.st0{fill:#3A79F9;}
</style>
<path class="st0" d="M61,33.8c1.2-0.4,2-1.5,2-2.8c0-1.7-1.3-3-3-3s-3,1.3-3,3c0,0.5,0.1,1,0.4,1.4l-5.3,6.8
	C51.8,39.1,51.4,39,51,39c-0.8,0-1.6,0.3-2.1,0.9l-1.7-0.7c2.5-4,3.8-8.5,3.8-13.2C51,12.2,39.8,1,26,1S1,12.2,1,26s11.2,25,25,25
	h0.3l0.2-0.1c0.2-0.1,1.8-1.1,3.7-3.1C30.1,48.2,30,48.6,30,49c0,0.3,0,0.5,0.1,0.7l-5,2.1C24.6,51.3,23.8,51,23,51
	c-1.7,0-3,1.3-3,3c0,1.3,0.8,2.4,2,2.8V61h-2v2h2h2h39v-2h-2V33.8z M34,49c0,0.6-0.4,1-1,1s-1-0.4-1-1s0.4-1,1-1S34,48.4,34,49z
	 M34,51.8c1.2-0.4,2-1.5,2-2.8c0-0.5-0.1-1-0.4-1.4l5.3-6.8c0,0,0.1,0,0.1,0V61h-7V51.8z M42,39c-0.6,0-1-0.4-1-1s0.4-1,1-1
	s1,0.4,1,1S42.6,39,42,39z M43,40.8c0.4-0.2,0.8-0.4,1.1-0.7l3.9,1.6c0,0.1,0,0.2,0,0.3c0,1.3,0.8,2.4,2,2.8V61h-7V40.8z M52,44.8
	c1.2-0.4,2-1.5,2-2.8c0-0.5-0.1-1-0.4-1.4l5.3-6.8c0,0,0.1,0,0.1,0V61h-7V44.8z M60,30c0.6,0,1,0.4,1,1s-0.4,1-1,1s-1-0.4-1-1
	S59.4,30,60,30z M51,41c0.6,0,1,0.4,1,1s-0.4,1-1,1s-1-0.4-1-1S50.4,41,51,41z M45,38.3c0-0.1,0-0.2,0-0.3c0-1.7-1.3-3-3-3
	c-1.6,0-2.8,1.2-3,2.8c-0.6-0.3-1.2-0.5-1.9-0.8c1-2.8,1.7-6.2,1.8-10h2v-2h-2c-0.1-3.8-0.8-7.1-1.8-10c3.3-1.2,5.5-2.7,6.7-3.6
	c3,3.7,4.9,8.4,5.2,13.5h-6v2h6c-0.2,4.1-1.4,8-3.6,11.5L45,38.3z M27,17c3.1-0.1,5.9-0.6,8.2-1.3c1,2.7,1.7,5.8,1.8,9.3H27V17z
	 M25,25H15c0.1-3.3,0.7-6.4,1.7-9.3c2.3,0.7,5.1,1.2,8.2,1.3V25z M13,25H3c0.2-5.1,2.1-9.8,5.2-13.5c1.1,0.9,3.4,2.4,6.7,3.6
	C13.7,18.2,13.1,21.5,13,25z M13,27c0.1,3.8,0.8,7.1,1.8,10c-3.3,1.2-5.5,2.7-6.7,3.6c-3-3.7-5-8.4-5.2-13.5H13z M15,27h10v8
	c-3.1,0.1-5.9,0.6-8.2,1.3C15.8,33.7,15.1,30.6,15,27z M25,37v11c-1.9-1.6-5.2-4.8-7.4-9.8C19.7,37.6,22.2,37.1,25,37z M27,27h10
	c-0.1,3.6-0.8,6.7-1.8,9.3c-2.3-0.7-5.1-1.2-8.2-1.3V27z M42.4,10c-1.1,0.8-3.1,2.1-6.1,3.2c-2.1-4.8-5-8-7.2-9.9
	C34.4,3.9,39,6.4,42.4,10z M34.4,13.8c-2.1,0.6-4.6,1.1-7.4,1.2V4C28.9,5.6,32.1,8.8,34.4,13.8z M22.8,3.2c-1.5,1.4-3.5,3.4-5.2,6.2
	l1.7,1.1c2-3.2,4.3-5.3,5.7-6.5v11c-2.8-0.1-5.3-0.5-7.5-1.2c0.2-0.5,0.4-0.9,0.6-1.3l-1.8-0.9c-0.3,0.5-0.5,1.1-0.8,1.6
	c-3-1.1-5-2.4-6.1-3.2C13,6.4,17.6,3.9,22.8,3.2z M9.5,42c1.1-0.8,3.1-2.1,6.1-3.2c2.1,4.8,5,8,7.2,9.9C17.6,48,13,45.6,9.5,42z
	 M27,48V37c2.8,0.1,5.3,0.5,7.4,1.2C32.1,43.2,28.9,46.4,27,48z M36.4,38.8c1,0.4,1.8,0.7,2.6,1.1l-4.9,6.3C33.8,46.1,33.4,46,33,46
	c-0.5,0-1,0.1-1.4,0.4C33.2,44.5,35,42,36.4,38.8z M23,53c0.6,0,1,0.4,1,1s-0.4,1-1,1s-1-0.4-1-1S22.4,53,23,53z M24,56.8
	c1.2-0.4,2-1.5,2-2.8c0-0.1,0-0.2,0-0.3l5.3-2.3c0.2,0.2,0.5,0.3,0.8,0.4V61h-8V56.8z"/>
</svg>
