<?xml version="1.0" encoding="utf-8"?>
<!-- Generator: Adobe Illustrator 24.2.3, SVG Export Plug-In . SVG Version: 6.00 Build 0)  -->
<svg version="1.1" id="Capa_1" xmlns="http://www.w3.org/2000/svg" xmlns:xlink="http://www.w3.org/1999/xlink" x="0px" y="0px"
	 viewBox="0 0 100 125" style="enable-background:new 0 0 100 125;" xml:space="preserve">
<style type="text/css">
	.st0{display:none;}
	.st1{display:inline;stroke:#EE2A7B;stroke-width:2;stroke-miterlimit:10;}
	.st2{fill:#B223C1;}
</style>
<g class="st0">
	<rect x="-706.3" y="-445.2" class="st1" width="1386.1" height="999.1"/>
</g>
<g>
	<g>
		<path class="st2" d="M78.2,79.7H21.8v-42C21.8,22.1,34.4,9.5,50,9.5s28.2,12.7,28.2,28.2V79.7z M23.8,77.7h52.4v-40
			c0-14.5-11.8-26.2-26.2-26.2S23.8,23.2,23.8,37.7V77.7z"/>
	</g>
	<path class="st2" d="M83,90.5H17V82h66V90.5z M19,88.5h62V84H19V88.5z"/>
	<g>
		<path class="st2" d="M55.8,48.4v1.4c2.3-1.2,4.2-3.2,5.4-5.5h-1.4C58.8,46,57.4,47.4,55.8,48.4z"/>
		<path class="st2" d="M44.3,29.4V28c-2.1,1.1-3.8,2.8-5,4.8h1.5C41.6,31.4,42.8,30.3,44.3,29.4z"/>
		<path class="st2" d="M40.3,44.3h-1.4c1.2,2.4,3,4.3,5.4,5.5v-1.4C42.6,47.4,41.2,46,40.3,44.3z"/>
		<path class="st2" d="M59.3,32.8h1.5c-1.2-2.1-2.9-3.7-5-4.8v1.4C57.2,30.3,58.4,31.4,59.3,32.8z"/>
		<path class="st2" d="M64.4,32.8h-3.6h-1.5h-3.5v-3.4V28v-4.4H44.3V28v1.4v3.4h-3.5h-1.5h-3.6v11.5h3.3h1.4h4v4.1v1.4v13.7h11.5
			V49.8v-1.4v-4.1h4h1.4h3.3C64.4,44.3,64.4,32.8,64.4,32.8z M62.4,42.3h-8.6v19.3h-7.5V42.3h-8.6v-7.5h8.6v-9.3h7.5v9.3h8.6V42.3z"
			/>
	</g>
</g>
</svg>
