<?xml version="1.0" encoding="utf-8"?>
<!-- Generator: Adobe Illustrator 24.2.3, SVG Export Plug-In . SVG Version: 6.00 Build 0)  -->
<svg version="1.1" id="Capa_1" xmlns="http://www.w3.org/2000/svg" xmlns:xlink="http://www.w3.org/1999/xlink" x="0px" y="0px"
	 viewBox="0 0 90 112.5" style="enable-background:new 0 0 90 112.5;" xml:space="preserve">
<style type="text/css">
	.st0{fill-rule:evenodd;clip-rule:evenodd;fill:#B223C1;}
</style>
<path class="st0" d="M82.3,24.1v31.7c-0.2,0.5-1.1,1.3-2.7,2c-1.4,0.7-3.8,1.3-6.3,1.9V27.4c3.3-0.8,6-1.6,7.8-2.6
	C81.6,24.6,82,24.3,82.3,24.1z M7.7,24.1c0.4,0.2,0.7,0.5,1.1,0.7c1.8,1,4.6,1.8,7.8,2.6v32.4c-2.5-0.6-4.8-1.3-6.3-1.9
	c-1.6-0.8-2.5-1.6-2.7-2C7.7,55.8,7.7,24.1,7.7,24.1z M45,11.2c-9.9,0-19.8,0.8-27.4,2.5c-3.8,0.8-6.7,1.8-8.7,2.8
	c-1.9,0.9-3.4,2.2-3.4,4.1v35.2c0,0.4,0.1,0.7,0.2,1.1c0.6,1.3,1.9,2.2,3.8,3c2,1,4.7,1.8,8.2,2.5c0.7,0.1,1.4-0.4,1.4-1.1V50.5
	c2.6-0.5,5.5-1,8.6-1.3c1.4-0.2,1.3-2.4-0.2-2.3c-2.9,0.3-5.9,0.8-8.4,1.3V26.5c0-0.5-0.4-1-0.9-1.1c-3.7-0.8-6.4-1.7-8.1-2.6
	c-2.9-1.5-2.4-2.9,0-4.2c1.7-0.9,4.5-1.8,8.1-2.6c14.8-3.2,39.1-3.2,53.9,0c3.7,0.8,6.4,1.7,8.2,2.6c2.9,1.5,2.4,2.9,0,4.2
	c-1.7,0.9-4.5,1.8-8.2,2.6c-0.5,0.1-0.9,0.6-0.9,1.1v21.7c-3.1-0.6-6.1-1.2-8.8-1.3c-1.4-0.1-1.4,2.1,0,2.3c3.2,0.4,6.1,0.8,8.8,1.4
	v10.7c0,0.7,0.7,1.3,1.4,1.1c3.4-0.7,6.2-1.6,8.2-2.5c1.8-0.9,3.1-1.8,3.8-3.1c0.2-0.3,0.2-0.6,0.2-0.9V20.7c0,0,0,0,0,0
	c0,0,0,1.8,0,0c0-2.1-1.8-3.3-3.4-4.1c-2-1.1-4.9-2-8.7-2.8C64.8,12.1,54.9,11.2,45,11.2z"/>
<path class="st0" d="M61.7,29.7L59.8,40l-5.4,8c-0.1,0.1-0.2,0.3-0.2,0.5l-4.4,32.5c-0.1,0.5-0.3,0.8-0.7,1.1
	c-0.4,0.3-1,0.5-1.6,0.5c-1.2,0-1.9-0.5-1.9-1.4v-15c0-0.6-0.5-1.2-1.2-1.2c-0.6,0-1.1,0.5-1.1,1.2v15c0,1.1-1.1,1.3-1.9,1.4
	c-1.3,0.1-2.2-0.6-2.3-1.6L37,65c0-0.3-0.2-0.5-0.3-0.7l-2-2.3V47.2c0-1.5,0.4-2.5,1.1-3.1c0.6-0.6,1.6-0.9,2.7-0.9h12.3
	c0.3,0,0.5-0.1,0.7-0.3l4.7-3.9c0.2-0.1,0.3-0.3,0.4-0.6l2.4-9C59.3,27.6,61.9,28.3,61.7,29.7z M56.7,28.8l-2.3,8.7l-4.1,3.4H38.4
	c-1.6,0-3.1,0.5-4.3,1.6c-1.1,1.1-1.8,2.7-1.8,4.7v15.3c0,0.3,0.1,0.5,0.3,0.7l2.1,2.5l2,15.6c0.2,1.2,0.8,2.1,1.7,2.7
	c0.8,0.6,1.9,0.8,2.8,0.8c1,0,2-0.3,2.8-0.8h0.6c0.8,0.6,1.8,0.8,2.8,0.8c1,0,2-0.3,2.8-0.8c0.8-0.6,1.5-1.5,1.7-2.7L56.4,49l5.4-8
	c0.1-0.1,0.1-0.3,0.2-0.4l2-10.6c0.4-2.2-1.2-3.7-3.2-3.9C58.8,26,57.1,27.1,56.7,28.8z"/>
<path class="st0" d="M43.2,25.5c2.9-0.7,5.8,1.1,6.4,3.9c0.7,2.9-1.1,5.7-4,6.4c-2.9,0.7-5.8-1.1-6.4-3.9
	C38.5,29,40.3,26.2,43.2,25.5z M42.6,23.3c-4.1,1-6.6,5.1-5.6,9.2c1,4.1,5.1,6.6,9.2,5.6c4.1-1,6.6-5.1,5.6-9.2
	C50.9,24.8,46.7,22.3,42.6,23.3z"/>
</svg>
