<?xml version="1.0" encoding="utf-8"?>
<!-- Generator: Adobe Illustrator 24.2.3, SVG Export Plug-In . SVG Version: 6.00 Build 0)  -->
<svg version="1.1"
	 id="Capa_1" xmlns:cc="http://creativecommons.org/ns#" xmlns:dc="http://purl.org/dc/elements/1.1/" xmlns:inkscape="http://www.inkscape.org/namespaces/inkscape" xmlns:rdf="http://www.w3.org/1999/02/22-rdf-syntax-ns#" xmlns:sodipodi="http://sodipodi.sourceforge.net/DTD/sodipodi-0.dtd" xmlns:svg="http://www.w3.org/2000/svg"
	 xmlns="http://www.w3.org/2000/svg" xmlns:xlink="http://www.w3.org/1999/xlink" x="0px" y="0px" viewBox="0 0 100 125"
	 style="enable-background:new 0 0 100 125;" xml:space="preserve">
<style type="text/css">
	.st0{fill:#069EEA;}
</style>
<path class="st0" d="M32,11c-0.4,0-0.8,0-1.1,0C17.3,11.6,7,23,7,36.5C7,48.6,14,58,22.7,66.3S42,81.5,49.3,88.7
	c0.4,0.4,1,0.4,1.4,0c7.4-7.2,17.9-14.3,26.6-22.5S93,48.6,93,36.5c0-9.8-5.4-18.5-13.6-22.8c-8-4.2-18.7-3.9-29.4,3.6
	C43.8,13,37.6,11,32,11z M68,13c0.4,0,0.7,0,1.1,0c3.4,0.1,6.6,1,9.4,2.5C86,19.4,91,27.4,91,36.5c0,11.3-6.5,20.3-15.1,28.3
	C67.6,72.6,57.5,79.5,50,86.7c-7.5-7.2-17.6-14-25.9-21.8C15.5,56.8,9,47.8,9,36.5C9,24,18.4,13.5,30.9,13c5.7-0.2,12,1.6,18.5,6.3
	c0.4,0.3,0.8,0.3,1.2,0C56.7,14.9,62.6,13,68,13z M44.9,30.4c-0.5,0.1-0.8,0.5-0.8,1v8.7h-8.8c-0.6,0-1,0.4-1,1v9.7c0,0.6,0.4,1,1,1
	h8.8v8.7c0,0.6,0.4,1,1,1h9.8c0.6,0,1-0.4,1-1v-8.7h8.8c0.6,0,1-0.4,1-1v-9.7c0-0.6-0.4-1-1-1h-8.8v-8.7c0-0.6-0.4-1-1-1h-9.8
	C45.1,30.4,45.1,30.4,44.9,30.4C45,30.4,45,30.4,44.9,30.4z M46.1,32.4h7.8v8.7c0,0.6,0.4,1,1,1h8.8v7.7h-8.8c-0.6,0-1,0.4-1,1v8.7
	h-7.8v-8.7c0-0.6-0.4-1-1-1h-8.8v-7.7h8.8c0.6,0,1-0.4,1-1V32.4z"/>
</svg>
