<?xml version="1.0" encoding="utf-8"?>
<!-- Generator: Adobe Illustrator 24.2.3, SVG Export Plug-In . SVG Version: 6.00 Build 0)  -->
<svg version="1.1" id="Capa_1" xmlns="http://www.w3.org/2000/svg" xmlns:xlink="http://www.w3.org/1999/xlink" x="0px" y="0px"
	 viewBox="0 0 468 585" style="enable-background:new 0 0 468 585;" xml:space="preserve">
<style type="text/css">
	.st0{fill:#231CB7;}
</style>
<g>
	<g>
		<g>
			<path class="st0" d="M333.2,145.3H147.6c-3.9,0-7-3.1-7-7V67c0-3.9,3.1-7,7-7h185.6c3.9,0,7,3.1,7,7v71.3
				C340.2,142.2,337.1,145.3,333.2,145.3z M154.6,131.3h171.6V74H154.6V131.3z"/>
			<g>
				<path class="st0" d="M293.2,205.2H147.6c-3.9,0-7-3.1-7-7s3.1-7,7-7h145.6c3.9,0,7,3.1,7,7S297.1,205.2,293.2,205.2z"/>
				<path class="st0" d="M203.6,265.1h-56c-3.9,0-7-3.1-7-7s3.1-7,7-7h56c3.9,0,7,3.1,7,7S207.5,265.1,203.6,265.1z"/>
				<path class="st0" d="M186.5,325.1h-38.9c-3.9,0-7-3.1-7-7s3.1-7,7-7h38.9c3.9,0,7,3.1,7,7C193.5,321.9,190.4,325.1,186.5,325.1z
					"/>
			</g>
		</g>
		<ellipse class="st0" cx="330.2" cy="198.2" rx="9" ry="9"/>
	</g>
	<g>
		<path class="st0" d="M388,0H92.8c-3.9,0-7,3.1-7,7v136H7c-3.9,0-7,3.1-7,7v184.9c0,27.5,22.4,49.9,49.9,49.9h156.1
			c3.9,0,7-3.1,7-7s-3.1-7-7-7H84.5c9.4-9.1,15.3-21.8,15.3-35.9V14H381v204.1c0,3.9,3.1,7,7,7s7-3.1,7-7V7C395,3.1,391.9,0,388,0z
			 M49.9,370.9c-19.8,0-35.9-16.1-35.9-35.9V157h71.8v177.9C85.8,354.7,69.7,370.9,49.9,370.9z"/>
		<path class="st0" d="M451.1,399.7l-55-45.2c6.3-12.6,9.9-26.8,9.9-41.9c0-51.5-41.9-93.5-93.4-93.5s-93.4,41.9-93.4,93.5
			s41.9,93.5,93.4,93.5c15,0,29.2-3.6,41.8-9.9l45.2,55c13.2,18,42,23.6,57.9,6.5C464.8,450.7,479.8,425.3,451.1,399.7z
			 M233.3,312.6c0-43.8,35.6-79.5,79.4-79.5s79.4,35.7,79.4,79.5s-35.6,79.5-79.4,79.5S233.3,356.4,233.3,312.6z M447.8,447.7
			c-12.2,11.9-28.1,5.9-37.2-5.3l-43.9-53.6c8.6-6.1,16.1-13.6,22.2-22.2l53.5,44C453.4,419.7,459.4,435.3,447.8,447.7z"/>
	</g>
</g>
</svg>
