<?xml version="1.0" encoding="utf-8"?>
<!-- Generator: Adobe Illustrator 24.2.3, SVG Export Plug-In . SVG Version: 6.00 Build 0)  -->
<svg version="1.1" id="Capa_1" xmlns="http://www.w3.org/2000/svg" xmlns:xlink="http://www.w3.org/1999/xlink" x="0px" y="0px"
	 viewBox="0 0 64 80" style="enable-background:new 0 0 64 80;" xml:space="preserve">
<style type="text/css">
	.st0{fill:#069EEA;}
</style>
<path class="st0" d="M41,26h-3c-0.3,0-0.5,0.1-0.7,0.3L32,31.6l-5.3-5.3C26.5,26.1,26.3,26,26,26h-3c-5,0-9,4-9,9v18c0,5,4,9,9,9h18
	c5,0,9-4,9-9V35C50,30,46,26,41,26z M16,53V35.2l5,2.5v22C18,58.8,16,56.1,16,53z M22.4,36.2l-6.2-3.1c0.8-3,3.6-5.1,6.7-5.1h2.6
	l5.4,5.4V60h-8V37.1C23,36.7,22.8,36.4,22.4,36.2z M33,60V33.4l5.4-5.4H41c3.1,0,5.9,2.1,6.7,5.1l-6.2,3.1c-0.3,0.2-0.6,0.5-0.6,0.9
	V60H33z M43,59.7v-22l5-2.5V53C48,56.1,46,58.8,43,59.7L43,59.7z"/>
<path class="st0" d="M32,26c5,0,9-4,9-9v-6c0-5-4-9-9-9s-9,4-9,9v6C23,22,27,26,32,26z M25,11c0-3.9,3.1-7,7-7s7,3.1,7,7v6
	c0,3.9-3.1,7-7,7s-7-3.1-7-7V11z"/>
<path class="st0" d="M10,14.6L3.7,8.3L2.3,9.7L8.6,16H6v2h5c0.5,0,1-0.4,1-1c0,0,0,0,0,0h0v-5h-2V14.6z"/>
<path class="st0" d="M11.9,52.6C11.8,52.2,11.4,52,11,52H6v2h2.6l-6.3,6.3l1.4,1.4l6.3-6.3V58h2v-5h0C12,52.9,12,52.7,11.9,52.6z"/>
<path class="st0" d="M5.3,38.3l1.4,1.4l4-4c0.4-0.4,0.4-1,0-1.4l-4-4l-1.4,1.4L7.6,34H2v2h5.6L5.3,38.3z"/>
<path class="st0" d="M52.1,17.4c0.2,0.4,0.5,0.6,0.9,0.6h5v-2h-2.6l6.3-6.3l-1.4-1.4L54,14.6V12h-2v5h0C52,17.1,52,17.3,52.1,17.4z"
	/>
<path class="st0" d="M58,54v-2h-5c-0.5,0-1,0.4-1,1c0,0,0,0,0,0h0v5h2v-2.6l6.3,6.3l1.4-1.4L55.4,54H58z"/>
<path class="st0" d="M56.4,34l2.3-2.3l-1.4-1.4l-4,4c-0.4,0.4-0.4,1,0,1.4l4,4l1.4-1.4L56.4,36H62v-2H56.4z"/>
</svg>
