<?xml version="1.0" encoding="utf-8"?>
<!-- Generator: Adobe Illustrator 24.2.3, SVG Export Plug-In . SVG Version: 6.00 Build 0)  -->
<svg version="1.1" id="Capa_1" xmlns="http://www.w3.org/2000/svg" xmlns:xlink="http://www.w3.org/1999/xlink" x="0px" y="0px"
	 viewBox="0 0 512 640" style="enable-background:new 0 0 512 640;" xml:space="preserve">
<style type="text/css">
	.st0{fill:#231CB7;}
</style>
<g>
	<g>
		<g>
			<path class="st0" d="M135,226c-22.6,0-41-18.4-41-41s18.4-41,41-41c3.3,0,6,2.7,6,6s-2.7,6-6,6c-16,0-29,13-29,29s13,29,29,29
				c3.3,0,6,2.7,6,6S138.3,226,135,226z"/>
		</g>
		<g>
			<path class="st0" d="M334.5,486h-249C68.1,486,54,471.9,54,454.5v-379C54,58.1,68.1,44,85.5,44h249c17.4,0,31.5,14.1,31.5,31.5
				v379C366,471.9,351.9,486,334.5,486z M85.5,56C74.7,56,66,64.7,66,75.5v379c0,10.8,8.7,19.5,19.5,19.5h249
				c10.8,0,19.5-8.7,19.5-19.5v-379c0-10.8-8.7-19.5-19.5-19.5H85.5z"/>
		</g>
		<g>
			<path class="st0" d="M430,486c-19.9,0-36-16.1-36-36V200c0-3.3,2.7-6,6-6h60c3.3,0,6,2.7,6,6v250C466,469.9,449.9,486,430,486z
				 M406,206v244c0,13.2,10.8,24,24,24s24-10.8,24-24V206H406z"/>
		</g>
		<g>
			<path class="st0" d="M460,206h-60c-3.3,0-6-2.7-6-6v-30c0-1.1,0.3-2.2,0.9-3.1l30-50c1.1-1.8,3-2.9,5.1-2.9s4.1,1.1,5.1,2.9
				l30,50c0.6,0.9,0.9,2,0.9,3.1v30C466,203.3,463.3,206,460,206z M406,194h48v-22.3l-24-40l-24,40V194z"/>
		</g>
		<g>
			<path class="st0" d="M300,196h-90c-3.3,0-6-2.7-6-6s2.7-6,6-6h90c3.3,0,6,2.7,6,6S303.3,196,300,196z"/>
		</g>
		<g>
			<path class="st0" d="M270,166h-60c-3.3,0-6-2.7-6-6s2.7-6,6-6h60c3.3,0,6,2.7,6,6S273.3,166,270,166z"/>
		</g>
		<g>
			<path class="st0" d="M320,226H210c-3.3,0-6-2.7-6-6s2.7-6,6-6h110c3.3,0,6,2.7,6,6S323.3,226,320,226z"/>
		</g>
		<g>
			<path class="st0" d="M135,336c-22.6,0-41-18.4-41-41s18.4-41,41-41s41,18.4,41,41S157.6,336,135,336z M135,266c-16,0-29,13-29,29
				s13,29,29,29s29-13,29-29S151,266,135,266z"/>
		</g>
		<g>
			<path class="st0" d="M300,306h-90c-3.3,0-6-2.7-6-6s2.7-6,6-6h90c3.3,0,6,2.7,6,6S303.3,306,300,306z"/>
		</g>
		<g>
			<path class="st0" d="M270,276h-60c-3.3,0-6-2.7-6-6s2.7-6,6-6h60c3.3,0,6,2.7,6,6S273.3,276,270,276z"/>
		</g>
		<g>
			<path class="st0" d="M320,336H210c-3.3,0-6-2.7-6-6s2.7-6,6-6h110c3.3,0,6,2.7,6,6S323.3,336,320,336z"/>
		</g>
		<g>
			<path class="st0" d="M135,446c-22.6,0-41-18.4-41-41s18.4-41,41-41s41,18.4,41,41S157.6,446,135,446z M135,376c-16,0-29,13-29,29
				s13,29,29,29s29-13,29-29S151,376,135,376z"/>
		</g>
		<g>
			<path class="st0" d="M300,416h-90c-3.3,0-6-2.7-6-6s2.7-6,6-6h90c3.3,0,6,2.7,6,6S303.3,416,300,416z"/>
		</g>
		<g>
			<path class="st0" d="M270,386h-60c-3.3,0-6-2.7-6-6s2.7-6,6-6h60c3.3,0,6,2.7,6,6S273.3,386,270,386z"/>
		</g>
		<g>
			<path class="st0" d="M320,446H210c-3.3,0-6-2.7-6-6s2.7-6,6-6h110c3.3,0,6,2.7,6,6S323.3,446,320,446z"/>
		</g>
		<g>
			<path class="st0" d="M270,106H60c-3.3,0-6-2.7-6-6s2.7-6,6-6h210c3.3,0,6,2.7,6,6S273.3,106,270,106z"/>
		</g>
		<g>
			<path class="st0" d="M310,106h-10c-3.3,0-6-2.7-6-6s2.7-6,6-6h10c3.3,0,6,2.7,6,6S313.3,106,310,106z"/>
		</g>
		<g>
			<path class="st0" d="M140,196c-1.5,0-3.1-0.6-4.2-1.8l-10-10c-2.3-2.3-2.3-6.1,0-8.5s6.1-2.3,8.5,0l6.5,6.5l25.9-17.3
				c2.8-1.8,6.5-1.1,8.3,1.7c1.8,2.8,1.1,6.5-1.7,8.3l-30,20C142.3,195.7,141.2,196,140,196z"/>
		</g>
	</g>
</g>
</svg>
