<?xml version="1.0" encoding="utf-8"?>
<!-- Generator: Adobe Illustrator 24.2.3, SVG Export Plug-In . SVG Version: 6.00 Build 0)  -->
<svg version="1.1" id="Capa_1" xmlns="http://www.w3.org/2000/svg" xmlns:xlink="http://www.w3.org/1999/xlink" x="0px" y="0px"
	 viewBox="0 0 512 640" style="enable-background:new 0 0 512 640;" xml:space="preserve">
<style type="text/css">
	.st0{fill:#B71874;}
</style>
<g>
	<g>
		<g>
			<path class="st0" d="M360,126h-42.3c-9,0-17.4-3.5-23.8-9.9c-6.3-6.4-9.8-14.8-9.7-23.8l0.3-52.3c0-3.3,2.7-6,6-6c0,0,0,0,0,0
				c3.3,0,6,2.7,6,6l-0.3,52.3c0,5.8,2.2,11.2,6.2,15.3c4.1,4.1,9.5,6.3,15.3,6.3H360c3.3,0,6,2.7,6,6S363.3,126,360,126z"/>
		</g>
		<g>
			<path class="st0" d="M184.5,386H80c-3.3,0-6-2.7-6-6s2.7-6,6-6h104.5c3.3,0,6,2.7,6,6S187.9,386,184.5,386z"/>
		</g>
		<g>
			<path class="st0" d="M170,356h-50c-3.3,0-6-2.7-6-6s2.7-6,6-6h50c3.3,0,6,2.7,6,6S173.3,356,170,356z"/>
		</g>
		<g>
			<path class="st0" d="M134.5,326H80c-3.3,0-6-2.7-6-6s2.7-6,6-6h54.5c3.3,0,6,2.7,6,6S137.9,326,134.5,326z"/>
		</g>
		<g>
			<path class="st0" d="M134.5,296H80c-3.3,0-6-2.7-6-6s2.7-6,6-6h54.5c3.3,0,6,2.7,6,6S137.9,296,134.5,296z"/>
		</g>
		<g>
			<path class="st0" d="M280,416H80c-3.3,0-6-2.7-6-6s2.7-6,6-6h200c3.3,0,6,2.7,6,6S283.3,416,280,416z"/>
		</g>
		<g>
			<path class="st0" d="M211.3,216H96c-12.1,0-22-9.9-22-22v-72c0-12.1,9.9-22,22-22h115.3c12.1,0,22,9.9,22,22v72
				C233.3,206.1,223.5,216,211.3,216z M96,112c-5.5,0-10,4.5-10,10v72c0,5.5,4.5,10,10,10h115.3c5.5,0,10-4.5,10-10v-72
				c0-5.5-4.5-10-10-10H96z"/>
		</g>
		<g>
			<path class="st0" d="M184,112h-60.7c-3.3,0-6-2.7-6-6V89c0-8.3,6.7-15,15-15H175c8.3,0,15,6.7,15,15v17
				C190,109.3,187.3,112,184,112z M129.3,100H178V89c0-1.7-1.3-3-3-3h-42.7c-1.7,0-3,1.3-3,3L129.3,100L129.3,100z"/>
		</g>
		<g>
			<path class="st0" d="M227.3,155.3H80c-3.3,0-6-2.7-6-6s2.7-6,6-6h147.3c3.3,0,6,2.7,6,6S230.6,155.3,227.3,155.3z"/>
		</g>
		<g>
			<path class="st0" d="M192.7,172c-3.3,0-6-2.7-6-6v-26c0-3.3,2.7-6,6-6s6,2.7,6,6v26C198.7,169.3,196,172,192.7,172z"/>
		</g>
		<g>
			<path class="st0" d="M114.7,172c-3.3,0-6-2.7-6-6v-26c0-3.3,2.7-6,6-6s6,2.7,6,6v26C120.7,169.3,118,172,114.7,172z"/>
		</g>
		<g>
			<path class="st0" d="M459.6,436c-6.5,0-12.7-2.5-17.3-7.2l-58.3-58.3c-1.3-1.3-1.9-3.1-1.7-4.9s1.2-3.4,2.7-4.4
				c9.7-6.3,18.1-14.7,24.5-24.4c1-1.5,2.6-2.5,4.4-2.7c1.8-0.2,3.6,0.4,4.9,1.7l58.3,58.3c9.6,9.6,9.6,25.1,0,34.7
				C472.3,433.5,466.1,436,459.6,436z M397.5,367l53.3,53.3c2.4,2.4,5.5,3.7,8.8,3.7c3.3,0,6.5-1.3,8.8-3.7c4.9-4.9,4.9-12.8,0-17.7
				l-53.3-53.3C410,356,404.1,361.9,397.5,367z"/>
		</g>
		<g>
			<path class="st0" d="M332.5,486h-265C49,486,34,471,34,452.5v-385C34,49,49,34,67.5,34h223c1.6,0,3.1,0.6,4.2,1.8l69.5,69.5
				c1.1,1.1,1.8,2.7,1.8,4.2v94.6c0,1.8-0.8,3.6-2.3,4.7c-1.4,1.1-3.3,1.6-5.1,1.1c-6.3-1.5-12.7-2.2-19.2-2.2
				c-46,0-83.5,37.4-83.5,83.5c0,46,37.4,83.5,83.5,83.5c6.4,0,12.9-0.7,19.2-2.2c1.8-0.4,3.7,0,5.1,1.1c1.4,1.1,2.3,2.9,2.3,4.7
				v74.2C366,471,351,486,332.5,486z M67.5,46C55.6,46,46,55.6,46,67.5v385c0,11.9,9.6,21.5,21.5,21.5h265
				c11.9,0,21.5-9.6,21.5-21.5v-66.9c-4.8,0.7-9.7,1.1-14.5,1.1c-52.6,0-95.5-42.8-95.5-95.5s42.8-95.5,95.5-95.5
				c4.9,0,9.7,0.4,14.5,1.1V112l-66-66H67.5z"/>
		</g>
		<g>
			<path class="st0" d="M339.5,386.7c-52.6,0-95.5-42.8-95.5-95.5s42.8-95.5,95.5-95.5c7.4,0,14.8,0.9,21.9,2.5
				c20.6,4.8,39.3,16.6,52.6,33.2c13.5,16.9,21,38.1,21,59.7c0,18.6-5.4,36.7-15.5,52.2c-7.3,11.2-16.7,20.6-28,27.9
				c-9.2,6-19.3,10.3-30.1,12.8C354.2,385.8,346.8,386.7,339.5,386.7z M339.5,207.7c-46,0-83.5,37.4-83.5,83.5
				c0,46,37.4,83.5,83.5,83.5c6.4,0,12.9-0.7,19.2-2.2c9.4-2.2,18.2-6,26.3-11.2c9.7-6.3,18.1-14.7,24.5-24.4
				c8.9-13.6,13.6-29.3,13.6-45.6c0-38.9-26.4-72.4-64.3-81.2C352.4,208.5,345.9,207.7,339.5,207.7z"/>
		</g>
		<g>
			<path class="st0" d="M339.5,346.7c-30.6,0-55.5-24.9-55.5-55.5s24.9-55.5,55.5-55.5c4.3,0,8.6,0.5,12.7,1.5
				c25.2,5.9,42.7,28.1,42.7,54c0,10.8-3.1,21.3-9,30.3c-4.3,6.5-9.7,12-16.2,16.2c-5.4,3.5-11.2,6-17.5,7.5
				C348,346.2,343.7,346.7,339.5,346.7z M339.5,247.7c-24,0-43.5,19.5-43.5,43.5s19.5,43.5,43.5,43.5c3.4,0,6.7-0.4,10-1.2
				c4.9-1.1,9.5-3.1,13.7-5.8c5-3.3,9.4-7.7,12.7-12.7c4.6-7.1,7.1-15.3,7.1-23.8c0-20.3-13.8-37.7-33.5-42.3
				C346.2,248.1,342.8,247.7,339.5,247.7z"/>
		</g>
	</g>
</g>
</svg>
