<?xml version="1.0" encoding="utf-8"?>
<!-- Generator: Adobe Illustrator 24.2.3, SVG Export Plug-In . SVG Version: 6.00 Build 0)  -->
<svg version="1.1" id="Capa_1" xmlns="http://www.w3.org/2000/svg" xmlns:xlink="http://www.w3.org/1999/xlink" x="0px" y="0px"
	 viewBox="0 0 512 640" style="enable-background:new 0 0 512 640;" xml:space="preserve">
<style type="text/css">
	.st0{fill:#B71874;}
	.st1{font-family:'Arial-BoldMT';}
	.st2{font-size:5px;}
</style>
<path class="st0" d="M201.8,84.6l33.7,4.9l15.1,30.5c1.5,3,5.1,4.2,8,2.7c1.2-0.6,2.1-1.5,2.7-2.7l15.1-30.5l33.7-4.9
	c3.3-0.5,5.6-3.5,5.1-6.8c-0.2-1.3-0.8-2.5-1.7-3.4l-24.4-23.8l5.8-33.6c0.6-3.3-1.6-6.4-4.9-6.9c-1.3-0.2-2.6,0-3.8,0.6L256,26.5
	l-30.1-15.9c-2.9-1.5-6.6-0.4-8.1,2.5c-0.6,1.2-0.8,2.5-0.6,3.8l5.7,33.6l-24.4,23.8c-2.4,2.3-2.4,6.1-0.1,8.5
	C199.3,83.8,200.5,84.4,201.8,84.6z M233.5,57c1.4-1.4,2.1-3.4,1.7-5.3L231,27l22.2,11.7c1.7,0.9,3.8,0.9,5.6,0L281,27l-4.2,24.7
	c-0.3,1.9,0.3,3.9,1.7,5.3l17.9,17.5l-24.8,3.6c-2,0.3-3.6,1.5-4.5,3.3L256,103.8l-11.1-22.5c-0.9-1.8-2.6-3-4.5-3.3l-24.8-3.6
	L233.5,57z"/>
<path class="st0" d="M61.5,138.5l33.7,4.9l15.1,30.5c1.5,3,5.1,4.2,8,2.7c1.2-0.6,2.1-1.5,2.7-2.7l15.1-30.5l33.7-4.9
	c3.3-0.5,5.6-3.5,5.1-6.8c-0.2-1.3-0.8-2.5-1.7-3.4l-24.4-23.8l5.8-33.6c0.6-3.3-1.6-6.4-4.9-6.9c-1.3-0.2-2.6,0-3.8,0.6l-30.1,15.9
	L85.5,64.6c-2.9-1.5-6.6-0.4-8.1,2.5c-0.6,1.2-0.8,2.5-0.6,3.8l5.8,33.6l-24.4,23.8c-2.4,2.3-2.4,6.1-0.1,8.5
	C59,137.7,60.2,138.3,61.5,138.5L61.5,138.5z M93.2,110.9c1.4-1.4,2.1-3.4,1.7-5.3l-4.2-24.7l22.2,11.7c1.7,0.9,3.8,0.9,5.6,0
	l22.2-11.7l-4.2,24.7c-0.3,1.9,0.3,3.9,1.7,5.3l17.9,17.5l-24.8,3.6c-2,0.3-3.6,1.5-4.5,3.3l-11.1,22.5l-11.1-22.5
	c-0.9-1.8-2.6-3-4.5-3.3l-24.8-3.6L93.2,110.9z"/>
<path class="st0" d="M342.2,138.5l33.7,4.9L391,174c1.5,3,5.1,4.2,8,2.7c1.2-0.6,2.1-1.5,2.7-2.7l15.1-30.5l33.7-4.9
	c3.3-0.5,5.6-3.5,5.1-6.8c-0.2-1.3-0.8-2.5-1.7-3.4l-24.4-23.8l5.8-33.6c0.6-3.3-1.6-6.4-4.9-6.9c-1.3-0.2-2.6,0-3.8,0.6l-30.2,15.9
	l-30.1-15.9c-2.9-1.5-6.6-0.4-8.1,2.5c-0.6,1.2-0.8,2.5-0.6,3.8l5.8,33.6l-24.4,23.8c-2.4,2.3-2.4,6.1-0.1,8.5
	C339.7,137.7,340.9,138.3,342.2,138.5L342.2,138.5z M373.9,110.9c1.4-1.4,2.1-3.4,1.7-5.3l-4.2-24.7l22.2,11.7
	c1.7,0.9,3.8,0.9,5.6,0l22.2-11.7l-4.2,24.7c-0.3,1.9,0.3,3.9,1.7,5.3l17.9,17.5L412,132c-2,0.3-3.6,1.5-4.5,3.3l-11.1,22.5
	l-11.1-22.5c-0.9-1.8-2.6-3-4.5-3.3l-24.8-3.6L373.9,110.9z"/>
<path class="st0" d="M174.7,231.7c21.6,0,39.2-17.6,39.2-39.2s-17.6-39.2-39.2-39.2h0c-21.6,0-39.2,17.6-39.2,39.2
	C135.5,214.1,153,231.7,174.7,231.7C174.7,231.7,174.7,231.7,174.7,231.7L174.7,231.7z M147.4,192.5c0-15,12.2-27.2,27.2-27.2h0
	c15,0,27.2,12.2,27.3,27.2c0,15-12.2,27.2-27.2,27.2c0,0,0,0,0,0h0C159.7,219.7,147.5,207.5,147.4,192.5L147.4,192.5z"/>
<path class="st0" d="M378.4,496.3l7-125l18,0c3.3,0,6-2.7,6-6l0-45.4c-0.1-27.8-22.6-50.2-50.3-50.2h0l-44,0
	c-10.5,0-20.8,3.4-29.3,9.5c-5.1-10.6-15.8-17.3-27.5-17.3c0,0,0,0,0,0c-7.4,0-14.5,2.7-20.1,7.5c-9.4-13.4-24.8-21.4-41.1-21.4h0
	l-44,0c-27.8,0.1-50.2,22.5-50.3,50.3l0,56.2c0,3.3,2.7,6,6,6l0,0l18,0l7.5,135.7c0.2,3.2,2.8,5.7,6,5.7h70.2c3.2,0,5.8-2.5,6-5.7
	l3.8-74h6.8l7.2,74.2c0.3,3.1,2.9,5.4,6,5.4h36.6c3.1,0,5.7-2.4,6-5.5l6.7-74.3h2.2l4.6,74.1c0.2,3.2,2.8,5.6,6,5.6h70.2
	C375.6,502,378.2,499.5,378.4,496.3z M258.1,273.9L258.1,273.9c10.2,0,18.5,8.3,18.6,18.5c0,10.2-8.3,18.5-18.6,18.5h0
	c-10.2,0-18.5-8.3-18.6-18.5C239.6,282.2,247.9,273.9,258.1,273.9L258.1,273.9z M283.9,410.3c-3.1,0-5.7,2.4-6,5.5l-6.7,74.3h-25.6
	l-7.2-74.3c-0.3-3.1-2.9-5.4-6-5.4l0,0l-17.4,0l0-25.3c0.1-20.8,16.9-37.7,37.8-37.7l10.7,0h0c20.8,0,37.7,16.9,37.8,37.7l0,25.3
	L283.9,410.3z M307.8,490l-4.2-67.7h3.7c3.3,0,6-2.7,6-6l0-31.3c-0.1-27.5-22.3-49.7-49.8-49.7h0l-10.7,0
	c-27.4,0.1-49.7,22.3-49.7,49.7l0,31.3c0,2.9,2.1,5.5,5.1,5.9l-3.5,67.7h-58.8l-7.5-135.7c-0.2-3.2-2.8-5.7-6-5.7l0,0l-17.6,0
	l0-50.2c0.1-21.1,17.2-38.2,38.3-38.3l44,0h0c12.7,0,24.6,6.3,31.8,16.9c0.6,0.9,1.2,1.8,1.7,2.7c-7,15.3-0.3,33.5,15,40.5
	c4,1.8,8.4,2.8,12.8,2.8h0c16.9,0,30.5-13.7,30.5-30.5c0-0.1,0-0.1,0-0.2c0.8-0.7,1.5-1.4,2.3-2.1c6.8-5.5,15.2-8.5,23.9-8.5l44,0h0
	c21.1,0,38.3,17.1,38.3,38.2l0,39.4l-17.7,0c-3.2,0-5.8,2.5-6,5.7l-7,125H307.8z"/>
<path class="st0" d="M297.5,214.1c0.1,21.6,17.6,39.2,39.3,39.2h0c14.9,0,28.6-8.5,35.2-21.9h5.2c12.9-0.1,23.2-10.6,23.1-23.4
	c-0.1-12.7-10.4-23.1-23.1-23.1h-14.4c-7.2-6.4-16.5-9.9-26.1-9.9h0C315.1,174.9,297.5,192.4,297.5,214.1L297.5,214.1z M388.5,208.1
	c0,6.2-5.1,11.3-11.3,11.3h-1.6c0.2-1.8,0.4-3.6,0.4-5.3c0-6-1.4-11.9-4-17.2h5.2C383.5,196.8,388.5,201.9,388.5,208.1L388.5,208.1z
	 M317.5,194.9c5.1-5.1,12-8,19.3-8h0c8.1,0,15.8,3.6,21,9.9v0.1h0c9.5,11.6,7.9,28.7-3.7,38.3c-4.9,4-11,6.2-17.3,6.2h0
	c-15,0-27.2-12.1-27.3-27.1C309.5,206.9,312.4,200,317.5,194.9L317.5,194.9z"/>
<text transform="matrix(1 0 0 1 0 527)" class="st1 st2">Created by Icongeek26</text>
<text transform="matrix(1 0 0 1 0 532)" class="st1 st2">from the Noun Project</text>
</svg>
