<?xml version="1.0" encoding="utf-8"?>
<!-- Generator: Adobe Illustrator 24.2.3, SVG Export Plug-In . SVG Version: 6.00 Build 0)  -->
<svg version="1.1" id="Capa_1" xmlns="http://www.w3.org/2000/svg" xmlns:xlink="http://www.w3.org/1999/xlink" x="0px" y="0px"
	 viewBox="0 0 64 80" style="enable-background:new 0 0 64 80;" xml:space="preserve">
<style type="text/css">
	.st0{fill:#874BA3;}
</style>
<path class="st0" d="M9.3,7.5C8.1,7.5,7,8.6,7,9.8v5.7c0,0.6,0.4,1,1,1s1-0.4,1-1V9.8c0-0.2,0.2-0.4,0.4-0.4h6.1c0.6,0,1-0.4,1-1
	s-0.4-1-1-1L9.3,7.5z"/>
<path class="st0" d="M7.9,47.6c-0.6,0-1,0.4-1,1v5.6c0,1.3,1.1,2.3,2.4,2.3c0,0,0,0,0,0h6.2c0.5,0.1,1.1-0.2,1.2-0.8
	c0.1-0.5-0.2-1.1-0.8-1.2c-0.1,0-0.3,0-0.4,0H9.3c-0.2,0-0.4-0.1-0.4-0.4v-5.7C8.9,48,8.5,47.6,7.9,47.6z"/>
<path class="st0" d="M54.7,56.5c1.3,0,2.4-1,2.4-2.3c0,0,0,0,0,0v-5.6c-0.1-0.5-0.7-0.9-1.2-0.8c-0.4,0.1-0.7,0.4-0.8,0.8v5.6
	c0,0.2-0.2,0.4-0.4,0.4h-6.2c-0.5-0.1-1.1,0.2-1.2,0.8c-0.1,0.5,0.2,1.1,0.8,1.2c0.1,0,0.3,0,0.4,0H54.7z"/>
<path class="st0" d="M57,9.8c0-1.3-1.1-2.3-2.4-2.3c0,0,0,0,0,0h-6.2c-0.6,0-1,0.4-1,1c0,0.6,0.4,1,1,1h6.2c0.2,0,0.4,0.1,0.4,0.4
	v5.7c-0.1,0.5,0.2,1.1,0.8,1.2c0.5,0.1,1.1-0.2,1.2-0.8c0-0.1,0-0.3,0-0.4V9.8z"/>
<path class="st0" d="M1,32.5L1,32.5c1.2,1.5,2.5,3,3.8,4.3C4.9,36.9,5,37,5.2,37c0.1,0.1,0.3,0.2,0.5,0.2c0.2,0,0.5-0.1,0.6-0.2
	l1.9-1.8c0.2-0.2,0.3-0.5,0.3-0.7l-0.2-2l0.3-0.3c0.4,0.3,1,0.4,1.5,0.4c0.3,0,0.5,0,0.7-0.1c1.4-0.4,2.2-1.9,1.8-3.3
	c-0.4-1.4-1.9-2.1-3.3-1.8c-1.4,0.4-2.2,1.8-1.8,3.2l-0.8,0.8c-0.2,0.2-0.3,0.4-0.2,0.7l0.2,2L5.8,35c-1.3-1.4-2.2-2.4-2.7-3
	C5.6,29,17.7,15.3,32,15.3c6.4,0,13.1,2.6,19.8,7.9l-0.6,0.8l-2-0.1c-0.3,0-0.5,0.1-0.7,0.3l-0.6,0.6c-1.1-0.4-2.3,0-3,1
	c-0.8,1.2-0.5,2.8,0.7,3.6c0.4,0.3,0.9,0.4,1.4,0.4l0,0c1.4,0,2.6-1.2,2.6-2.6c0-0.5-0.1-1-0.4-1.4l0.2-0.2l2.1,0.1
	c0.3,0,0.5-0.1,0.7-0.3l1.5-1.8l0.1-0.1c0.1-0.1,0.1-0.2,0.2-0.4c0.1-0.2,0-0.5-0.1-0.7c-0.1-0.1-0.1-0.3-0.3-0.3
	c-7.3-5.8-14.6-8.8-21.6-8.8c-17,0-30.4,17.3-31,18c0,0,0,0,0,0c0,0.1-0.1,0.1-0.1,0.2c0,0.1,0,0.1-0.1,0.2c0,0.1,0,0.1,0,0.2
	c0,0.1,0,0.1,0,0.2c0,0.1,0,0.1,0.1,0.2C0.9,32.4,1,32.5,1,32.5z M9.7,29.2c0.1,0,0.2,0,0.3,0c0.5,0.1,0.8,0.5,0.7,1
	c-0.1,0.5-0.5,0.8-1,0.7c-0.5-0.1-0.8-0.5-0.7-1C9.1,29.5,9.3,29.2,9.7,29.2z M47.8,27.6c-0.3,0.4-0.8,0.5-1.2,0.2
	c-0.2-0.1-0.3-0.3-0.4-0.5c0-0.2,0-0.5,0.1-0.6c0.2-0.2,0.4-0.4,0.7-0.4c0.2,0,0.3,0.1,0.5,0.1C47.9,26.7,48,27.2,47.8,27.6z"/>
<path class="st0" d="M21.4,32c0,5.9,4.8,10.7,10.6,10.7S42.7,37.9,42.7,32S37.9,21.4,32,21.4l0,0C26.1,21.4,21.4,26.1,21.4,32z
	 M40.7,32c0,4.8-3.9,8.7-8.7,8.7c-4.8,0-8.7-3.9-8.7-8.7s3.9-8.7,8.7-8.7C36.8,23.3,40.7,27.2,40.7,32z"/>
<path class="st0" d="M27.2,30.9c-0.6,2.7,1,5.3,3.7,5.9c1.5,0.3,3,0,4.2-0.9c0.3-0.4,0.3-1.1-0.2-1.4c-0.3-0.2-0.7-0.3-1.1-0.1
	c-0.7,0.6-1.6,0.8-2.5,0.6c-1.6-0.4-2.6-2-2.3-3.6c0.3-1.6,1.9-2.7,3.6-2.3c0.5,0.1,1,0.3,1.4,0.7c0.4,0.3,1,0.3,1.4-0.1
	c0.3-0.4,0.3-1-0.1-1.4c-2-1.8-5.2-1.6-7,0.4C27.8,29.3,27.4,30.1,27.2,30.9L27.2,30.9z"/>
<path class="st0" d="M35,31.7c0,0.2,0,0.3,0,0.5c0,0.5,0.4,1,0.9,1H36c0.5,0,0.9-0.4,1-0.9c0-0.3,0-0.5,0-0.8
	c-0.1-0.5-0.5-0.9-1-0.9C35.4,30.7,35,31.2,35,31.7C35,31.7,35,31.7,35,31.7z"/>
<path class="st0" d="M56.6,24.4c-0.3-0.3-0.9-0.3-1.2,0L48.1,32c-1.2-0.4-2.4,0-3.1,1c-0.8,1.2-0.5,2.8,0.7,3.6s2.8,0.5,3.6-0.7
	c0.4-0.6,0.5-1.3,0.4-2c-0.1-0.3-0.1-0.5-0.3-0.8l7.2-7.6C56.9,25.2,56.9,24.7,56.6,24.4z M47.9,35c-0.3,0.4-0.8,0.5-1.2,0.2
	s-0.5-0.8-0.2-1.2c0.2-0.2,0.4-0.4,0.7-0.4c0.2,0,0.3,0,0.5,0.1c0.2,0.1,0.3,0.3,0.4,0.5C48.1,34.5,48,34.8,47.9,35z"/>
<path class="st0" d="M63.1,31.8c0-0.1,0-0.1-0.1-0.2c0-0.1,0-0.1-0.1-0.2c0,0,0,0,0,0c-1.2-1.5-2.5-3-3.8-4.3
	C59.1,27,59,27,58.8,26.9c-0.3-0.2-0.8-0.2-1.1,0.1l-1.9,1.8c-0.2,0.2-0.3,0.5-0.3,0.7l0.2,2l-0.3,0.3c-0.6-0.4-1.4-0.6-2.2-0.4
	c-1.4,0.4-2.2,1.8-1.8,3.2c0.3,1.1,1.3,1.9,2.5,1.9c0.3,0,0.5,0,0.8-0.1c1.4-0.4,2.2-1.8,1.8-3.2l0.8-0.8c0.2-0.2,0.3-0.4,0.2-0.7
	l-0.2-2l0.9-0.8c1.3,1.4,2.2,2.4,2.7,3C58.5,35,46.3,48.7,32,48.7c-6.4,0-13.1-2.6-19.8-7.8l0.6-0.8l2,0.1c0.3,0,0.5-0.1,0.7-0.3
	l0.6-0.6c0.3,0.1,0.5,0.1,0.8,0.1c0.9,0,1.7-0.4,2.2-1.2c0.4-0.6,0.5-1.3,0.4-2c-0.1-0.7-0.5-1.3-1.1-1.7c-1.2-0.8-2.8-0.5-3.6,0.7
	c-0.6,0.9-0.6,2,0,2.8l-0.2,0.2l-2.1-0.1c-0.3,0-0.5,0.1-0.7,0.3l-1.5,1.8l-0.1,0.1c-0.1,0.1-0.1,0.2-0.2,0.3
	c-0.1,0.2,0,0.5,0.1,0.7c0.1,0.1,0.1,0.3,0.3,0.3c7.3,5.8,14.6,8.8,21.6,8.8c17,0,30.4-17.3,31-18c0,0,0,0,0,0
	c0-0.1,0.1-0.1,0.1-0.2c0-0.1,0-0.1,0.1-0.2c0-0.1,0-0.1,0-0.2C63.2,31.9,63.2,31.9,63.1,31.8z M54.3,34.8c-0.5,0.1-0.9-0.1-1.1-0.6
	c-0.1-0.2,0-0.5,0.1-0.7c0.1-0.2,0.3-0.3,0.5-0.4c0.1,0,0.2,0,0.3,0c0.5,0,0.9,0.4,0.8,0.9C54.9,34.4,54.6,34.8,54.3,34.8L54.3,34.8
	z M16.2,36.4c0.2-0.2,0.4-0.4,0.7-0.4c0.2,0,0.3,0.1,0.5,0.2c0.2,0.1,0.3,0.3,0.4,0.5c0,0.2,0,0.5-0.1,0.7c-0.2,0.2-0.4,0.4-0.7,0.4
	c-0.2,0-0.3-0.1-0.5-0.2C16.1,37.3,16,36.8,16.2,36.4z"/>
<path class="st0" d="M16.8,32.1c1.4,0,2.6-1.2,2.6-2.6c0-0.9-0.4-1.7-1.2-2.2c-1.2-0.8-2.8-0.5-3.6,0.7c-0.5,0.8-0.6,1.9-0.1,2.7
	l-7.2,7.7C7,38.7,7,39.3,7.3,39.6C7.6,40,8.2,40,8.6,39.7c0,0,0.1-0.1,0.1-0.1l7.2-7.7C16.2,32,16.5,32.1,16.8,32.1z M16.1,29
	c0.3-0.4,0.8-0.5,1.2-0.2c0.4,0.3,0.5,0.8,0.2,1.2l0,0c-0.2,0.2-0.4,0.4-0.7,0.4c-0.2,0-0.3,0-0.5-0.1C16,29.9,15.9,29.4,16.1,29
	C16.1,29,16.1,29,16.1,29z"/>
</svg>
