<?xml version="1.0" encoding="utf-8"?>
<!-- Generator: Adobe Illustrator 24.2.3, SVG Export Plug-In . SVG Version: 6.00 Build 0)  -->
<svg version="1.1" id="Capa_1" xmlns="http://www.w3.org/2000/svg" xmlns:xlink="http://www.w3.org/1999/xlink" x="0px" y="0px"
	 viewBox="0 0 64 80" style="enable-background:new 0 0 64 80;" xml:space="preserve">
<style type="text/css">
	.st0{fill:#D8137B;}
</style>
<path class="st0" d="M53.7,27.2c4.5-3.1,5.7-9.4,2.5-13.9c-1.7-2.4-4.3-4-7.2-4.3V7c0-2.8-2.2-5-5-5H7C4.2,2,2,4.2,2,7v33
	c0,2.8,2.2,5,5,5h27v7c0,2.2,1.8,4,4,4h1v6h2V41h-2v13h-1c-1.1,0-2-0.9-2-2V40c0-5.4,3.6-10.1,8.8-11.5c2.1,0.7,4.3,0.7,6.4,0
	C56.4,29.9,60,34.6,60,40v12c0,1.1-0.9,2-2,2h-1V41h-2v21h2v-6h1c2.2,0,4-1.8,4-4V40C62,34.5,58.7,29.5,53.7,27.2z M7,43
	c-1.7,0-3-1.3-3-3V7c0-1.7,1.3-3,3-3h37c1.7,0,3,1.3,3,3v2.1c-0.7,0.1-1.3,0.2-2,0.4V9c0-1.7-1.3-3-3-3H9C7.3,6,6,7.3,6,9v29
	c0,1.7,1.3,3,3,3h25v2H7z M24,28c-4.4,0-8-3.6-8-8s3.6-8,8-8s8,3.6,8,8C32,24.4,28.4,28,24,28z M24,30c1.1,0,2.2-0.2,3.2-0.5
	c3.3,0.9,6,3.1,7.5,6.2c-0.4,1.1-0.6,2.2-0.7,3.4H12.2c0.8-4.6,4.1-8.3,8.6-9.5C21.8,29.8,22.9,30,24,30z M35.7,33.3
	c-1.5-2.2-3.6-4-6-5.1c4.6-3.1,5.7-9.4,2.6-13.9s-9.4-5.7-13.9-2.6s-5.7,9.4-2.6,13.9c0.7,1,1.6,1.9,2.6,2.6
	c-4.4,1.9-7.5,6-8.2,10.8H9c-0.6,0-1-0.4-1-1v-5.6l4.7-4.7l-1.4-1.4L8,29.6V9c0-0.6,0.4-1,1-1h21.6l-1.3,1.3l1.4,1.4L33.4,8h2.2
	l-3.3,3.3l1.4,1.4L38.4,8H42c0.6,0,1,0.4,1,1v1.4c-4.8,2.7-6.4,8.8-3.7,13.6c0.7,1.3,1.8,2.4,3,3.2C39.5,28.5,37.2,30.6,35.7,33.3z
	 M40,19c0-4.4,3.6-8,8-8s8,3.6,8,8s-3.6,8-8,8C43.6,27,40,23.4,40,19z"/>
<rect x="47" y="55" class="st0" width="2" height="7"/>
<circle class="st0" cx="21" cy="19" r="1"/>
<circle class="st0" cx="27" cy="19" r="1"/>
<path class="st0" d="M24,24c-1.3,0-2.4-0.6-3.2-1.6l-1.6,1.2c2,2.7,5.7,3.2,8.4,1.2c0.5-0.3,0.9-0.7,1.2-1.2l-1.6-1.2
	C26.4,23.4,25.3,24,24,24z"/>
<path class="st0" d="M4,55h2v7h2v-7h18v7h2v-7h2v7h2V50c0-0.6-0.4-1-1-1H3c-0.6,0-1,0.4-1,1v12h2V55z M30,51v2H4v-2H30z"/>
<rect x="9.6" y="22" transform="matrix(0.7071 -0.7071 0.7071 0.7071 -13.0419 14.5145)" class="st0" width="2.8" height="2"/>
</svg>
