<?xml version="1.0" encoding="utf-8"?>
<!-- Generator: Adobe Illustrator 24.2.3, SVG Export Plug-In . SVG Version: 6.00 Build 0)  -->
<svg version="1.1" id="Capa_1" xmlns="http://www.w3.org/2000/svg" xmlns:xlink="http://www.w3.org/1999/xlink" x="0px" y="0px"
	 viewBox="0 0 64 80" style="enable-background:new 0 0 64 80;" xml:space="preserve">
<style type="text/css">
	.st0{fill:#C95BC3;}
</style>
<path class="st0" d="M49.4,50.8l4.9-17c0.5-1.6-0.5-3.3-2.1-3.7C51.9,30,51.6,30,51.3,30H42v2h9.3c0.6,0,1,0.4,1,1
	c0,0.1,0,0.2,0,0.3l-4.9,17c-0.1,0.4-0.5,0.7-1,0.7H22.6c-0.5,0-0.9-0.3-1-0.8L17.3,32H27v-2H16.9L14,17.8c-0.1-0.5-0.5-0.8-1-0.8H5
	v2h7.2l7.5,31.7C20,52,21.2,53,22.6,53h23.9C47.8,53,49,52.1,49.4,50.8z"/>
<path class="st0" d="M38,59c0,2.2,1.8,4,4,4s4-1.8,4-4s-1.8-4-4-4S38,56.8,38,59z M44,59c0,1.1-0.9,2-2,2s-2-0.9-2-2s0.9-2,2-2
	S44,57.9,44,59z"/>
<path class="st0" d="M27,55c-2.2,0-4,1.8-4,4s1.8,4,4,4s4-1.8,4-4S29.2,55,27,55z M27,61c-1.1,0-2-0.9-2-2s0.9-2,2-2s2,0.9,2,2
	S28.1,61,27,61z"/>
<path class="st0" d="M24.5,16c0,3.6,1.9,6.8,5,8.6V29c0,2.8,2.2,5,5,5s5-2.2,5-5v-4.4c4.8-2.8,6.4-8.9,3.6-13.7
	c-1.8-3.2-5.3-5.1-8.9-5C28.8,6.2,24.5,10.6,24.5,16z M34.5,32c-1.1,0-2.1-0.6-2.6-1.5h5.2C36.6,31.4,35.6,32,34.5,32z M37.5,28.5
	h-6V27h6V28.5z M34.3,7.9c0.1,0,0.2,0,0.2,0c4.4,0,8,3.6,8,8c0,3-1.7,5.8-4.4,7.2c-0.3,0.2-0.6,0.5-0.6,0.9v1h-6v-1
	c0-0.4-0.2-0.7-0.6-0.9c-2.7-1.3-4.4-4.1-4.4-7.1C26.5,11.7,29.9,8.1,34.3,7.9z"/>
<rect x="33.5" y="1" class="st0" width="2" height="3"/>
<rect x="19.5" y="15" class="st0" width="3" height="2"/>
<rect x="46.5" y="15" class="st0" width="3" height="2"/>
<rect x="24" y="5" transform="matrix(0.7071 -0.7071 0.7071 0.7071 2.7448 19.5355)" class="st0" width="2" height="3"/>
<rect x="42.5" y="5.5" transform="matrix(0.7071 -0.7071 0.7071 0.7071 8.3368 33.0356)" class="st0" width="3" height="2"/>
<rect x="24" y="47" class="st0" width="2" height="2"/>
<rect x="28" y="47" class="st0" width="17" height="2"/>
</svg>
