<?xml version="1.0" encoding="utf-8"?>
<!-- Generator: Adobe Illustrator 24.2.3, SVG Export Plug-In . SVG Version: 6.00 Build 0)  -->
<svg version="1.1" id="Capa_1" xmlns="http://www.w3.org/2000/svg" xmlns:xlink="http://www.w3.org/1999/xlink" x="0px" y="0px"
	 viewBox="0 0 128 160" style="enable-background:new 0 0 128 160;" xml:space="preserve">
<style type="text/css">
	.st0{fill:#4618D3;}
</style>
<path class="st0" d="M110,63H58c-1.1,0-2,0.9-2,2s0.9,2,2,2h15v57h-3c-1.1,0-2,0.9-2,2s0.9,2,2,2h28c1.1,0,2-0.9,2-2s-0.9-2-2-2h-3
	V67h15c1.1,0,2-0.9,2-2S111.1,63,110,63z M91,124H77V67h14V124z"/>
<path class="st0" d="M94.5,19.1c-1.1-0.3-2.2,0.4-2.4,1.5c0,0,0,0,0,0l-6,24c-0.3,1.1,0.4,2.2,1.4,2.4c1.1,0.3,2.2-0.4,2.4-1.4l0,0
	l1.7-6.7l5.6,16.7H90c-1.1,0-2,0.9-2,2s0.9,2,2,2h10c1.1,0,2-0.9,2-2c0-0.2,0-0.4-0.1-0.6l-8.4-25c0-0.1-0.1-0.2-0.1-0.3l2.5-10.1
	C96.2,20.5,95.6,19.4,94.5,19.1C94.5,19.1,94.5,19.1,94.5,19.1z"/>
<path class="st0" d="M26,11c0,6.1,4.9,11,11,11s11-4.9,11-11S43.1,0,37,0S26,4.9,26,11z M44,11c0,3.9-3.1,7-7,7s-7-3.1-7-7
	s3.1-7,7-7S44,7.1,44,11z"/>
<path class="st0" d="M65.8,86.5c0-7-6-13.4-12.8-13.5h-7v-17h15.4c0.3,0,0.6,0,0.9-0.1c-0.6,0.9-0.3,2.2,0.7,2.7
	c0.3,0.2,0.7,0.3,1,0.3h14c1.1,0,2-0.9,2-2s-0.9-2-2-2H64.8c2-1.3,3.2-3.5,3.2-5.8v-0.2c0,0,0-0.1,0-0.1c-0.2-3.7-3.3-6.7-7-6.9
	c-0.1,0-5.7,0-9.7-0.3c-1.6-0.1-3-1.1-3.5-2.6c-0.8-2.4-1.8-4.8-3-7c-1.9-3.4-5.4-5.7-9.3-6c-3.4-0.4-6.8,0.9-9,3.6
	c-1.6,1.9-2.4,4.3-2.4,6.8V81c0,4.6,3.7,8.3,8.3,8.3H49c0.5,0,0.9,0.4,1,0.8v30.1c0,2.1,0.9,4.1,2.4,5.5c1.4,1.3,3.3,2.1,5.2,2.2H58
	c2.1,0,4-0.8,5.5-2.2c1.6-1.5,2.5-3.6,2.5-5.8C66,119.7,65.7,99.9,65.8,86.5z M60.7,122.9c-0.8,0.8-1.8,1.2-2.9,1.1
	c-1,0-1.9-0.4-2.7-1.1c-0.7-0.7-1.1-1.6-1.1-2.6V90.2c0-2.7-2.3-4.9-5-4.8H32.3c-2.4,0-4.3-1.9-4.3-4.3l0,0V36.4
	c0-1.6,0.5-3.1,1.5-4.3c1.2-1.4,3-2.2,4.8-2.1c0.3,0,0.5,0,0.8,0c2.6,0.2,4.9,1.6,6.2,3.9c1.1,2.1,2,4.3,2.8,6.6c1.1,3,3.8,5,7,5.3
	c4.1,0.3,9.7,0.3,10,0.3c1.6,0.2,2.8,1.4,3,3v0.2c0.1,1.5-1.1,2.8-2.6,2.9h-7.9c-0.2,0-0.3,0-0.5,0l0,0h-9l0,0c-1.6,0-3.1-1-3.7-2.5
	l-2.4-6.2c-0.4-1-1.6-1.5-2.6-1.1c-1,0.4-1.5,1.6-1.1,2.6l2.5,6.2c0.9,2.4,3,4.1,5.4,4.7V75c0,1.1,0.9,2,2,2h9
	c4.5,0,8.8,4.6,8.8,9.5C61.7,100,62,119.8,62,120C62,121.1,61.5,122.1,60.7,122.9z"/>
<path class="st0" d="M40,105.1c3.3,0.3,6.2-2.1,6.6-5.4c0.3-3.3-2.1-6.2-5.4-6.6c-0.4,0-0.8,0-1.2,0H20V40c0-3.3-2.7-6-6-6
	s-6,2.7-6,6v55.1c0,5.6,4.6,10.1,10.1,10.1H22v11.9h-1.3c-2.2-3.1-6.5-3.9-9.7-1.7s-3.9,6.5-1.7,9.7c2.2,3.1,6.5,3.9,9.7,1.7
	c1.9-1.3,3-3.5,3-5.7h10c0,3.9,3.1,7,7,7s7-3.1,7-7c0-3.9-3.1-7-7-7c-2.3,0-4.4,1.1-5.7,3H32v-11.9H40z M15,124c-1.7,0-3-1.3-3-3
	s1.3-3,3-3s3,1.3,3,3S16.7,124,15,124L15,124z M39,118c1.7,0,3,1.3,3,3s-1.3,3-3,3s-3-1.3-3-3l0,0C36,119.4,37.4,118,39,118L39,118z
	 M28,117h-2v-11.9h2V117z M18.1,101.1c-3.3,0-6.1-2.7-6.1-6V40c0-1.1,0.9-2,2-2s2,0.9,2,2v53.2c0,2.2,1.8,4,4,4h20c1.1,0,2,0.9,2,2
	s-0.9,2-2,2L18.1,101.1z"/>
</svg>
