<?xml version="1.0" encoding="utf-8"?>
<!-- Generator: Adobe Illustrator 24.2.3, SVG Export Plug-In . SVG Version: 6.00 Build 0)  -->
<svg version="1.1" id="Capa_1" xmlns="http://www.w3.org/2000/svg" xmlns:xlink="http://www.w3.org/1999/xlink" x="0px" y="0px"
	 viewBox="0 0 128 160" style="enable-background:new 0 0 128 160;" xml:space="preserve">
<style type="text/css">
	.st0{fill:#B223C1;}
</style>
<path class="st0" d="M25,32c3.3,0,6-2.7,6-6s-2.7-6-6-6s-6,2.7-6,6C19,29.3,21.7,32,25,32z M25,24c1.1,0,2,0.9,2,2s-0.9,2-2,2
	s-2-0.9-2-2C23,24.9,23.9,24,25,24z"/>
<path class="st0" d="M96,26c0,3.3,2.7,6,6,6s6-2.7,6-6s-2.7-6-6-6C98.7,20,96,22.7,96,26z M102,24c1.1,0,2,0.9,2,2s-0.9,2-2,2
	s-2-0.9-2-2C100,24.9,100.9,24,102,24z"/>
<path class="st0" d="M62,15.6v8.4c0.7,0,1.3-0.1,2-0.1c0.7,0,1.3,0,2,0.1v-8.4c3.1-1.1,4.8-4.5,3.7-7.7S65.1,3.2,62,4.3
	c-3.1,1.1-4.8,4.5-3.7,7.7C58.9,13.7,60.3,15,62,15.6z M64,8c1.1,0,2,0.9,2,2s-0.9,2-2,2s-2-0.9-2-2C62,8.9,62.9,8,64,8z"/>
<path class="st0" d="M34,12c0.9,0,1.8-0.2,2.6-0.6c0,0,0,0,0,0.1l9.4,8.8v8c1.3-0.7,2.6-1.2,4-1.8v-7.1c0-0.6-0.2-1.1-0.6-1.5
	l-10-9.4c1.4-3,0.2-6.6-2.8-8s-6.6-0.2-8,2.8c-1.4,3-0.2,6.6,2.8,8C32.2,11.8,33.1,12,34,12z M34,4c1.1,0,2,0.9,2,2s-0.9,2-2,2
	s-2-0.9-2-2C32,4.9,32.9,4,34,4z"/>
<path class="st0" d="M66,112.4v-8.4c-0.7,0-1.3,0.1-2,0.1s-1.3,0-2-0.1v8.4c-3.1,1.1-4.8,4.5-3.7,7.7c1.1,3.1,4.5,4.8,7.7,3.7
	c3.1-1.1,4.8-4.5,3.7-7.7C69.1,114.3,67.7,113,66,112.4z M64,120c-1.1,0-2-0.9-2-2s0.9-2,2-2s2,0.9,2,2C66,119.1,65.1,120,64,120z"
	/>
<path class="st0" d="M94,116c-0.9,0-1.8,0.2-2.6,0.6c0,0,0,0,0-0.1l-9.4-8.8v-8c-1.3,0.7-2.6,1.2-4,1.8v7.1c0,0.6,0.2,1.1,0.6,1.5
	l10,9.4c-1.4,3-0.2,6.6,2.8,8c3,1.4,6.6,0.2,8-2.8c1.4-3,0.2-6.6-2.8-8C95.8,116.2,94.9,116,94,116z M94,124c-1.1,0-2-0.9-2-2
	s0.9-2,2-2s2,0.9,2,2C96,123.1,95.1,124,94,124z"/>
<path class="st0" d="M118,70c3.3,0,6-2.7,6-6c0-3.3-2.7-6-6-6c-2.5,0-4.8,1.6-5.7,4h-8.4c0,0.7,0.1,1.3,0.1,2c0,0.7,0,1.3-0.1,2h8.4
	C113.2,68.4,115.5,70,118,70z M118,62c1.1,0,2,0.9,2,2s-0.9,2-2,2s-2-0.9-2-2C116,62.9,116.9,62,118,62z"/>
<path class="st0" d="M122,88c-0.9,0-1.8,0.2-2.6,0.6l-9.4-10c-0.4-0.4-0.9-0.6-1.5-0.6h-7.1c-0.5,1.4-1.1,2.7-1.8,4h8l8.8,9.4
	c0,0,0,0,0.1,0c-0.4,0.8-0.6,1.7-0.6,2.6c0,3.3,2.7,6,6,6s6-2.7,6-6S125.3,88,122,88z M122,96c-1.1,0-2-0.9-2-2s0.9-2,2-2s2,0.9,2,2
	C124,95.1,123.1,96,122,96z"/>
<path class="st0" d="M10,58c-3.3,0-6,2.7-6,6c0,3.3,2.7,6,6,6c2.5,0,4.8-1.6,5.7-4h8.4c0-0.7-0.1-1.3-0.1-2c0-0.7,0-1.3,0.1-2h-8.4
	C14.8,59.6,12.5,58,10,58z M10,66c-1.1,0-2-0.9-2-2s0.9-2,2-2s2,0.9,2,2C12,65.1,11.1,66,10,66z"/>
<path class="st0" d="M6,40c0.9,0,1.8-0.2,2.6-0.6l9.4,10c0.4,0.4,0.9,0.6,1.5,0.6h7.1c0.5-1.4,1.1-2.7,1.8-4h-8l-8.8-9.4
	c0,0,0,0-0.1,0c1.4-3,0.2-6.6-2.8-8c-3-1.4-6.6-0.2-8,2.8s-0.2,6.6,2.8,8C4.2,39.8,5.1,40,6,40z M6,32c1.1,0,2,0.9,2,2s-0.9,2-2,2
	s-2-0.9-2-2C4,32.9,4.9,32,6,32z"/>
<path class="st0" d="M108,72c0-1.1-0.9-2-2-2h-2.5c-0.2,1.3-0.5,2.7-0.8,4h3.3C107.1,74,108,73.1,108,72z"/>
<path class="st0" d="M106,58c1.1,0,2-0.9,2-2s-0.9-2-2-2h-3.3c0.3,1.3,0.6,2.7,0.8,4H106z"/>
<path class="st0" d="M116.5,36.6l-8.8,9.4h-8c0.7,1.3,1.2,2.6,1.8,4h7.1c0.6,0,1.1-0.2,1.5-0.6l9.4-10c3,1.4,6.6,0.2,8-2.8
	c1.4-3,0.2-6.6-2.8-8s-6.6-0.2-8,2.8C115.8,33,115.8,34.9,116.5,36.6C116.6,36.6,116.6,36.6,116.5,36.6z M122,32c1.1,0,2,0.9,2,2
	s-0.9,2-2,2s-2-0.9-2-2C120,32.9,120.9,32,122,32z"/>
<path class="st0" d="M82,20.3l9.4-8.8c0,0,0,0,0-0.1c3,1.4,6.6,0.2,8-2.8c1.4-3,0.2-6.6-2.8-8s-6.6-0.2-8,2.8
	c-0.8,1.6-0.8,3.6,0,5.2l-10,9.4c-0.4,0.4-0.6,0.9-0.6,1.5v7.1c1.4,0.5,2.7,1.1,4,1.8V20.3z M94,4c1.1,0,2,0.9,2,2s-0.9,2-2,2
	s-2-0.9-2-2C92,4.9,92.9,4,94,4z"/>
<path class="st0" d="M64,100c19.9,0,36-16.1,36-36S83.9,28,64,28S28,44.1,28,64C28,83.9,44.1,100,64,100z M64,32
	c17.7,0,32,14.3,32,32S81.7,96,64,96S32,81.7,32,64C32,46.3,46.3,32,64,32z"/>
<path class="st0" d="M43.7,72.1c-0.2,0.7-0.3,1.5-0.3,2.2c0,3.5,2.1,6.7,5.3,8.1c1,3.8,4.5,6.5,8.4,6.5c2.6,0,5.1-1.1,6.8-3.1
	c1.7,2,4.2,3.1,6.8,3.1c4,0,7.4-2.7,8.4-6.5c3.2-1.4,5.3-4.6,5.3-8.1c0-0.8-0.1-1.5-0.3-2.2c4.7-3,6.2-9.2,3.2-13.9
	c-0.8-1.2-1.8-2.3-3-3.1c0.7-4.1-1.5-8.1-5.3-9.7c-1.3-4.7-6.2-7.4-10.8-6c-1.7,0.5-3.1,1.4-4.3,2.7c-3.2-3.7-8.7-4.1-12.4-0.9
	c-1.3,1.1-2.2,2.6-2.7,4.3c-3.8,1.6-6,5.6-5.3,9.7c-4.7,3.1-6,9.3-2.9,14C41.4,70.3,42.5,71.3,43.7,72.1z M70.7,43
	c2.4,0,4.4,1.8,4.7,4.2c0.1,0.8,0.7,1.5,1.5,1.7c2.2,0.5,3.7,2.5,3.6,4.7c0,0.6-0.1,1.2-0.3,1.8c-0.4,1,0.1,2.2,1.1,2.6
	c3.1,1.3,4.5,4.9,3.2,8c-0.7,1.5-1.9,2.7-3.4,3.3c-1,0.4-1.6,1.5-1.2,2.6c0,0.1,0.1,0.2,0.1,0.2c1.3,2.4,0.3,5.3-2,6.6
	c-0.3,0.2-0.6,0.3-1,0.4c-0.8,0.2-1.4,0.9-1.5,1.7c-0.2,2.4-2.3,4.3-4.7,4.3c-2.6,0.1-4.7-1.9-4.8-4.5c0,0,0-0.1,0-0.1V47.6
	c0-2.5,2-4.6,4.5-4.6C70.6,43,70.7,43,70.7,43z M46.7,57.9c1-0.4,1.5-1.6,1.1-2.6c-0.2-0.6-0.3-1.2-0.3-1.8c0-2.2,1.5-4.2,3.6-4.7
	c0.8-0.2,1.4-0.9,1.5-1.7c0.3-2.4,2.3-4.1,4.7-4.2c2.5-0.1,4.6,1.9,4.7,4.4c0,0.1,0,0.1,0,0.2v32.9c0,2.6-2.2,4.6-4.7,4.6
	c0,0-0.1,0-0.1,0c-2.4,0-4.4-1.9-4.7-4.3c-0.1-0.8-0.7-1.5-1.5-1.7c-2.6-0.7-4.1-3.4-3.4-6c0.1-0.3,0.2-0.6,0.4-1
	c0.5-1,0.1-2.2-0.8-2.7c-0.1,0-0.2-0.1-0.2-0.1c-3.1-1.2-4.7-4.7-3.5-7.9C44,59.8,45.2,58.6,46.7,57.9z"/>
<path class="st0" d="M31,101.3c0-3.3-2.7-6-6-6s-6,2.7-6,6s2.7,6,6,6C28.3,107.2,31,104.6,31,101.3z M25,103.3c-1.1,0-2-0.9-2-2
	s0.9-2,2-2s2,0.9,2,2C27,102.4,26.1,103.2,25,103.3z"/>
<path class="st0" d="M102,95.3c-3.3,0-6,2.7-6,6s2.7,6,6,6s6-2.7,6-6C108,97.9,105.3,95.3,102,95.3z M102,103.3c-1.1,0-2-0.9-2-2
	s0.9-2,2-2s2,0.9,2,2C104,102.4,103.1,103.2,102,103.3z"/>
<path class="st0" d="M70,103.5v2.5c0,1.1,0.9,2,2,2s2-0.9,2-2v-3.3C72.7,103.1,71.3,103.3,70,103.5z"/>
<path class="st0" d="M58,103.5c-1.3-0.2-2.7-0.5-4-0.8v3.3c0,1.1,0.9,2,2,2s2-0.9,2-2V103.5z"/>
<path class="st0" d="M46,107.7l-9.4,8.8c0,0,0,0,0,0.1c-3-1.4-6.6-0.2-8,2.8s-0.2,6.6,2.8,8s6.6,0.2,8-2.8c0.8-1.6,0.8-3.6,0-5.2
	l10-9.4c0.4-0.4,0.6-0.9,0.6-1.5v-7.1c-1.4-0.5-2.7-1.1-4-1.8V107.7z M34,124c-1.1,0-2-0.9-2-2s0.9-2,2-2s2,0.9,2,2
	C36,123.1,35.1,124,34,124z"/>
<path class="st0" d="M11.5,91.4l8.8-9.4h8c-0.7-1.3-1.2-2.6-1.8-4h-7.1c-0.6,0-1.1,0.2-1.5,0.6l-9.4,10c-3-1.4-6.6-0.2-8,2.8
	c-1.4,3-0.2,6.6,2.8,8c3,1.4,6.6,0.2,8-2.8C12.2,95,12.2,93.1,11.5,91.4C11.4,91.4,11.4,91.4,11.5,91.4z M6,96c-1.1,0-2-0.9-2-2
	s0.9-2,2-2s2,0.9,2,2C8,95.1,7.1,96,6,96z"/>
<path class="st0" d="M22,70c-1.1,0-2,0.9-2,2s0.9,2,2,2h3.3c-0.3-1.3-0.6-2.7-0.8-4H22z"/>
<path class="st0" d="M20,56c0,1.1,0.9,2,2,2h2.5c0.2-1.3,0.5-2.7,0.8-4H22C20.9,54,20,54.9,20,56z"/>
<path class="st0" d="M70,24.5c1.3,0.2,2.7,0.5,4,0.8V22c0-1.1-0.9-2-2-2s-2,0.9-2,2V24.5z"/>
<path class="st0" d="M58,24.5V22c0-1.1-0.9-2-2-2s-2,0.9-2,2v3.3C55.3,24.9,56.7,24.7,58,24.5z"/>
</svg>
