<?xml version="1.0" encoding="utf-8"?>
<!-- Generator: Adobe Illustrator 24.2.3, SVG Export Plug-In . SVG Version: 6.00 Build 0)  -->
<svg version="1.1" id="Capa_1" xmlns="http://www.w3.org/2000/svg" xmlns:xlink="http://www.w3.org/1999/xlink" x="0px" y="0px"
	 viewBox="0 0 64 80" style="enable-background:new 0 0 64 80;" xml:space="preserve">
<style type="text/css">
	.st0{fill:#D61644;}
</style>
<g>
	<rect x="34" y="4" class="st0" width="2" height="2"/>
	<rect x="38" y="4" class="st0" width="2" height="2"/>
	<rect x="36" y="2" class="st0" width="2" height="2"/>
	<rect x="36" y="6" class="st0" width="2" height="2"/>
	<rect x="42" y="11" class="st0" width="2" height="2"/>
	<rect x="46" y="11" class="st0" width="2" height="2"/>
	<rect x="44" y="9" class="st0" width="2" height="2"/>
	<rect x="44" y="13" class="st0" width="2" height="2"/>
	<rect x="28" y="4" class="st0" width="2" height="2"/>
	<rect x="24" y="4" class="st0" width="2" height="2"/>
	<rect x="26" y="2" class="st0" width="2" height="2"/>
	<rect x="26" y="6" class="st0" width="2" height="2"/>
	<rect x="20" y="11" class="st0" width="2" height="2"/>
	<rect x="16" y="11" class="st0" width="2" height="2"/>
	<rect x="18" y="9" class="st0" width="2" height="2"/>
	<rect x="18" y="13" class="st0" width="2" height="2"/>
	<path class="st0" d="M37,45.8L36.3,43H39c0.6,0,1-0.4,1-1c0-0.3-0.2-0.6-0.4-0.8l-7-5c-0.3-0.2-0.8-0.2-1.2,0l-7,5
		c-0.4,0.3-0.6,0.9-0.2,1.4c0.2,0.3,0.5,0.4,0.8,0.4h2.7L27,45.8c-0.1,0.5,0.2,1.1,0.7,1.2c0.1,0,0.2,0,0.2,0h8c0.6,0,1-0.4,1-1
		C37,45.9,37,45.8,37,45.8z M35,41c-0.6,0-1,0.4-1,1c0,0.1,0,0.2,0,0.2l0.7,2.8h-5.4l0.7-2.8c0.1-0.5-0.2-1.1-0.7-1.2
		c-0.1,0-0.2,0-0.2,0h-0.9l3.9-2.8l3.9,2.8H35z"/>
	<path class="st0" d="M25,29h2.7L27,31.8c-0.1,0.5,0.2,1.1,0.7,1.2c0.1,0,0.2,0,0.2,0h8c0.6,0,1-0.4,1-1c0-0.1,0-0.2,0-0.2L36.3,29
		H39c0.6,0,1-0.4,1-1c0-0.3-0.2-0.6-0.4-0.8l-7-5c-0.3-0.2-0.8-0.2-1.2,0l-7,5c-0.4,0.3-0.6,0.9-0.2,1.4C24.4,28.8,24.7,29,25,29z
		 M32,24.2l3.9,2.8H35c-0.6,0-1,0.4-1,1c0,0.1,0,0.2,0,0.2l0.7,2.8h-5.4l0.7-2.8c0.1-0.5-0.2-1.1-0.7-1.2c-0.1,0-0.2,0-0.2,0h-0.9
		L32,24.2z"/>
	<path class="st0" d="M25,15h2.7L27,17.8c-0.1,0.5,0.2,1.1,0.7,1.2c0.1,0,0.2,0,0.2,0h8c0.6,0,1-0.4,1-1c0-0.1,0-0.2,0-0.2L36.3,15
		H39c0.6,0,1-0.4,1-1c0-0.3-0.2-0.6-0.4-0.8l-7-5c-0.3-0.2-0.8-0.2-1.2,0l-7,5c-0.4,0.3-0.6,0.9-0.2,1.4C24.4,14.8,24.7,15,25,15z
		 M32,10.2l3.9,2.8H35c-0.6,0-1,0.4-1,1c0,0.1,0,0.2,0,0.2l0.7,2.8h-5.4l0.7-2.8c0.1-0.5-0.2-1.1-0.7-1.2c-0.1,0-0.2,0-0.2,0h-0.9
		L32,10.2z"/>
	<path class="st0" d="M62,43V28c0-0.1,0-0.2-0.1-0.3L56.4,12c-0.4-1.2-1.6-2-2.8-2h-0.9c-0.9,0-1.8,0.4-2.4,1.2
		c-0.6,0.8-0.7,1.7-0.5,2.7L54,28.1v7.6l-3,5.4V33c0-1.7-1.3-3-3-3h-0.5c-1.3,0-2.5,0.9-2.9,2.2L40,47.7c0,0.1,0,0.2,0,0.3v6h-2
		c-0.5,0-0.9,0.4-1,0.8l-1,6c0,0.3,0,0.6,0.2,0.8c0.2,0.2,0.5,0.3,0.8,0.3h24c0.3,0,0.6-0.1,0.8-0.3c0.2-0.2,0.3-0.5,0.2-0.8l-1-6
		c-0.1-0.5-0.5-0.8-1-0.8h-1.6L62,43.3C62,43.2,62,43.1,62,43z M59.2,56l0.7,4H38.2l0.7-4H59.2z M60,42.8L56.3,54H42v-5.9l4.5-15.4
		c0.1-0.4,0.5-0.7,1-0.7H48c0.6,0,1,0.4,1,1v12c0,0.6,0.5,1,1,1c0.4,0,0.7-0.2,0.9-0.5l5-9C56,36.3,56,36.2,56,36v-8
		c0-0.1,0-0.2,0-0.3l-4.3-14.4c-0.2-0.5,0.1-1.1,0.7-1.2c0.1,0,0.2,0,0.3,0h0.9c0.4,0,0.8,0.3,1,0.7L60,28.2V42.8z"/>
	<path class="st0" d="M27,54.8c-0.1-0.5-0.5-0.8-1-0.8h-2v-6c0-0.1,0-0.2,0-0.3l-4.6-15.6C19,30.9,17.8,30,16.5,30H16
		c-1.7,0-3,1.3-3,3v8.1l-3-5.4v-7.6l4.2-14.3c0.3-0.9,0.1-1.9-0.5-2.7c-0.6-0.8-1.5-1.2-2.4-1.2h-0.9c-1.3,0-2.4,0.8-2.8,2L2.1,27.7
		C2,27.8,2,27.9,2,28v15c0,0.1,0,0.2,0,0.3L5.6,54H4c-0.5,0-0.9,0.4-1,0.8l-1,6c0,0.3,0,0.6,0.2,0.8C2.4,61.9,2.7,62,3,62h24
		c0.3,0,0.6-0.1,0.8-0.3c0.2-0.2,0.3-0.5,0.2-0.8L27,54.8z M4,42.8V28.2l5.5-15.5C9.6,12.3,10,12,10.4,12h0.9c0.6,0,1,0.4,1,1
		c0,0.1,0,0.2,0,0.3L8,27.7c0,0.1,0,0.2,0,0.3v8c0,0.2,0,0.3,0.1,0.5l5,9c0.3,0.5,0.9,0.6,1.4,0.4c0.3-0.2,0.5-0.5,0.5-0.9V33
		c0-0.6,0.4-1,1-1h0.5c0.4,0,0.8,0.3,1,0.7L22,48.1V54H7.7L4,42.8z M4.2,60l0.7-4h20.3l0.7,4H4.2z"/>
</g>
</svg>
