<?xml version="1.0" encoding="utf-8"?>
<!-- Generator: Adobe Illustrator 24.2.3, SVG Export Plug-In . SVG Version: 6.00 Build 0)  -->
<svg version="1.1" id="Capa_1" xmlns="http://www.w3.org/2000/svg" xmlns:xlink="http://www.w3.org/1999/xlink" x="0px" y="0px"
	 viewBox="0 0 67 83.8" style="enable-background:new 0 0 67 83.8;" xml:space="preserve">
<style type="text/css">
	.st0{fill:#697CB5;}
</style>
<g>
	<g>
		<path class="st0" d="M49.5,1.8c-0.5,0-34.8,0-34.1,0c-2.6,0-4.6,2.1-4.6,4.6v41.4c0,3.2,2.5,5.9,5.9,5.9h25.6
			c0.2,0.2,0.3,0.3,0.5,0.4v3.1h-1.4c-0.4,0-0.8,0.3-0.8,0.8v6.5c0,0.4,0.3,0.8,0.8,0.8s0.8-0.3,0.8-0.8v-5.7c3.1,0,9.2,0,12.2,0
			v5.7c0,0.4,0.3,0.8,0.8,0.8s0.8-0.3,0.8-0.8V58c0-0.4-0.3-0.8-0.8-0.8h-1.6v-3.4c1.6-1.4,2.8-3.6,2.8-6.1V30.4
			c0-1.4-1.1-2.6-2.4-2.7c-0.5,0-1,0.1-1.4,0.3c-0.3-1-1.2-1.8-2.2-1.9V2.5C50.2,2.1,49.9,1.8,49.5,1.8z M16.9,3.3h5.1v9.5l-2.1-1.5
			c-0.3-0.2-0.6-0.2-0.9,0l-2.1,1.5C16.9,12.7,16.9,3.3,16.9,3.3z M12.2,6.4c0-1.7,1.4-3.1,3.1-3.1h0.1v10.9c0,0.6,0.7,1,1.2,0.6
			l2.9-2.1l2.9,2.1c0.5,0.4,1.2,0,1.2-0.6V3.3h25.2v23.1c-0.3-1.2-1.3-1.8-2.5-1.8h0h0c-1.4,0-2.6,1.2-2.6,2.6V28
			c-0.3,0-0.7,0-1.1,0c-1.4,0-2.6,1.2-2.6,2.6v9.9l-2.5-2.5c-1-1-2.7-1-3.7,0c-1,1-1,2.7,0,3.6l0.3,0.3H16.7c-1.8,0-3.4,0.8-4.4,2
			L12.2,6.4L12.2,6.4z M16.7,52.3c-2.6,0-4.4-2.1-4.4-4.4c0-2.5,2-4.4,4.4-4.4h18.7l1.6,1.8H16.8c-1.5,0-2.6,1.2-2.6,2.6
			s1.2,2.6,2.6,2.6h23.5c0.2,0.7,0.5,1.4,0.7,1.8C41,52.2,16.7,52.2,16.7,52.3z M38.3,46.7l0.4,0.4c0.5,0.5,0.8,1.1,1.1,1.8H16.8
			c-0.6,0-1.1-0.5-1.1-1.1s0.5-1.1,1.1-1.1C16.8,46.7,38.3,46.7,38.3,46.7z M51.1,28.8c0,7.6,0,9.7,0,10.3c0,0,0,0,0,0.1
			c0,0,0,0,0,0c0,0,0,0,0,0c0,0,0,0,0,0c0,0,0,0,0,0c0,0.4,0.3,0.8,0.8,0.8s0.8-0.3,0.8-0.8v-8.9c0,0,0,0,0,0c0-0.6,0.5-1.1,1.2-1.1
			c0,0,0,0,0,0c0.6,0,1,0.6,1,1.2v17.3c0,2.1-1,4.1-2.5,5.2c-0.2,0.1-0.3,0.4-0.3,0.6v3.8h-7.7v-3.5c0-1.1-1.5-0.3-2.7-4.3
			c-0.8-3.1-6.8-9.1-6.8-9c-0.4-0.4-0.4-1.1,0-1.5c0.4-0.4,1.2-0.4,1.6,0l3.8,3.8c0.2,0.2,0.5,0.3,0.8,0.2c0.3-0.1,0.5-0.4,0.5-0.7
			V30.6c0-0.6,0.5-1.1,1.1-1.1c0.6,0,1.1,0.5,1.1,1.1c0,0,0,0,0,0v8.6c0,0.4,0.3,0.8,0.8,0.8s0.8-0.3,0.8-0.8c0-0.2,0-0.2,0-0.2
			c0-0.6,0-3.2,0-11.9c0-0.7,0.6-1.2,1.4-1c0.7,0.2,0.8,0.9,0.8,2.1c0,0,0,0,0,0c-0.1,1.1,0,10.9,0,11.1c0,0.4,0.3,0.8,0.8,0.8
			s0.8-0.3,0.8-0.8V28.7c0,0,0,0,0,0c0-0.5,0.4-1.1,1.2-1.1C50.6,27.7,51.1,28.2,51.1,28.8z"/>
	</g>
</g>
</svg>
