<?xml version="1.0" encoding="utf-8"?>
<!-- Generator: Adobe Illustrator 25.4.1, SVG Export Plug-In . SVG Version: 6.00 Build 0)  -->
<svg version="1.1" id="Capa_1" xmlns="http://www.w3.org/2000/svg" xmlns:xlink="http://www.w3.org/1999/xlink" x="0px" y="0px"
	 viewBox="0 0 64 80" style="enable-background:new 0 0 64 80;" xml:space="preserve">
<style type="text/css">
	.st0{fill:#3A79F9;}
</style>
<g>
	<g>
		<path class="st0" d="M27.3,13.6l-0.5-1.9c-0.7,0.2-1.4,0.4-2,0.6l0.7,1.9C26.1,13.9,26.7,13.7,27.3,13.6z"/>
		<path class="st0" d="M23.7,14.9l-0.9-1.8c-0.6,0.3-1.2,0.6-1.8,1l1,1.7C22.6,15.5,23.2,15.2,23.7,14.9z"/>
		<path class="st0" d="M19.1,18.1c0.5-0.4,0.9-0.8,1.5-1.2l-1.2-1.6c-0.6,0.4-1.1,0.9-1.6,1.4L19.1,18.1z"/>
		<path class="st0" d="M28.9,11.2l0.3,2c0.6-0.1,1.3-0.2,1.9-0.2L31,11C30.3,11.1,29.6,11.1,28.9,11.2z"/>
		<path class="st0" d="M17.7,19.5l-1.5-1.3c-0.5,0.5-0.9,1.1-1.3,1.6l1.6,1.2C16.9,20.4,17.3,19.9,17.7,19.5z"/>
		<path class="st0" d="M43,14.1c-0.6-0.4-1.2-0.7-1.8-1l-0.9,1.8c0.6,0.3,1.1,0.6,1.7,0.9L43,14.1z"/>
		<path class="st0" d="M46.3,19.5c0.4,0.5,0.8,1,1.2,1.5l1.6-1.2c-0.4-0.6-0.8-1.1-1.3-1.6L46.3,19.5z"/>
		<path class="st0" d="M51.2,23.4c-0.3-0.6-0.6-1.3-1-1.9l-1.7,1c0.3,0.5,0.6,1.1,0.9,1.7L51.2,23.4z"/>
		<path class="st0" d="M36.7,13.6c0.6,0.2,1.2,0.3,1.8,0.6l0.7-1.9c-0.7-0.2-1.3-0.4-2-0.6L36.7,13.6z"/>
		<path class="st0" d="M34.8,13.2l0.3-2c-0.7-0.1-1.4-0.2-2.1-0.2L33,13C33.6,13.1,34.2,13.1,34.8,13.2z"/>
		<path class="st0" d="M46.3,16.6c-0.5-0.5-1-0.9-1.6-1.4l-1.2,1.6c0.5,0.4,1,0.8,1.4,1.2L46.3,16.6z"/>
		<path class="st0" d="M12.9,23.4l1.8,0.8c0.3-0.6,0.6-1.1,0.9-1.7l-1.7-1C13.5,22.2,13.1,22.8,12.9,23.4z"/>
		<path class="st0" d="M29.2,50.8l-0.3,2c0.7,0.1,1.4,0.2,2.1,0.2l0.1-2C30.4,50.9,29.8,50.9,29.2,50.8z"/>
		<path class="st0" d="M40.3,49.1l0.9,1.8c0.6-0.3,1.2-0.6,1.8-1l-1-1.7C41.4,48.5,40.8,48.8,40.3,49.1z"/>
		<path class="st0" d="M35.1,52.8l-0.3-2c-0.6,0.1-1.3,0.2-1.9,0.2l0.1,2C33.7,52.9,34.4,52.9,35.1,52.8z"/>
		<path class="st0" d="M36.7,50.4l0.5,1.9c0.7-0.2,1.4-0.4,2-0.6l-0.7-1.9C37.9,50.1,37.3,50.3,36.7,50.4z"/>
		<path class="st0" d="M51.1,40.6l-1.8-0.8c-0.3,0.6-0.5,1.1-0.9,1.7l1.7,1C50.5,41.8,50.9,41.2,51.1,40.6z"/>
		<path class="st0" d="M44.9,45.9c-0.5,0.4-0.9,0.8-1.5,1.2l1.2,1.6c0.6-0.4,1.1-0.9,1.6-1.4L44.9,45.9z"/>
		<path class="st0" d="M46.3,44.5l1.5,1.3c0.5-0.5,0.9-1.1,1.3-1.6L47.4,43C47.1,43.6,46.7,44.1,46.3,44.5z"/>
		<path class="st0" d="M21,49.9c0.6,0.4,1.2,0.7,1.8,1l0.9-1.8c-0.6-0.3-1.1-0.6-1.7-0.9L21,49.9z"/>
		<path class="st0" d="M27.3,50.4c-0.6-0.2-1.2-0.3-1.8-0.6l-0.7,1.9c0.7,0.2,1.3,0.4,2,0.6L27.3,50.4z"/>
		<path class="st0" d="M12.8,40.6c0.3,0.6,0.6,1.3,1,1.9l1.7-1c-0.3-0.5-0.6-1.1-0.9-1.7L12.8,40.6z"/>
		<path class="st0" d="M17.7,47.4c0.5,0.5,1,0.9,1.6,1.4l1.2-1.6c-0.5-0.4-1-0.8-1.4-1.2L17.7,47.4z"/>
		<path class="st0" d="M17.7,44.5c-0.4-0.5-0.8-1-1.2-1.5l-1.6,1.2c0.4,0.6,0.8,1.1,1.3,1.6L17.7,44.5z"/>
		<polygon class="st0" points="31,3.9 31,9 33,9 33,3.9 37.4,6.8 38.6,5.2 32,0.8 25.4,5.2 26.6,6.8 		"/>
		<polygon class="st0" points="11.4,12.8 15,16.4 16.4,15 12.8,11.4 18.1,10.4 17.7,8.4 9.9,9.9 8.4,17.7 10.4,18.1 		"/>
		<polygon class="st0" points="16.4,49 15,47.6 11.4,51.2 10.4,45.9 8.4,46.3 9.9,54.1 17.7,55.6 18.1,53.6 12.8,52.6 		"/>
		<polygon class="st0" points="33,60.1 33,55 31,55 31,60.1 26.6,57.2 25.4,58.8 32,63.2 38.6,58.8 37.4,57.2 		"/>
		<polygon class="st0" points="52.6,51.2 49,47.6 47.6,49 51.2,52.6 45.9,53.6 46.3,55.6 54.1,54.1 55.6,46.3 53.6,45.9 		"/>
		<polygon class="st0" points="47.6,15 49,16.4 52.6,12.8 53.6,18.1 55.6,17.7 54.1,9.9 46.3,8.4 45.9,10.4 51.2,11.4 		"/>
		<path class="st0" d="M57,26c-1.2,0-2.3,0.4-3.3,1c-4.6-3.2-12-7-21.7-7s-17.1,3.8-21.7,7c-1-0.7-2.1-1-3.3-1c-3.3,0-6,2.7-6,6
			s2.7,6,6,6c1.2,0,2.3-0.4,3.3-1c4.6,3.2,12,7,21.7,7s17.1-3.8,21.7-7c1,0.7,2.1,1,3.3,1c3.3,0,6-2.7,6-6S60.3,26,57,26z M42,32
			c0,5.5-4.5,10-10,10s-10-4.5-10-10s4.5-10,10-10S42,26.5,42,32z M7,36c-2.2,0-4-1.8-4-4s1.8-4,4-4c0.5,0,1.1,0.1,1.6,0.3
			c-2,1.6-3.2,2.8-3.3,3L4.6,32l0.6,0.7c0.1,0.1,1.3,1.4,3.3,3C8.1,35.9,7.5,36,7,36z M7.4,32c1.9-1.8,7.9-6.9,16.7-9
			c-2.5,2.2-4.1,5.4-4.1,9c0,3.6,1.6,6.8,4.1,9C15.3,38.9,9.3,33.8,7.4,32z M44,32c0-3.6-1.6-6.8-4.1-9c8.8,2.1,14.8,7.2,16.7,9
			c-1.9,1.8-7.9,6.9-16.7,9C42.4,38.8,44,35.6,44,32z M57,36c-0.5,0-1.1-0.1-1.6-0.3c2-1.6,3.2-2.8,3.3-3l0.6-0.7l-0.6-0.7
			c-0.1-0.1-1.3-1.4-3.3-3c0.5-0.2,1-0.3,1.6-0.3c2.2,0,4,1.8,4,4S59.2,36,57,36z"/>
		<path class="st0" d="M32,39c1.4,0,2.7-0.4,3.9-1.2l-1.1-1.7C33.9,36.7,33,37,32,37c-2.8,0-5-2.2-5-5s2.2-5,5-5s5,2.2,5,5
			c0,0.9-0.2,1.7-0.7,2.5l1.7,1c0.6-1.1,0.9-2.3,0.9-3.5c0-3.9-3.1-7-7-7s-7,3.1-7,7S28.1,39,32,39z"/>
	</g>
</g>
</svg>
