<?xml version="1.0" encoding="utf-8"?>
<!-- Generator: Adobe Illustrator 25.4.1, SVG Export Plug-In . SVG Version: 6.00 Build 0)  -->
<svg version="1.1" id="Capa_1" xmlns="http://www.w3.org/2000/svg" xmlns:xlink="http://www.w3.org/1999/xlink" x="0px" y="0px"
	 viewBox="0 0 64 80" style="enable-background:new 0 0 64 80;" xml:space="preserve">
<style type="text/css">
	.st0{fill:#3A79F9;}
</style>
<g>
	<path class="st0" d="M63,9H48V1H16v8H1v37c0,3.9,3.1,7,7,7h17.2c1,5.7,5.9,10,11.8,10c2.5,0,5-0.8,7-2.3c2,1.4,4.4,2.3,7,2.3
		c6.6,0,12-5.4,12-12c0-1-0.1-1.9-0.4-2.8c0.2-0.7,0.4-1.4,0.4-2.2V9z M18,3h28v6h-3V5H21v4h-3V3z M41,9H23V7h18V9z M27,51
		c0-5.5,4.5-10,10-10c1.9,0,3.8,0.6,5.4,1.6c-1,1-1.8,2.2-2.4,3.5c-0.5-0.6-1.2-1-2-1.1V43h-2v2.1c-1.7,0.2-3,1.7-3,3.4
		c0,1.9,1.6,3.5,3.5,3.5h1c0.8,0,1.5,0.7,1.5,1.5S38.3,55,37.5,55h-1c-0.8,0-1.5-0.7-1.5-1.5V53h-2v0.5c0,1.8,1.3,3.2,3,3.4V59h2
		v-2.1c0.8-0.1,1.5-0.5,2-1.1c0.6,1.3,1.4,2.5,2.4,3.5c-1.6,1-3.5,1.6-5.4,1.6C31.5,61,27,56.5,27,51z M39,50.4
		c-0.5-0.2-1-0.4-1.5-0.4h-1c-0.8,0-1.5-0.7-1.5-1.5s0.7-1.5,1.5-1.5h1c0.8,0,1.5,0.7,1.5,1.5V49h0.2C39.1,49.4,39.1,49.9,39,50.4z
		 M51,61c-5.5,0-10-4.5-10-10s4.5-10,10-10s10,4.5,10,10S56.5,61,51,61z M51,39c-2.6,0-5,0.8-7,2.3c-2-1.5-4.5-2.3-7-2.3
		c-6.6,0-12,5.4-12,12H8c-2.8,0-5-2.2-5-5V27.6l6,3V34c0,1.7,1.3,3,3,3h2c1.7,0,3-1.3,3-3v-3h26v-2H17v-4H9v3.4l-6-3V11h58v14.4
		l-6,3V25h-8v4h-2v2h2v3c0,1.7,1.3,3,3,3h2c1.7,0,3-1.3,3-3v-3.4l6-3v16.8C58.8,41.1,55.2,39,51,39z M11,34v-7h4v7c0,0.6-0.4,1-1,1
		h-2C11.4,35,11,34.6,11,34z M53,27v7c0,0.6-0.4,1-1,1h-2c-0.6,0-1-0.4-1-1v-7H53z"/>
	<rect x="9" y="13" class="st0" width="2" height="2"/>
	<rect x="9" y="17" class="st0" width="2" height="2"/>
	<rect x="9" y="21" class="st0" width="2" height="2"/>
	<rect x="15" y="13" class="st0" width="2" height="2"/>
	<rect x="15" y="17" class="st0" width="2" height="2"/>
	<rect x="15" y="21" class="st0" width="2" height="2"/>
	<rect x="47" y="13" class="st0" width="2" height="2"/>
	<rect x="47" y="17" class="st0" width="2" height="2"/>
	<rect x="47" y="21" class="st0" width="2" height="2"/>
	<rect x="53" y="13" class="st0" width="2" height="2"/>
	<rect x="53" y="17" class="st0" width="2" height="2"/>
	<rect x="53" y="21" class="st0" width="2" height="2"/>
	<path class="st0" d="M52,45.1V43h-2v2.1c-1.7,0.2-3,1.7-3,3.4c0,1.9,1.6,3.5,3.5,3.5h1c0.8,0,1.5,0.7,1.5,1.5S52.3,55,51.5,55h-1
		c-0.8,0-1.5-0.7-1.5-1.5V53h-2v0.5c0,1.8,1.3,3.2,3,3.4V59h2v-2.1c1.7-0.2,3-1.7,3-3.4c0-1.9-1.6-3.5-3.5-3.5h-1
		c-0.8,0-1.5-0.7-1.5-1.5s0.7-1.5,1.5-1.5h1c0.8,0,1.5,0.7,1.5,1.5V49h2v-0.5C55,46.7,53.7,45.3,52,45.1z"/>
</g>
</svg>
