<?xml version="1.0" encoding="utf-8"?>
<!-- Generator: Adobe Illustrator 25.4.1, SVG Export Plug-In . SVG Version: 6.00 Build 0)  -->
<svg version="1.1" id="Capa_1" xmlns="http://www.w3.org/2000/svg" xmlns:xlink="http://www.w3.org/1999/xlink" x="0px" y="0px"
	 viewBox="0 0 64 80" style="enable-background:new 0 0 64 80;" xml:space="preserve">
<style type="text/css">
	.st0{fill:#3A79F9;}
</style>
<g>
	<path class="st0" d="M52,17c-6.1,0-11,4.9-11,11v3.7c-2-2.8-5.3-4.7-9-4.7c-6.1,0-11,4.9-11,11v3.7c-2-2.8-5.3-4.7-9-4.7
		C5.9,37,1,41.9,1,48v15h62V28C63,21.9,58.1,17,52,17z M52,19c5,0,9,4,9,9s-4,9-9,9s-9-4-9-9S47,19,52,19z M32,29c5,0,9,4,9,9
		s-4,9-9,9s-9-4-9-9S27,29,32,29z M23,44.3c2,2.8,5.3,4.7,9,4.7s7-1.9,9-4.7V61H23V44.3z M12,39c5,0,9,4,9,9s-4,9-9,9s-9-4-9-9
		S7,39,12,39z M3,54.3c2,2.8,5.3,4.7,9,4.7s7-1.9,9-4.7V61H3V54.3z M61,61H43V34.3c2,2.8,5.3,4.7,9,4.7s7-1.9,9-4.7V61z"/>
	<path class="st0" d="M53,31h-2c-0.6,0-1-0.4-1-1h-2c0,1.7,1.3,3,3,3v2h2v-2c1.7,0,3-1.3,3-3s-1.3-3-3-3h-2c-0.6,0-1-0.4-1-1
		s0.4-1,1-1h2c0.6,0,1,0.4,1,1h2c0-1.7-1.3-3-3-3v-2h-2v2c-1.7,0-3,1.3-3,3s1.3,3,3,3h2c0.6,0,1,0.4,1,1S53.6,31,53,31z"/>
	<path class="st0" d="M33,41h-2c-0.6,0-1-0.4-1-1h-2c0,1.7,1.3,3,3,3v2h2v-2c1.7,0,3-1.3,3-3s-1.3-3-3-3h-2c-0.6,0-1-0.4-1-1
		s0.4-1,1-1h2c0.6,0,1,0.4,1,1h2c0-1.7-1.3-3-3-3v-2h-2v2c-1.7,0-3,1.3-3,3s1.3,3,3,3h2c0.6,0,1,0.4,1,1S33.6,41,33,41z"/>
	<path class="st0" d="M13,51h-2c-0.6,0-1-0.4-1-1H8c0,1.7,1.3,3,3,3v2h2v-2c1.7,0,3-1.3,3-3s-1.3-3-3-3h-2c-0.6,0-1-0.4-1-1
		s0.4-1,1-1h2c0.6,0,1,0.4,1,1h2c0-1.7-1.3-3-3-3v-2h-2v2c-1.7,0-3,1.3-3,3s1.3,3,3,3h2c0.6,0,1,0.4,1,1S13.6,51,13,51z"/>
	<polygon class="st0" points="3.5,28.1 4.5,29.9 51.4,4.5 49.1,8.5 50.9,9.5 55.7,1 46,1 46,3 50,3 	"/>
	<path class="st0" d="M6.5,19.9L18,13.7c0.7,0.8,1.8,1.3,3,1.3c2.2,0,4-1.8,4-4s-1.8-4-4-4s-4,1.8-4,4c0,0.3,0,0.6,0.1,0.9L5.5,18.1
		L6.5,19.9z M21,9c1.1,0,2,0.9,2,2s-0.9,2-2,2s-2-0.9-2-2S19.9,9,21,9z"/>
	<rect x="1.9" y="19.5" transform="matrix(0.8944 -0.4472 0.4472 0.8944 -8.851 3.5057)" class="st0" width="2.2" height="2"/>
	<path class="st0" d="M20.5,28.9L32,22.7c0.7,0.8,1.8,1.3,3,1.3c2.2,0,4-1.8,4-4s-1.8-4-4-4s-4,1.8-4,4c0,0.3,0,0.6,0.1,0.9
		l-11.6,6.2L20.5,28.9z M35,18c1.1,0,2,0.9,2,2s-0.9,2-2,2s-2-0.9-2-2S33.9,18,35,18z"/>
	<rect x="15.9" y="28.5" transform="matrix(0.8944 -0.4472 0.4472 0.8944 -11.3979 10.7166)" class="st0" width="2.2" height="2"/>
</g>
</svg>
