<?xml version="1.0" encoding="utf-8"?>
<!-- Generator: Adobe Illustrator 25.4.1, SVG Export Plug-In . SVG Version: 6.00 Build 0)  -->
<svg version="1.1" id="Capa_1" xmlns="http://www.w3.org/2000/svg" xmlns:xlink="http://www.w3.org/1999/xlink" x="0px" y="0px"
	 viewBox="0 0 134.6 135.4" style="enable-background:new 0 0 134.6 135.4;" xml:space="preserve">
<style type="text/css">
	.st0{fill:#FFFFFF;}
	.st1{fill:none;stroke:#FFFFFF;stroke-width:2;stroke-miterlimit:10;}
</style>
<path class="st0" d="M48.6,89.9c0.9,0.9,0.9,2.4,0,3.4l-3.8,3.8c-0.5,0.5-1.1,0.7-1.7,0.7c-0.6,0-1.2-0.2-1.7-0.7
	c-0.9-0.9-0.9-2.4,0-3.4l3.8-3.8C46.2,88.9,47.7,88.9,48.6,89.9z M86.6,64.7l-6.7,6.7l17,14.8c0,0,0.1,0.1,0.1,0.1
	c0.4,0.3,0.7,0.5,1,0.9c3.7,3.7,3.7,9.8,0,13.5c-1.8,1.8-4.2,2.8-6.7,2.8c0,0,0,0,0,0c-2.5,0-4.9-1-6.7-2.8
	c-0.3-0.3-0.6-0.7-0.9-1.1c0,0,0,0-0.1-0.1l-14.8-17l-19.9,19.9c-1.7,1.7-4,2.6-6.4,2.6c-2.4,0-4.7-0.9-6.4-2.6
	c-3.5-3.5-3.5-9.2,0-12.7l20.8-20.8L44.1,54c0,0-0.1-0.1-0.1-0.1l-1,1c-0.5,0.5-1.2,0.5-1.7,0c-0.7-0.7-2-0.7-2.7,0
	c-0.7,0.7-0.7,1.9,0,2.6c0.5,0.5,0.5,1.2,0,1.7l-5.4,5.4c-0.2,0.2-0.5,0.4-0.8,0.4s-0.6-0.1-0.8-0.4L20.8,53.8
	c-0.2-0.2-0.4-0.5-0.4-0.8c0-0.3,0.1-0.6,0.4-0.8l5.4-5.4c0.2-0.2,0.5-0.4,0.8-0.4s0.6,0.1,0.8,0.4c0.7,0.7,2,0.7,2.7,0
	c0.7-0.7,0.7-1.9,0-2.7c-0.5-0.5-0.5-1.2,0-1.7l11.3-11.3c2.6-2.6,6.2-4,10.3-4c5.4,0,11.1,2.5,15.4,6.9c0.3,0.3,0.4,0.7,0.3,1.1
	c-0.1,0.4-0.4,0.7-0.8,0.9l-13.8,4.7c-0.1,0-0.1,0.1-0.2,0.1c-0.3,0.1-0.5,0.2-0.7,0.4c-0.3,0.3-0.5,0.8-0.5,1.3
	c0,0.5,0.2,0.9,0.5,1.2c0,0,0.1,0.1,0.1,0.1c0.2,0.2,0.4,0.5,0.4,0.9c0,0.3-0.1,0.6-0.4,0.9l-1.1,1.1c0,0,0.1,0,0.1,0.1l14.8,12.9
	l7.5-7.5c-2.2-6.5-0.9-13.8,4-18.8C82,29,88,27.3,94,28.4c0.4,0.1,0.8,0.4,0.9,0.8c0.1,0.4,0,0.9-0.3,1.2L82.8,42.2l2.4,11.1
	l11.1,2.4l11.8-11.8c0.3-0.3,0.8-0.4,1.2-0.3c0.4,0.1,0.7,0.5,0.8,0.9c1.1,6-0.6,12-4.7,16.1c-3.3,3.3-7.7,5.1-12.5,5.1
	C90.7,65.7,88.6,65.3,86.6,64.7z M80.4,58.1c3.3,3.3,7.9,5.2,12.4,5.2c4.1,0,8-1.6,10.8-4.4c3-3,4.6-7.2,4.4-11.6L97.5,57.9
	c-0.3,0.3-0.7,0.4-1.1,0.3l-12.4-2.7c-0.5-0.1-0.8-0.5-0.9-0.9l-2.7-12.4c-0.1-0.4,0-0.8,0.3-1.1l10.5-10.5c-0.3,0-0.5,0-0.8,0
	c-4.2,0-8,1.6-10.8,4.4C73.4,41,73.8,51.4,80.4,58.1z M50,44.5c-0.4-0.6-0.6-1.3-0.6-2.1c0-1.1,0.4-2.2,1.2-3
	c0.4-0.4,0.9-0.7,1.4-0.9c0.1,0,0.1-0.1,0.2-0.1l12.1-4.1c-3.7-3.1-8-4.8-12.3-4.8c-3.4,0-6.4,1.1-8.6,3.3L32.9,43.4
	c0.9,1.6,0.6,3.7-0.7,5.1c-1.3,1.3-3.5,1.6-5.1,0.7L23.3,53l9.1,9.1l3.8-3.8c-0.9-1.6-0.6-3.7,0.7-5c1.3-1.3,3.5-1.6,5.1-0.7
	L50,44.5z M58.6,67.1l6-6L50,48.4c-0.1-0.1-0.1-0.2-0.2-0.3l-4.2,4.2c0.1,0.1,0.2,0.1,0.3,0.2L58.6,67.1z M78.2,73l-7.7,7.7l14.8,17
	c0.1,0.1,0.2,0.1,0.2,0.2c0.2,0.3,0.5,0.6,0.7,0.9c1.3,1.4,3.1,2.1,5,2.1c0,0,0,0,0,0c1.9,0,3.7-0.7,5-2.1c2.8-2.8,2.8-7.3,0-10.1
	c-0.3-0.3-0.6-0.5-0.9-0.7c-0.1-0.1-0.2-0.2-0.3-0.2L78.2,73z M84.2,63.7c-2-1-3.9-2.3-5.5-3.9c-1.6-1.6-2.9-3.5-3.9-5.5l-37,37
	c-2.6,2.6-2.6,6.8,0,9.4c2.5,2.5,6.9,2.5,9.4,0L84.2,63.7z"/>
<circle class="st1" cx="67.5" cy="67.5" r="63.9"/>
</svg>
